<svg xmlns="http://www.w3.org/2000/svg" xmlns:xlink="http://www.w3.org/1999/xlink" viewBox="0 0 384.63 210.39"><defs><style>.cls-1{fill:#010101;opacity:0.2;}.cls-1,.cls-10,.cls-11,.cls-12,.cls-2,.cls-3,.cls-4,.cls-5,.cls-6,.cls-7,.cls-8,.cls-9{fill-rule:evenodd;}.cls-14,.cls-2{fill:#fff;}.cls-3{fill:#fcc133;}.cls-4{fill:#e7e6e6;}.cls-5{fill:#ffe55a;}.cls-6{fill:#d39802;}.cls-7{fill:#fab612;}.cls-8{fill:#dcb103;}.cls-9{fill:#f7e824;}.cls-10{fill:url(#GradientFill_1);}.cls-11{fill:#f7c702;}.cls-12{fill:#f7e930;}.cls-13{fill:none;stroke:#1d1d1b;stroke-width:5px;}</style><linearGradient id="GradientFill_1" x1="67.82" y1="164.29" x2="67.82" y2="37.64" gradientUnits="userSpaceOnUse"><stop offset="0" stop-color="#fdc425"/><stop offset="1" stop-color="#f7ea47"/></linearGradient></defs><g id="Layer_2" data-name="Layer 2"><g id="Basic_UI" data-name="Basic UI"><path class="cls-1" d="M339.55,47.76c37,0,45.19,36.61,45.08,73-.12,36-5,71.78-45.08,71.78-114.8,0-124.85-.1-239.64-.1-40.06,0-45-35.78-45.08-71.78-.12-36.4,8.11-73,45.08-73C214.7,47.65,224.75,47.76,339.55,47.76Z"/><path class="cls-2" d="M339.55,40.59c37,0,45.19,36.61,45.08,73-.12,36-5,71.77-45.08,71.77-114.8,0-124.85-.1-239.64-.1-40.06,0-45-35.78-45.08-71.77-.12-36.41,8.11-73,45.08-73C214.7,40.49,224.75,40.59,339.55,40.59Z"/><path class="cls-3" d="M326.76,50.92c34.22,0,41.85,29.26,41.74,58.35-.11,28.75-4.66,57.36-41.74,57.36-106.27,0-107.79-.1-214.07-.1-37.08,0-41.61-28.61-41.74-57.36-.1-29.09,7.52-58.36,41.74-58.36C219,50.81,220.49,50.92,326.76,50.92Z"/><path class="cls-4" d="M99.91,180.08c-39.32,0-44.77-34.5-45.07-69.81v0c0,1.07,0,2.15,0,3.22.12,36,5,71.77,45.08,71.77l239.64.1c40.05,0,45-35.78,45.08-71.77,0-1.08,0-2.17,0-3.24-.31,35.31-5.75,69.81-45.07,69.81Z"/><path class="cls-5" d="M326.76,154.8l-214.07-.1c-34.57,0-40.85-24.86-41.64-51.53-.06,2-.1,4-.1,6,.13,28.76,4.66,57.36,41.74,57.36l214.07.1c37.08,0,41.63-28.59,41.74-57.36,0-2,0-4-.1-6C367.62,130,361.33,154.8,326.76,154.8Z"/><path class="cls-6" d="M71,108.93v.24c.13,28.76,4.66,57.36,41.74,57.36l214.07.1c37.08,0,41.63-28.59,41.74-57.36V109c0-1.55-.05-3.12-.1-4.68-.78,26.68-7.07,51.53-41.64,51.53l-214.07-.1c-34.57,0-40.85-24.86-41.64-51.53C71,105.81,71,107.36,71,108.93Z"/><path class="cls-7" d="M365.69,125.79c-167.77,17-197,18.32-291.43,1.73,4.52,15.72,15,27.18,38.43,27.18l214.07.1C351.14,154.8,361.46,142.43,365.69,125.79Z"/><path class="cls-5" d="M112.69,55.58l214.07.11c31,0,40.18,24,41.55,50.19,0-.87.08-1.74.09-2.61-.9-25-8.53-48.67-35.07-52a54.81,54.81,0,0,0-6.57-.38l-214.07-.11a54.71,54.71,0,0,0-6.56.39c-26.53,3.29-34.18,27-35.08,52l.09,2.6C72.51,79.62,81.69,55.58,112.69,55.58Z"/><path class="cls-6" d="M329.28,64.13c21,0,25.69,20.83,25.63,41.54-.08,20.48-2.86,40.85-25.63,40.85-65.24,0-65.7-.1-130.93-.1-22.76,0-25.56-20.37-25.62-40.85C172.67,84.86,177.34,64,198.35,64,263.58,64,264,64.13,329.28,64.13Z"/><path class="cls-5" d="M329.28,68.81c21,0,25.69,19.65,25.63,39.18-.08,19.31-2.86,38.53-25.63,38.53-65.24,0-65.7-.1-130.93-.1-22.76,0-25.56-19.22-25.62-38.53-.06-19.53,4.61-39.19,25.62-39.19C263.58,68.7,264,68.81,329.28,68.81Z"/><path class="cls-7" d="M329.28,68.81c21,0,25.69,18.57,25.63,37-.08,18.26-2.86,36.41-25.63,36.41-65.24,0-65.7-.1-130.93-.1-22.76,0-25.56-18.16-25.62-36.41-.06-18.46,4.61-37,25.62-37C263.58,68.7,264,68.81,329.28,68.81Z"/><path class="cls-1" d="M114.66,90.23l-9.88,1.56a56.9,56.9,0,0,1,13.61,8.43l.15.1a48.36,48.36,0,0,1,12.11,16.53v0a49.54,49.54,0,0,1,4.1,20.19,52.55,52.55,0,0,1-1.48,12.29,48.2,48.2,0,0,1-4.37,11.46h0a57.91,57.91,0,0,1-6.25,9.42,54.32,54.32,0,0,1-7.94,8,59.42,59.42,0,0,1-8.78,6,54.4,54.4,0,0,1-9.57,4.13v0c-2,.63-4,1.18-6.14,1.65v.66a19.79,19.79,0,0,1-19.77,19.76h-6a19.77,19.77,0,0,1-19.77-19.76v-1a70.82,70.82,0,0,1-9.44-2.77,60.4,60.4,0,0,1-9.7-4.65A53.79,53.79,0,0,1,17,175.8l0,0a60.29,60.29,0,0,1-6.67-7.11v0a50.39,50.39,0,0,1-5.15-8H5.18a49.74,49.74,0,0,1-2.16-5v0c-.79-2.09-1.21-3.29-1.61-4.45v0C0,147-.66,142.68.9,138h0c1.93-5.69,6.16-9.84,14.14-11.27l.78-.16,12-1.39a41.73,41.73,0,0,1-8-5.7,51.69,51.69,0,0,1-8-9.24A43,43,0,0,1,6,97.63,51.79,51.79,0,0,1,4.11,83.51,50,50,0,0,1,7.88,64.1,48,48,0,0,1,19.11,47.89,50.41,50.41,0,0,1,35.7,37.46,66.88,66.88,0,0,1,46.44,34.3a19.77,19.77,0,0,1,18-11.55h6a19.72,19.72,0,0,1,14,5.79,19.92,19.92,0,0,1,4,5.79A70.49,70.49,0,0,1,97,36.64a52,52,0,0,1,15.16,8,48.7,48.7,0,0,1,9.33,9.54A51,51,0,0,1,128,65.72a22,22,0,0,1,1.17,3.82v.06A17.22,17.22,0,0,1,128,80.51h0A16.49,16.49,0,0,1,118.9,89v0a20.76,20.76,0,0,1-3.65,1.05Z"/><path class="cls-4" d="M114.66,82.85l-9.88,1.55a57.87,57.87,0,0,1,13.61,8.44l.15.11a48.26,48.26,0,0,1,12.11,16.53v0a49.54,49.54,0,0,1,4.1,20.19A52.53,52.53,0,0,1,133.27,142a48.28,48.28,0,0,1-4.37,11.47h0a59.24,59.24,0,0,1-6.25,9.42,54.32,54.32,0,0,1-7.94,8,59.34,59.34,0,0,1-8.78,5.95,55.19,55.19,0,0,1-9.57,4.14v0c-2,.63-4,1.18-6.14,1.64v.67A19.79,19.79,0,0,1,70.44,203h-6a19.77,19.77,0,0,1-19.77-19.76V182.2a68,68,0,0,1-9.44-2.78,58.76,58.76,0,0,1-9.7-4.65A52.47,52.47,0,0,1,17,168.43l0,0a60.29,60.29,0,0,1-6.67-7.11v0a50.39,50.39,0,0,1-5.15-8H5.18a51.85,51.85,0,0,1-2.16-5v-.05c-.79-2.1-1.21-3.29-1.61-4.44v-.05C0,139.62-.66,135.29.9,130.67h0c1.93-5.69,6.16-9.86,14.14-11.29l.78-.15,12-1.39a43,43,0,0,1-8-5.69,51.49,51.49,0,0,1-8-9.26A42.54,42.54,0,0,1,6,90.24a51.7,51.7,0,0,1-1.89-14.1A49.93,49.93,0,0,1,7.88,56.73,48,48,0,0,1,19.11,40.52,50.09,50.09,0,0,1,35.7,30.09a66.88,66.88,0,0,1,10.74-3.16,19.77,19.77,0,0,1,18-11.55h6a19.72,19.72,0,0,1,14,5.79,19.92,19.92,0,0,1,4,5.79A68.73,68.73,0,0,1,97,29.27a51.49,51.49,0,0,1,15.16,8,48.7,48.7,0,0,1,9.33,9.54A50.83,50.83,0,0,1,128,58.35a22,22,0,0,1,1.17,3.82v0A17.28,17.28,0,0,1,128,73.14h0a16.51,16.51,0,0,1-9.12,8.54v0a21.65,21.65,0,0,1-3.65,1Z"/><path class="cls-2" d="M104.78,84.4c17.82,8.3,28.89,22.43,29.89,42.47a53.41,53.41,0,0,1-20,38.47,56.7,56.7,0,0,1-24.48,11.75v.67a19.7,19.7,0,0,1-5.8,14c-8,8-26,8-34,0a19.7,19.7,0,0,1-5.79-14V176.7a63.63,63.63,0,0,1-19.14-7.43c-11.92-7.19-23.22-21.63-25.3-35.8,2.29-14.25,16.05-14.28,27.64-15.63,8.68-.57-6-9.37-8-11.19A46.93,46.93,0,0,1,6,84.75,50.4,50.4,0,0,1,4.19,73.4,48.93,48.93,0,0,1,7.88,56.73,48,48,0,0,1,19.11,40.52,50.09,50.09,0,0,1,35.7,30.09a66.88,66.88,0,0,1,10.74-3.16,19.77,19.77,0,0,1,18-11.55h6a19.72,19.72,0,0,1,14,5.79,19.92,19.92,0,0,1,4,5.79A68.73,68.73,0,0,1,97,29.27a51.49,51.49,0,0,1,15.16,8,48.7,48.7,0,0,1,9.33,9.54A50.83,50.83,0,0,1,128,58.35a22,22,0,0,1,1.17,3.82v0l.2,1.12c-2.08,13-13.6,13.85-24.57,15.57C99.79,79.74,98.84,81,104.78,84.4Z"/><path class="cls-8" d="M112.75,67.89l-23,3.63c-5.08.86-6-2.49-6.62-3.78a22,22,0,0,0-2.54-4.2,16.18,16.18,0,0,0-2.93-2.64V85.47q24,6.81,32.51,14.24c8,7.22,12,16.32,12,27.42A37.13,37.13,0,0,1,117.84,145a44.32,44.32,0,0,1-25.37,21.47,64.32,64.32,0,0,1-14.84,2.68v11.58a7.21,7.21,0,0,1-7.19,7.19h-6a7.2,7.2,0,0,1-7.19-7.19V169a74.37,74.37,0,0,1-17.59-3.84,43.12,43.12,0,0,1-14.11-8.49A41.56,41.56,0,0,1,16.39,145a60.24,60.24,0,0,1-3.08-7.81c-1.27-3.69-1.42-7,4-8l22.43-2.6c5.93-1.33,9.09,0,9.09,4.41,0,2.46,1.33,4.76,3.15,7.35a18.44,18.44,0,0,0,5.29,4.84V112.62c-10.12-2.88-17.43-5.44-21.92-7.62A33.56,33.56,0,0,1,22.25,93.24c-3.69-5.4-5.56-11.94-5.56-19.67A35.38,35.38,0,0,1,27.82,47Q38,37.22,57.23,35.42V32.58a7.2,7.2,0,0,1,7.19-7.2h6a7.21,7.21,0,0,1,7.19,7.2v2.86q17.31,1.73,26.9,9.15a37.33,37.33,0,0,1,11.81,15.85c1.39,3.47.79,6.54-3.59,7.45Zm-35.12,51v26.15A17.5,17.5,0,0,0,85,140.5a12.69,12.69,0,0,0,3.54-8.72,11.9,11.9,0,0,0-3-7.76q-2.3-2.7-7.92-5.12ZM57.23,79.43V59.65A12.76,12.76,0,0,0,53,62.8a10.11,10.11,0,0,0-2.25,6.52A10.66,10.66,0,0,0,53,76.13,12.86,12.86,0,0,0,57.23,79.43Z"/><path class="cls-9" d="M77.63,60.9V85.47q24,6.81,32.51,14.24A34.86,34.86,0,0,1,122,123.44a36.32,36.32,0,0,1-4.17,14.25,44.49,44.49,0,0,1-25.37,21.48,64.36,64.36,0,0,1-14.84,2.67v11.57a7.21,7.21,0,0,1-7.19,7.2h-6a7.2,7.2,0,0,1-7.19-7.2V161.7a74.83,74.83,0,0,1-17.59-3.85,43.09,43.09,0,0,1-14.11-8.48,41.74,41.74,0,0,1-9.14-11.68,53.88,53.88,0,0,1-2.77-6.9,6.44,6.44,0,0,1,3.65-1.64l22.43-2.6c5.93-1.33,9.09,0,9.09,4.41,0,2.46,1.33,4.76,3.15,7.35a18.44,18.44,0,0,0,5.29,4.84V105.37Q42.05,101,35.31,97.74A33.73,33.73,0,0,1,22.25,86a32.58,32.58,0,0,1-5.4-16,34.94,34.94,0,0,1,11-23Q38,37.22,57.23,35.42V32.58a7.2,7.2,0,0,1,7.19-7.2h6a7.21,7.21,0,0,1,7.19,7.2v2.86q17.31,1.73,26.9,9.15A37,37,0,0,1,115.81,59.2a6,6,0,0,1-3.06,1.43l-23,3.63c-5.08.87-6-2.48-6.62-3.77a21.64,21.64,0,0,0-2.54-4.2,16.2,16.2,0,0,0-2.93-2.65V60.9Zm0,50.74v33.41A17.5,17.5,0,0,0,85,140.5a12.69,12.69,0,0,0,3.54-8.72,11.17,11.17,0,0,0-.57-3.54,12.18,12.18,0,0,0,.57-3.71,11.89,11.89,0,0,0-3-7.77q-2.3-2.7-7.92-5.12Zm-20.4-52V52.4A12.88,12.88,0,0,0,53,55.54a10.13,10.13,0,0,0-2.25,6.53,11.31,11.31,0,0,0,.58,3.68,10.82,10.82,0,0,0-.58,3.57A10.66,10.66,0,0,0,53,76.13a12.86,12.86,0,0,0,4.25,3.3V59.65Z"/><path class="cls-10" d="M77.63,59.74V84.3q24,6.81,32.51,14.24A34.89,34.89,0,0,1,122,122.29a36.32,36.32,0,0,1-4.17,14.23A44.39,44.39,0,0,1,92.47,158a64.36,64.36,0,0,1-14.84,2.67v11.59a7.2,7.2,0,0,1-7.19,7.18h-6a7.2,7.2,0,0,1-7.19-7.18V160.53a74.87,74.87,0,0,1-17.59-3.84,43.29,43.29,0,0,1-14.11-8.49,41.46,41.46,0,0,1-9.14-11.68,53.88,53.88,0,0,1-2.77-6.9A6.51,6.51,0,0,1,17.27,128l22.43-2.6c5.93-1.33,9.09,0,9.09,4.43,0,2.46,1.33,4.74,3.15,7.33A18.6,18.6,0,0,0,57.23,142V104.2c-10.12-2.89-17.43-5.45-21.92-7.63A33.58,33.58,0,0,1,22.25,84.83a32.58,32.58,0,0,1-5.4-16,34.94,34.94,0,0,1,11-23Q38,36.06,57.23,34.25V31.41a7.2,7.2,0,0,1,7.19-7.2h6a7.21,7.21,0,0,1,7.19,7.2v2.87q17.31,1.71,26.9,9.14A37,37,0,0,1,115.81,58a6,6,0,0,1-3.06,1.43l-23,3.63c-5.08.87-6-2.49-6.62-3.77a21.34,21.34,0,0,0-2.54-4.2,15.84,15.84,0,0,0-2.93-2.65v7.27Zm0,50.73V143.9A17.72,17.72,0,0,0,85,139.33a12.69,12.69,0,0,0,3.54-8.72,11.17,11.17,0,0,0-.57-3.54,12.18,12.18,0,0,0,.57-3.71,11.93,11.93,0,0,0-3-7.77q-2.3-2.7-7.92-5.12Zm-20.4-52V51.23A12.64,12.64,0,0,0,53,54.39,10,10,0,0,0,50.7,60.9a11.52,11.52,0,0,0,.58,3.7A11.24,11.24,0,0,0,53,75a12.75,12.75,0,0,0,4.25,3.31V58.48Z"/><path class="cls-11" d="M121.81,120.42c.08.61.15,1.23.2,1.87a36.32,36.32,0,0,1-4.17,14.23A44.39,44.39,0,0,1,92.47,158a64.36,64.36,0,0,1-14.84,2.67v11.59a7.2,7.2,0,0,1-7.19,7.18h-6a7.2,7.2,0,0,1-7.19-7.18V160.53a74.87,74.87,0,0,1-17.59-3.84,43.29,43.29,0,0,1-14.11-8.49,41.46,41.46,0,0,1-9.14-11.68A34.81,34.81,0,0,1,15,133.26a267.2,267.2,0,0,0,34.61-.12,23.31,23.31,0,0,0,2.38,4A18.6,18.6,0,0,0,57.23,142v-9.43c4.1-.37,8.28-.81,12.51-1.33,2.66-.34,5.28-.69,7.89-1.09V143.9A17.72,17.72,0,0,0,85,139.33a12.69,12.69,0,0,0,3.54-8.72,11.85,11.85,0,0,0-.22-2.22A301.51,301.51,0,0,0,121.81,120.42Z"/><path class="cls-12" d="M77.63,59.74V63.4c-2.6.26-5.23.57-7.89.89-4.23.53-8.41,1.13-12.51,1.8V51.23A12.64,12.64,0,0,0,53,54.39,10,10,0,0,0,50.7,60.9a11.52,11.52,0,0,0,.58,3.7,9.78,9.78,0,0,0-.54,2.6,300.12,300.12,0,0,0-32.87,7.86,37.41,37.41,0,0,1-1-6.25,34.94,34.94,0,0,1,11-23Q38,36.06,57.23,34.25V31.41a7.2,7.2,0,0,1,7.19-7.2h6a7.21,7.21,0,0,1,7.19,7.2v2.87q17.31,1.71,26.9,9.14A37,37,0,0,1,115.81,58a6,6,0,0,1-3.06,1.43L96.51,62c-3.55.15-7.17.37-10.84.66a6.2,6.2,0,0,1-2.57-3.36,21.34,21.34,0,0,0-2.54-4.2,15.84,15.84,0,0,0-2.93-2.65Z"/><path class="cls-13" d="M205.25,29a16.91,16.91,0,0,1-2.63,2.89,10.11,10.11,0,0,1-2.78,1.72,7.58,7.58,0,0,1-2.72.55,4.86,4.86,0,0,1-2.4-.6,5.49,5.49,0,0,1-1.89-1.78,10,10,0,0,1-1.3-2.93,15.43,15.43,0,0,1-.48-4.08,28.49,28.49,0,0,1,1.1-7.87,26.11,26.11,0,0,1,3.1-7A17.55,17.55,0,0,1,200,5,10.45,10.45,0,0,1,206,3.06a4.8,4.8,0,0,1,3.56,1.62,5.61,5.61,0,0,1,1.08,1.87A7.05,7.05,0,0,1,211.09,9v.53a5.66,5.66,0,0,1,0,.57l-5.57,1.49c-.34-.71-.73-1.06-1.19-1.06a2.07,2.07,0,0,0-1.42.78,11.46,11.46,0,0,0-1.46,2,29.2,29.2,0,0,0-1.4,2.8,33.17,33.17,0,0,0-1.19,3.12c-.34,1-.62,2-.83,3a11.28,11.28,0,0,0-.32,2.31A3.68,3.68,0,0,0,198,26.5a1.09,1.09,0,0,0,1,.55,2.12,2.12,0,0,0,1.06-.36,5,5,0,0,0,1.1-.93,8.19,8.19,0,0,0,.94-1.3,5.16,5.16,0,0,0,.59-1.44L207.52,25A21.8,21.8,0,0,1,205.25,29Z"/><path class="cls-13" d="M211.38,34.15q1.16-5.66,2.21-11c.26-1.53.54-3.13.85-4.78s.6-3.3.87-4.93.53-3.19.77-4.71.43-2.89.57-4.14a30.79,30.79,0,0,1,5.22-1.13,45.51,45.51,0,0,1,5.56-.36,8.16,8.16,0,0,1,2.74.39,3.9,3.9,0,0,1,1.7,1.08,4.08,4.08,0,0,1,.87,1.63A8,8,0,0,1,233,8.24a9.61,9.61,0,0,1-.6,3.34,14,14,0,0,1-1.59,3.1,16.23,16.23,0,0,1-2.29,2.67,12.42,12.42,0,0,1-2.78,2c.51,1.13,1,2.37,1.63,3.71s1.13,2.63,1.64,3.84c.56,1.42,1.14,2.84,1.74,4.25l-6.59,2.29q-.84-2.93-1.52-5.52c-.2-.7-.4-1.43-.6-2.18s-.38-1.46-.55-2.13-.31-1.25-.42-1.76a9.86,9.86,0,0,1-.22-1.19l-.55.17c-.17.91-.37,2-.61,3.32s-.47,2.56-.66,3.77c-.26,1.45-.51,2.93-.77,4.46Zm10-18.43a6.2,6.2,0,0,0,2-.68,14.7,14.7,0,0,0,2.23-1.42,13.74,13.74,0,0,0,1.82-1.72,2.62,2.62,0,0,0,.77-1.57,1,1,0,0,0-.3-.75,2.09,2.09,0,0,0-.83-.42A5.72,5.72,0,0,0,225.86,9c-.42,0-.86-.05-1.31-.05l-1,0-.87,0Z"/><path class="cls-13" d="M234.65,34.15,240.21,4l13.42-1.15c-.2.62-.37,1.26-.51,1.91s-.27,1.1-.4,1.68-.23,1.1-.32,1.55c-.28,0-.69,0-1.21.06l-1.68,0c-.59,0-1.19,0-1.8,0h-1.59l-1.49,7.6,2.46-.12c.63,0,1.26-.05,1.91-.05s1.14,0,1.45,0c-.12.8-.22,1.57-.32,2.34s-.22,1.54-.36,2.33c-.29,0-.75.05-1.38.07l-1.93.06-2.42.09-1.45,7.81,6.2-1L248.37,32Z"/><path class="cls-13" d="M274,17.1A27.72,27.72,0,0,1,272.23,22a26.43,26.43,0,0,1-2.83,4.67,21,21,0,0,1-3.79,3.91A19,19,0,0,1,261,33.3a14.26,14.26,0,0,1-5.38,1,11.67,11.67,0,0,1-1.18-.07c-.4,0-.8-.09-1.19-.15q1.14-5.85,2.25-11.42c.28-1.55.58-3.18.89-4.86s.61-3.35.89-5,.56-3.21.83-4.71.49-2.86.66-4.08c1.21-.23,2.44-.44,3.69-.64a25.35,25.35,0,0,1,3.82-.29,9.42,9.42,0,0,1,3.89.72,6.79,6.79,0,0,1,2.59,2,8.47,8.47,0,0,1,1.46,3,13.57,13.57,0,0,1,.47,3.61A18.7,18.7,0,0,1,274,17.1Zm-10.36-3.21c-.34,1.53-.68,3.07-1,4.63s-.68,3.18-1,4.88S261,27,260.64,29a9,9,0,0,0,2-1.84,18.38,18.38,0,0,0,1.81-2.7A33.07,33.07,0,0,0,266,21.2c.46-1.14.87-2.24,1.21-3.32a26.88,26.88,0,0,0,.78-3,12.39,12.39,0,0,0,.28-2.42,3.36,3.36,0,0,0-.87-2.46,3.68,3.68,0,0,0-2.74-.9C264.32,10.76,264,12.36,263.65,13.89Z"/><path class="cls-13" d="M281.23,33.36c-.74.07-1.5.16-2.29.25l-2.15.28a9.44,9.44,0,0,0-1,.17q.51-1.83,1-4.05c.34-1.49.69-3.05,1-4.67s.7-3.28,1-4.95.64-3.29,1-4.84q1.05-5.44,2.08-11.17l6.62-1.06Q287.38,9,286.28,14.49c-.31,1.55-.63,3.17-.95,4.84s-.64,3.32-.94,5-.59,3.23-.89,4.77-.56,2.94-.78,4.18C282.46,33.25,282,33.29,281.23,33.36Z"/><path class="cls-13" d="M292.36,34.15q1-4.68,1.86-9.22c.26-1.27.51-2.6.77-4s.5-2.75.74-4.1.45-2.64.64-3.9.34-2.42.49-3.46a10.91,10.91,0,0,0-2-.09,5.77,5.77,0,0,1-2-.25c0-.46,0-1,0-1.57s0-1.19,0-1.79.06-1.34.09-2.08c.73.06,1.47.1,2.2.13s1.48,0,2.21,0c1.45,0,2.84,0,4.19-.11s2.59-.15,3.73-.25,2.27-.22,3.38-.36l-.47,2.29c-.14.65-.28,1.32-.4,2s-.25,1.26-.36,1.74a12.58,12.58,0,0,1-1.89.36c-.64.07-1.27.16-1.89.28-.2,1-.41,2-.64,3.2s-.45,2.39-.66,3.65-.42,2.54-.61,3.85-.4,2.54-.6,3.73c-.45,2.8-.88,5.71-1.27,8.71Z"/><path class="cls-13" d="M326.05,27.92a10.49,10.49,0,0,1-2.47,3.34,11,11,0,0,1-3.65,2.16,13.12,13.12,0,0,1-4.52.77,7.16,7.16,0,0,1-3.4-.92,10.68,10.68,0,0,1-3.27-2.9l3.15-6.16a4.52,4.52,0,0,0,.89,1.13,6.37,6.37,0,0,0,1.34,1,9,9,0,0,0,1.48.7,3.78,3.78,0,0,0,1.34.28,3.71,3.71,0,0,0,1.06-.17,3.26,3.26,0,0,0,1-.51,2.76,2.76,0,0,0,.74-.79,1.86,1.86,0,0,0,.28-1,3.1,3.1,0,0,0-.66-1.89,9.74,9.74,0,0,0-1.63-1.65c-.66-.52-1.36-1.06-2.13-1.59a21.29,21.29,0,0,1-2.1-1.7,9.46,9.46,0,0,1-1.63-2,4.51,4.51,0,0,1-.68-2.46,7.19,7.19,0,0,1,1.31-4.12,13.19,13.19,0,0,1,3.29-3.29,17.67,17.67,0,0,1,4.31-2.19,13.76,13.76,0,0,1,4.42-.8,8.49,8.49,0,0,1,2.17.27,4.8,4.8,0,0,1,1.76.89,4.72,4.72,0,0,1,1.19,1.55,5.58,5.58,0,0,1,.44,2.34,6.83,6.83,0,0,1-.1,1.19c-.08.4-.14.82-.2,1.27l-6.15,1.79.15-.68a4,4,0,0,0,.06-.68,3,3,0,0,0-.45-1.85,1.39,1.39,0,0,0-1.16-.57,1.83,1.83,0,0,0-.83.25,5.62,5.62,0,0,0-1,.66,4,4,0,0,0-.83,1,2.25,2.25,0,0,0-.34,1.18,2.56,2.56,0,0,0,.58,1.7,7.11,7.11,0,0,0,1.42,1.28c.57.39,1.18.8,1.85,1.21A8,8,0,0,1,325,17.46a8.31,8.31,0,0,1,1.43,2.44,10.39,10.39,0,0,1,.57,3.72A9.89,9.89,0,0,1,326.05,27.92Z"/><path class="cls-14" d="M205.25,29a16.91,16.91,0,0,1-2.63,2.89,10.11,10.11,0,0,1-2.78,1.72,7.58,7.58,0,0,1-2.72.55,4.86,4.86,0,0,1-2.4-.6,5.49,5.49,0,0,1-1.89-1.78,10,10,0,0,1-1.3-2.93,15.43,15.43,0,0,1-.48-4.08,28.49,28.49,0,0,1,1.1-7.87,26.11,26.11,0,0,1,3.1-7A17.55,17.55,0,0,1,200,5,10.45,10.45,0,0,1,206,3.06a4.8,4.8,0,0,1,3.56,1.62,5.61,5.61,0,0,1,1.08,1.87A7.05,7.05,0,0,1,211.09,9v.53a5.66,5.66,0,0,1,0,.57l-5.57,1.49c-.34-.71-.73-1.06-1.19-1.06a2.07,2.07,0,0,0-1.42.78,11.46,11.46,0,0,0-1.46,2,29.2,29.2,0,0,0-1.4,2.8,33.17,33.17,0,0,0-1.19,3.12c-.34,1-.62,2-.83,3a11.28,11.28,0,0,0-.32,2.31A3.68,3.68,0,0,0,198,26.5a1.09,1.09,0,0,0,1,.55,2.12,2.12,0,0,0,1.06-.36,5,5,0,0,0,1.1-.93,8.19,8.19,0,0,0,.94-1.3,5.16,5.16,0,0,0,.59-1.44L207.52,25A21.8,21.8,0,0,1,205.25,29Z"/><path class="cls-14" d="M211.38,34.15q1.16-5.66,2.21-11c.26-1.53.54-3.13.85-4.78s.6-3.3.87-4.93.53-3.19.77-4.71.43-2.89.57-4.14a30.79,30.79,0,0,1,5.22-1.13,45.51,45.51,0,0,1,5.56-.36,8.16,8.16,0,0,1,2.74.39,3.9,3.9,0,0,1,1.7,1.08,4.08,4.08,0,0,1,.87,1.63A8,8,0,0,1,233,8.24a9.61,9.61,0,0,1-.6,3.34,14,14,0,0,1-1.59,3.1,16.23,16.23,0,0,1-2.29,2.67,12.42,12.42,0,0,1-2.78,2c.51,1.13,1,2.37,1.63,3.71s1.13,2.63,1.64,3.84c.56,1.42,1.14,2.84,1.74,4.25l-6.59,2.29q-.84-2.93-1.52-5.52c-.2-.7-.4-1.43-.6-2.18s-.38-1.46-.55-2.13-.31-1.25-.42-1.76a9.86,9.86,0,0,1-.22-1.19l-.55.17c-.17.91-.37,2-.61,3.32s-.47,2.56-.66,3.77c-.26,1.45-.51,2.93-.77,4.46Zm10-18.43a6.2,6.2,0,0,0,2-.68,14.7,14.7,0,0,0,2.23-1.42,13.74,13.74,0,0,0,1.82-1.72,2.62,2.62,0,0,0,.77-1.57,1,1,0,0,0-.3-.75,2.09,2.09,0,0,0-.83-.42A5.72,5.72,0,0,0,225.86,9c-.42,0-.86-.05-1.31-.05l-1,0-.87,0Z"/><path class="cls-14" d="M234.65,34.15,240.21,4l13.42-1.15c-.2.62-.37,1.26-.51,1.91s-.27,1.1-.4,1.68-.23,1.1-.32,1.55c-.28,0-.69,0-1.21.06l-1.68,0c-.59,0-1.19,0-1.8,0h-1.59l-1.49,7.6,2.46-.12c.63,0,1.26-.05,1.91-.05s1.14,0,1.45,0c-.12.8-.22,1.57-.32,2.34s-.22,1.54-.36,2.33c-.29,0-.75.05-1.38.07l-1.93.06-2.42.09-1.45,7.81,6.2-1L248.37,32Z"/><path class="cls-14" d="M274,17.1A27.72,27.72,0,0,1,272.23,22a26.43,26.43,0,0,1-2.83,4.67,21,21,0,0,1-3.79,3.91A19,19,0,0,1,261,33.3a14.26,14.26,0,0,1-5.38,1,11.67,11.67,0,0,1-1.18-.07c-.4,0-.8-.09-1.19-.15q1.14-5.85,2.25-11.42c.28-1.55.58-3.18.89-4.86s.61-3.35.89-5,.56-3.21.83-4.71.49-2.86.66-4.08c1.21-.23,2.44-.44,3.69-.64a25.35,25.35,0,0,1,3.82-.29,9.42,9.42,0,0,1,3.89.72,6.79,6.79,0,0,1,2.59,2,8.47,8.47,0,0,1,1.46,3,13.57,13.57,0,0,1,.47,3.61A18.7,18.7,0,0,1,274,17.1Zm-10.36-3.21c-.34,1.53-.68,3.07-1,4.63s-.68,3.18-1,4.88S261,27,260.64,29a9,9,0,0,0,2-1.84,18.38,18.38,0,0,0,1.81-2.7A33.07,33.07,0,0,0,266,21.2c.46-1.14.87-2.24,1.21-3.32a26.88,26.88,0,0,0,.78-3,12.39,12.39,0,0,0,.28-2.42,3.36,3.36,0,0,0-.87-2.46,3.68,3.68,0,0,0-2.74-.9C264.32,10.76,264,12.36,263.65,13.89Z"/><path class="cls-14" d="M281.23,33.36c-.74.07-1.5.16-2.29.25l-2.15.28a9.44,9.44,0,0,0-1,.17q.51-1.83,1-4.05c.34-1.49.69-3.05,1-4.67s.7-3.28,1-4.95.64-3.29,1-4.84q1.05-5.44,2.08-11.17l6.62-1.06Q287.38,9,286.28,14.49c-.31,1.55-.63,3.17-.95,4.84s-.64,3.32-.94,5-.59,3.23-.89,4.77-.56,2.94-.78,4.18C282.46,33.25,282,33.29,281.23,33.36Z"/><path class="cls-14" d="M292.36,34.15q1-4.68,1.86-9.22c.26-1.27.51-2.6.77-4s.5-2.75.74-4.1.45-2.64.64-3.9.34-2.42.49-3.46a10.91,10.91,0,0,0-2-.09,5.77,5.77,0,0,1-2-.25c0-.46,0-1,0-1.57s0-1.19,0-1.79.06-1.34.09-2.08c.73.06,1.47.1,2.2.13s1.48,0,2.21,0c1.45,0,2.84,0,4.19-.11s2.59-.15,3.73-.25,2.27-.22,3.38-.36l-.47,2.29c-.14.65-.28,1.32-.4,2s-.25,1.26-.36,1.74a12.58,12.58,0,0,1-1.89.36c-.64.07-1.27.16-1.89.28-.2,1-.41,2-.64,3.2s-.45,2.39-.66,3.65-.42,2.54-.61,3.85-.4,2.54-.6,3.73c-.45,2.8-.88,5.71-1.27,8.71Z"/><path class="cls-14" d="M326.05,27.92a10.49,10.49,0,0,1-2.47,3.34,11,11,0,0,1-3.65,2.16,13.12,13.12,0,0,1-4.52.77,7.16,7.16,0,0,1-3.4-.92,10.68,10.68,0,0,1-3.27-2.9l3.15-6.16a4.52,4.52,0,0,0,.89,1.13,6.37,6.37,0,0,0,1.34,1,9,9,0,0,0,1.48.7,3.78,3.78,0,0,0,1.34.28,3.71,3.71,0,0,0,1.06-.17,3.26,3.26,0,0,0,1-.51,2.76,2.76,0,0,0,.74-.79,1.86,1.86,0,0,0,.28-1,3.1,3.1,0,0,0-.66-1.89,9.74,9.74,0,0,0-1.63-1.65c-.66-.52-1.36-1.06-2.13-1.59a21.29,21.29,0,0,1-2.1-1.7,9.46,9.46,0,0,1-1.63-2,4.51,4.51,0,0,1-.68-2.46,7.19,7.19,0,0,1,1.31-4.12,13.19,13.19,0,0,1,3.29-3.29,17.67,17.67,0,0,1,4.31-2.19,13.76,13.76,0,0,1,4.42-.8,8.49,8.49,0,0,1,2.17.27,4.8,4.8,0,0,1,1.76.89,4.72,4.72,0,0,1,1.19,1.55,5.58,5.58,0,0,1,.44,2.34,6.83,6.83,0,0,1-.1,1.19c-.08.4-.14.82-.2,1.27l-6.15,1.79.15-.68a4,4,0,0,0,.06-.68,3,3,0,0,0-.45-1.85,1.39,1.39,0,0,0-1.16-.57,1.83,1.83,0,0,0-.83.25,5.62,5.62,0,0,0-1,.66,4,4,0,0,0-.83,1,2.25,2.25,0,0,0-.34,1.18,2.56,2.56,0,0,0,.58,1.7,7.11,7.11,0,0,0,1.42,1.28c.57.39,1.18.8,1.85,1.21A8,8,0,0,1,325,17.46a8.31,8.31,0,0,1,1.43,2.44,10.39,10.39,0,0,1,.57,3.72A9.89,9.89,0,0,1,326.05,27.92Z"/></g></g></svg>