<svg xmlns="http://www.w3.org/2000/svg" xmlns:xlink="http://www.w3.org/1999/xlink" viewBox="0 0 384.63 221.55"><defs><style>.cls-1{fill:#010101;opacity:0.2;}.cls-1,.cls-10,.cls-11,.cls-12,.cls-2,.cls-3,.cls-4,.cls-5,.cls-6,.cls-7,.cls-8,.cls-9{fill-rule:evenodd;}.cls-13,.cls-2{fill:#fff;}.cls-3{fill:#fcc133;}.cls-4{fill:#e7e6e6;}.cls-5{fill:#ffe55a;}.cls-6{fill:#d39802;}.cls-7{fill:#fab612;}.cls-8{fill:#dcb103;}.cls-9{fill:#f7e824;}.cls-10{fill:url(#GradientFill_1);}.cls-11{fill:#f7c702;}.cls-12{fill:#f7e930;}.cls-13{font-size:42.46px;font-family:Bangers-Regular, Bangers;letter-spacing:0.1em;}.cls-14{letter-spacing:0.1em;}</style><linearGradient id="GradientFill_1" x1="67.82" y1="175.44" x2="67.82" y2="48.79" gradientUnits="userSpaceOnUse"><stop offset="0" stop-color="#fdc425"/><stop offset="1" stop-color="#f7ea47"/></linearGradient></defs><g id="Layer_2" data-name="Layer 2"><g id="Basic_UI" data-name="Basic UI"><path class="cls-1" d="M339.55,58.91c37,0,45.19,36.61,45.08,73-.12,36-5,71.79-45.08,71.79-114.8,0-124.85-.11-239.64-.11-40.06,0-45-35.78-45.08-71.78-.12-36.4,8.11-73,45.08-73C214.7,58.81,224.75,58.91,339.55,58.91Z"/><path class="cls-2" d="M339.55,51.74c37,0,45.19,36.62,45.08,73-.12,36-5,71.77-45.08,71.77-114.8,0-124.85-.1-239.64-.1-40.06,0-45-35.79-45.08-71.78-.12-36.41,8.11-73,45.08-73C214.7,51.64,224.75,51.74,339.55,51.74Z"/><path class="cls-3" d="M326.76,62.07c34.22,0,41.85,29.26,41.74,58.36-.11,28.75-4.66,57.35-41.74,57.35-106.27,0-107.79-.1-214.07-.1-37.08,0-41.61-28.6-41.74-57.36C70.85,91.23,78.47,62,112.69,62,219,62,220.49,62.07,326.76,62.07Z"/><path class="cls-4" d="M99.91,191.23c-39.32,0-44.77-34.5-45.07-69.8v0c0,1.07,0,2.15,0,3.21.12,36,5,71.78,45.08,71.78l239.64.1c40.05,0,45-35.79,45.08-71.77,0-1.08,0-2.17,0-3.24-.31,35.3-5.75,69.81-45.07,69.81Z"/><path class="cls-5" d="M326.76,166l-214.07-.11c-34.57,0-40.85-24.85-41.64-51.52-.06,2-.1,4-.1,6,.13,28.77,4.66,57.36,41.74,57.36l214.07.1c37.08,0,41.63-28.59,41.74-57.35,0-2,0-4-.1-6C367.62,141.1,361.33,166,326.76,166Z"/><path class="cls-6" d="M71,120.09v.23c.13,28.77,4.66,57.36,41.74,57.36l214.07.1c37.08,0,41.63-28.59,41.74-57.35v-.24c0-1.56-.05-3.13-.1-4.68-.78,26.67-7.07,51.53-41.64,51.53l-214.07-.11c-34.57,0-40.85-24.85-41.64-51.53C71,117,71,118.52,71,120.09Z"/><path class="cls-7" d="M365.69,136.94c-167.77,16.95-197,18.33-291.43,1.73,4.52,15.72,15,27.18,38.43,27.18l214.07.11C351.14,166,361.46,153.59,365.69,136.94Z"/><path class="cls-5" d="M112.69,66.74l214.07.1c31,0,40.18,24,41.55,50.19,0-.86.08-1.74.09-2.6-.9-25-8.53-48.68-35.07-52a54.75,54.75,0,0,0-6.57-.39L112.69,62a54.77,54.77,0,0,0-6.56.38C79.6,65.65,72,89.3,71.05,114.33l.09,2.6C72.51,90.78,81.69,66.74,112.69,66.74Z"/><path class="cls-6" d="M329.28,75.28c21,0,25.69,20.84,25.63,41.54-.08,20.49-2.86,40.86-25.63,40.86-65.24,0-65.7-.11-130.93-.11-22.76,0-25.56-20.37-25.62-40.85-.06-20.71,4.61-41.54,25.62-41.54C263.58,75.18,264,75.28,329.28,75.28Z"/><path class="cls-5" d="M329.28,80c21,0,25.69,19.65,25.63,39.18-.08,19.31-2.86,38.54-25.63,38.54-65.24,0-65.7-.11-130.93-.11-22.76,0-25.56-19.22-25.62-38.53-.06-19.53,4.61-39.18,25.62-39.18C263.58,79.86,264,80,329.28,80Z"/><path class="cls-7" d="M329.28,80c21,0,25.69,18.57,25.63,37-.08,18.26-2.86,36.41-25.63,36.41-65.24,0-65.7-.1-130.93-.1-22.76,0-25.56-18.15-25.62-36.41-.06-18.46,4.61-37,25.62-37C263.58,79.86,264,80,329.28,80Z"/><path class="cls-1" d="M114.66,101.38,104.78,103a56.89,56.89,0,0,1,13.61,8.42l.15.1A48.45,48.45,0,0,1,130.65,128v.05a49.53,49.53,0,0,1,4.1,20.18,52.49,52.49,0,0,1-1.48,12.29A48.28,48.28,0,0,1,128.9,172h0a58.34,58.34,0,0,1-6.25,9.42,54.81,54.81,0,0,1-7.94,8,60.12,60.12,0,0,1-8.78,5.95,53.7,53.7,0,0,1-9.57,4.14h0c-2,.63-4,1.19-6.14,1.66v.65a19.8,19.8,0,0,1-19.77,19.77h-6a19.79,19.79,0,0,1-19.77-19.77v-1.05A70.84,70.84,0,0,1,35.21,198a62.15,62.15,0,0,1-9.7-4.65A53.24,53.24,0,0,1,17,187h0a61.08,61.08,0,0,1-6.67-7.11v-.05a50,50,0,0,1-5.15-8H5.18A48.57,48.57,0,0,1,3,166.8v-.05c-.79-2.09-1.21-3.29-1.61-4.45v0C0,158.15-.66,153.83.9,149.2h0c1.93-5.69,6.16-9.85,14.14-11.28l.78-.16,12-1.39a42.12,42.12,0,0,1-8-5.69,51.76,51.76,0,0,1-8-9.25A43,43,0,0,1,6,108.78,51.77,51.77,0,0,1,4.11,94.67,49.93,49.93,0,0,1,7.88,75.26,47.85,47.85,0,0,1,19.11,59.05,50.09,50.09,0,0,1,35.7,48.62a65.88,65.88,0,0,1,10.74-3.16,19.79,19.79,0,0,1,18-11.56h6a19.82,19.82,0,0,1,18,11.59A70.49,70.49,0,0,1,97,47.8a51.49,51.49,0,0,1,15.16,8,48.65,48.65,0,0,1,9.33,9.53A51.12,51.12,0,0,1,128,76.88a21.77,21.77,0,0,1,1.17,3.82v.06A17.23,17.23,0,0,1,128,91.67h0a16.52,16.52,0,0,1-9.12,8.53v0a21.61,21.61,0,0,1-3.65,1.06Z"/><path class="cls-4" d="M114.66,94l-9.88,1.55A57.54,57.54,0,0,1,118.39,104l.15.1a48.36,48.36,0,0,1,12.11,16.53v0a49.58,49.58,0,0,1,4.1,20.19,52.55,52.55,0,0,1-1.48,12.29,48.28,48.28,0,0,1-4.37,11.47h0a59.24,59.24,0,0,1-6.25,9.42,54.74,54.74,0,0,1-7.94,8,59.42,59.42,0,0,1-8.78,6,56.76,56.76,0,0,1-9.57,4.14h0a62.59,62.59,0,0,1-6.14,1.64v.67a19.79,19.79,0,0,1-19.77,19.76h-6a19.77,19.77,0,0,1-19.77-19.76v-1a69.36,69.36,0,0,1-9.44-2.78,60.4,60.4,0,0,1-9.7-4.65A53.12,53.12,0,0,1,17,179.58h0a61.08,61.08,0,0,1-6.67-7.11v-.05a50,50,0,0,1-5.15-8H5.18a49.74,49.74,0,0,1-2.16-5v0c-.79-2.11-1.21-3.29-1.61-4.45v0C0,150.78-.66,146.45.9,141.83h0c1.93-5.69,6.16-9.86,14.14-11.3l.78-.14,12-1.39a43,43,0,0,1-8-5.69,51.83,51.83,0,0,1-8-9.26A42.71,42.71,0,0,1,6,101.39a51.64,51.64,0,0,1-1.89-14.1A50,50,0,0,1,7.88,67.88a47.91,47.91,0,0,1,11.23-16.2A50.09,50.09,0,0,1,35.7,41.25a64.9,64.9,0,0,1,10.74-3.16,20,20,0,0,1,4-5.77,19.74,19.74,0,0,1,14-5.79h6a19.77,19.77,0,0,1,18,11.59A67.05,67.05,0,0,1,97,40.43a51.7,51.7,0,0,1,15.16,8,48.7,48.7,0,0,1,9.33,9.54A50.9,50.9,0,0,1,128,69.51a21.67,21.67,0,0,1,1.17,3.81v.05A17.24,17.24,0,0,1,128,84.29h0a16.47,16.47,0,0,1-9.12,8.54v0a21.61,21.61,0,0,1-3.65,1.06Z"/><path class="cls-2" d="M104.78,95.56C122.6,103.85,133.67,118,134.67,138a53.41,53.41,0,0,1-20,38.47,56.59,56.59,0,0,1-24.48,11.75v.67a19.7,19.7,0,0,1-5.8,14c-8,8-26,8-34,0a19.7,19.7,0,0,1-5.79-14v-1a63.9,63.9,0,0,1-19.14-7.43c-11.92-7.2-23.22-21.64-25.3-35.81C2.5,130.37,16.26,130.34,27.85,129c8.68-.57-6-9.38-8-11.19A47,47,0,0,1,6,95.91,50.49,50.49,0,0,1,4.19,84.56,49,49,0,0,1,7.88,67.88a47.91,47.91,0,0,1,11.23-16.2A50.09,50.09,0,0,1,35.7,41.25a64.9,64.9,0,0,1,10.74-3.16,20,20,0,0,1,4-5.77,19.74,19.74,0,0,1,14-5.79h6a19.77,19.77,0,0,1,18,11.59A67.05,67.05,0,0,1,97,40.43a51.7,51.7,0,0,1,15.16,8,48.7,48.7,0,0,1,9.33,9.54A50.9,50.9,0,0,1,128,69.51a21.67,21.67,0,0,1,1.17,3.81v.05l.2,1.11c-2.08,13-13.6,13.85-24.57,15.58C99.79,90.89,98.84,92.15,104.78,95.56Z"/><path class="cls-8" d="M112.75,79l-23,3.63c-5.08.87-6-2.49-6.62-3.77a21.34,21.34,0,0,0-2.54-4.2,15.84,15.84,0,0,0-2.93-2.65V96.63q24,6.8,32.51,14.23c8,7.23,12,16.32,12,27.43a37.09,37.09,0,0,1-4.33,17.81,44.39,44.39,0,0,1-25.37,21.48,64.36,64.36,0,0,1-14.84,2.67v11.59A7.2,7.2,0,0,1,70.44,199h-6a7.2,7.2,0,0,1-7.19-7.18V180.11a74.33,74.33,0,0,1-17.59-3.85,43.09,43.09,0,0,1-14.11-8.48,41.46,41.46,0,0,1-9.14-11.68,60.24,60.24,0,0,1-3.08-7.81c-1.27-3.69-1.42-7,4-8l22.43-2.6c5.93-1.33,9.09,0,9.09,4.42,0,2.46,1.33,4.75,3.15,7.34a18.3,18.3,0,0,0,5.29,4.84V123.78c-10.12-2.89-17.43-5.45-21.92-7.63a33.48,33.48,0,0,1-13.06-11.76C18.56,99,16.69,92.46,16.69,84.72A35.39,35.39,0,0,1,27.82,58.14Q38,48.38,57.23,46.57V43.73a7.2,7.2,0,0,1,7.19-7.19h6a7.2,7.2,0,0,1,7.19,7.19V46.6q17.31,1.71,26.9,9.14A37.37,37.37,0,0,1,116.34,71.6c1.39,3.46.79,6.54-3.59,7.44Zm-35.12,51V156.2A17.48,17.48,0,0,0,85,151.66a12.71,12.71,0,0,0,3.54-8.72,11.91,11.91,0,0,0-3-7.77q-2.3-2.7-7.92-5.12ZM57.23,90.59V70.81A12.88,12.88,0,0,0,53,74a10.13,10.13,0,0,0-2.25,6.53A10.65,10.65,0,0,0,53,87.28,12.88,12.88,0,0,0,57.23,90.59Z"/><path class="cls-9" d="M77.63,72.05V96.63q24,6.8,32.51,14.23A34.88,34.88,0,0,1,122,134.6a36.32,36.32,0,0,1-4.17,14.25,44.52,44.52,0,0,1-25.37,21.47A64.32,64.32,0,0,1,77.63,173v11.57a7.2,7.2,0,0,1-7.19,7.19h-6a7.2,7.2,0,0,1-7.19-7.19V172.85A73.83,73.83,0,0,1,39.64,169a42.92,42.92,0,0,1-14.11-8.48,41.7,41.7,0,0,1-9.14-11.67,54.64,54.64,0,0,1-2.77-6.91,6.44,6.44,0,0,1,3.65-1.64l22.43-2.6c5.93-1.33,9.09,0,9.09,4.42,0,2.46,1.33,4.75,3.15,7.34a18.3,18.3,0,0,0,5.29,4.84V116.52q-15.18-4.35-21.92-7.62A33.68,33.68,0,0,1,22.25,97.15a32.55,32.55,0,0,1-5.4-16,35,35,0,0,1,11-23Q38,48.38,57.23,46.57V43.73a7.2,7.2,0,0,1,7.19-7.19h6a7.2,7.2,0,0,1,7.19,7.19V46.6q17.31,1.71,26.9,9.14a37,37,0,0,1,11.28,14.62,6.16,6.16,0,0,1-3.06,1.43l-23,3.63c-5.08.86-6-2.49-6.62-3.78a21.64,21.64,0,0,0-2.54-4.2,16.18,16.18,0,0,0-2.93-2.64v7.25Zm0,50.75v33.4A17.48,17.48,0,0,0,85,151.66a12.71,12.71,0,0,0,3.54-8.72A11.12,11.12,0,0,0,88,139.4a12.2,12.2,0,0,0,.57-3.72,11.86,11.86,0,0,0-3-7.76c-1.53-1.8-4.17-3.52-7.92-5.12Zm-20.4-52V63.55A12.76,12.76,0,0,0,53,66.7a10.11,10.11,0,0,0-2.25,6.52,11.33,11.33,0,0,0,.58,3.69A11.28,11.28,0,0,0,53,87.28a12.88,12.88,0,0,0,4.25,3.31V70.81Z"/><path class="cls-10" d="M77.63,70.9V95.46q24,6.8,32.51,14.23A34.91,34.91,0,0,1,122,133.44a36.37,36.37,0,0,1-4.17,14.24,44.32,44.32,0,0,1-25.37,21.47,64.32,64.32,0,0,1-14.84,2.68v11.58a7.2,7.2,0,0,1-7.19,7.18h-6a7.2,7.2,0,0,1-7.19-7.18V171.68a74.91,74.91,0,0,1-17.59-3.83,43.31,43.31,0,0,1-14.11-8.5,41.56,41.56,0,0,1-9.14-11.67,54.64,54.64,0,0,1-2.77-6.91,6.58,6.58,0,0,1,3.65-1.64l22.43-2.6c5.93-1.33,9.09,0,9.09,4.43,0,2.46,1.33,4.74,3.15,7.33a18.62,18.62,0,0,0,5.29,4.86v-37.8c-10.12-2.88-17.43-5.44-21.92-7.62A33.61,33.61,0,0,1,22.25,96a32.55,32.55,0,0,1-5.4-16,35,35,0,0,1,11-23Q38,47.21,57.23,45.4V42.56a7.2,7.2,0,0,1,7.19-7.19h6a7.2,7.2,0,0,1,7.19,7.19v2.87q17.31,1.71,26.9,9.14a37,37,0,0,1,11.28,14.62,6.16,6.16,0,0,1-3.06,1.43l-23,3.63c-5.08.86-6-2.49-6.62-3.78a21.64,21.64,0,0,0-2.54-4.2,16.18,16.18,0,0,0-2.93-2.64V70.9Zm0,50.72v33.43A17.71,17.71,0,0,0,85,150.49a12.71,12.71,0,0,0,3.54-8.72,11.12,11.12,0,0,0-.57-3.54,12.2,12.2,0,0,0,.57-3.72,12,12,0,0,0-3-7.77c-1.53-1.79-4.17-3.51-7.92-5.12Zm-20.4-52V62.38A12.64,12.64,0,0,0,53,65.54a10,10,0,0,0-2.25,6.51,11.43,11.43,0,0,0,.58,3.7A11.26,11.26,0,0,0,53,86.11a12.73,12.73,0,0,0,4.25,3.3V69.64Z"/><path class="cls-11" d="M121.81,131.57c.08.62.15,1.23.2,1.87a36.37,36.37,0,0,1-4.17,14.24,44.32,44.32,0,0,1-25.37,21.47,64.32,64.32,0,0,1-14.84,2.68v11.58a7.2,7.2,0,0,1-7.19,7.18h-6a7.2,7.2,0,0,1-7.19-7.18V171.68a74.91,74.91,0,0,1-17.59-3.83,43.31,43.31,0,0,1-14.11-8.5,41.56,41.56,0,0,1-9.14-11.67A35,35,0,0,1,15,144.41a268.9,268.9,0,0,0,34.61-.11,23.64,23.64,0,0,0,2.38,4,18.62,18.62,0,0,0,5.29,4.86v-9.44c4.1-.36,8.28-.8,12.51-1.33,2.66-.33,5.28-.69,7.89-1.08v13.75A17.71,17.71,0,0,0,85,150.49a12.71,12.71,0,0,0,3.54-8.72,11.87,11.87,0,0,0-.22-2.23A299.29,299.29,0,0,0,121.81,131.57Z"/><path class="cls-12" d="M77.63,70.9v3.65q-3.9.4-7.89.9c-4.23.52-8.41,1.12-12.51,1.79V62.38A12.64,12.64,0,0,0,53,65.54a10,10,0,0,0-2.25,6.51,11.43,11.43,0,0,0,.58,3.7,9.77,9.77,0,0,0-.54,2.61,302.49,302.49,0,0,0-32.87,7.85,37.12,37.12,0,0,1-1-6.24,35,35,0,0,1,11-23Q38,47.21,57.23,45.4V42.56a7.2,7.2,0,0,1,7.19-7.19h6a7.2,7.2,0,0,1,7.19,7.19v2.87q17.31,1.71,26.9,9.14a37,37,0,0,1,11.28,14.62,6.16,6.16,0,0,1-3.06,1.43L96.51,73.18c-3.55.14-7.17.36-10.84.66a6.21,6.21,0,0,1-2.57-3.37,21.64,21.64,0,0,0-2.54-4.2,16.18,16.18,0,0,0-2.93-2.64Z"/><text class="cls-13" transform="translate(172.73 36.54)">CRED<tspan class="cls-14" x="86.62" y="0">I</tspan><tspan x="99.14" y="0">TS</tspan></text></g></g></svg>