<svg xmlns="http://www.w3.org/2000/svg" xmlns:xlink="http://www.w3.org/1999/xlink" viewBox="0 0 384.63 215.33"><defs><style>.cls-1{fill:#010101;opacity:0.2;}.cls-1,.cls-10,.cls-11,.cls-12,.cls-2,.cls-3,.cls-4,.cls-5,.cls-6,.cls-7,.cls-8,.cls-9{fill-rule:evenodd;}.cls-15,.cls-2{fill:#fff;}.cls-3{fill:#fcc133;}.cls-4{fill:#e7e6e6;}.cls-5{fill:#ffe55a;}.cls-6{fill:#d39802;}.cls-7{fill:#fab612;}.cls-8{fill:#dcb103;}.cls-9{fill:#f7e824;}.cls-10{fill:url(#GradientFill_1);}.cls-11{fill:#f7c702;}.cls-12{fill:#f7e930;}.cls-13,.cls-15{font-size:42.46px;font-family:Bangers-Regular, Bangers;letter-spacing:0.1em;}.cls-13{fill:none;stroke:#1d1d1b;stroke-width:5px;}.cls-14{letter-spacing:0.1em;}</style><linearGradient id="GradientFill_1" x1="67.82" y1="169.22" x2="67.82" y2="42.57" gradientUnits="userSpaceOnUse"><stop offset="0" stop-color="#fdc425"/><stop offset="1" stop-color="#f7ea47"/></linearGradient></defs><g id="Layer_2" data-name="Layer 2"><g id="Basic_UI" data-name="Basic UI"><path class="cls-1" d="M339.55,52.69c37,0,45.19,36.61,45.08,73-.12,36-5,71.79-45.08,71.79-114.8,0-124.85-.11-239.64-.11-40.06,0-45-35.78-45.08-71.78-.12-36.4,8.11-73,45.08-73C214.7,52.59,224.75,52.69,339.55,52.69Z"/><path class="cls-2" d="M339.55,45.52c37,0,45.19,36.62,45.08,73-.12,36-5,71.78-45.08,71.78-114.8,0-124.85-.1-239.64-.1-40.06,0-45-35.79-45.08-71.78-.12-36.41,8.11-73,45.08-73C214.7,45.42,224.75,45.52,339.55,45.52Z"/><path class="cls-3" d="M326.76,55.85c34.22,0,41.85,29.26,41.74,58.36-.11,28.75-4.66,57.35-41.74,57.35-106.27,0-107.79-.1-214.07-.1-37.08,0-41.61-28.61-41.74-57.36-.1-29.09,7.52-58.35,41.74-58.35C219,55.75,220.49,55.85,326.76,55.85Z"/><path class="cls-4" d="M99.91,185c-39.32,0-44.77-34.5-45.07-69.81v0c0,1.06,0,2.14,0,3.21.12,36,5,71.78,45.08,71.78l239.64.1c40.05,0,45-35.79,45.08-71.78,0-1.08,0-2.17,0-3.23-.31,35.3-5.75,69.81-45.07,69.81Z"/><path class="cls-5" d="M326.76,159.74l-214.07-.11c-34.57,0-40.85-24.85-41.64-51.53-.06,2-.1,4-.1,6,.13,28.77,4.66,57.36,41.74,57.36l214.07.1c37.08,0,41.63-28.59,41.74-57.35,0-2,0-4-.1-6C367.62,134.88,361.33,159.74,326.76,159.74Z"/><path class="cls-6" d="M71,113.86v.24c.13,28.77,4.66,57.36,41.74,57.36l214.07.1c37.08,0,41.63-28.59,41.74-57.35V114c0-1.56-.05-3.13-.1-4.68-.78,26.67-7.07,51.53-41.64,51.53l-214.07-.11c-34.57,0-40.85-24.85-41.64-51.53C71,110.74,71,112.3,71,113.86Z"/><path class="cls-7" d="M365.69,130.72c-167.77,16.95-197,18.33-291.43,1.73,4.52,15.72,15,27.18,38.43,27.18l214.07.11C351.14,159.74,361.46,147.36,365.69,130.72Z"/><path class="cls-5" d="M112.69,60.52l214.07.1c31,0,40.18,24,41.55,50.19,0-.87.08-1.74.09-2.6-.9-25-8.53-48.68-35.07-52a54.81,54.81,0,0,0-6.57-.38l-214.07-.1a54.77,54.77,0,0,0-6.56.38C79.6,59.43,72,83.08,71.05,108.1l.09,2.61C72.51,84.55,81.69,60.52,112.69,60.52Z"/><path class="cls-6" d="M329.28,69.06c21,0,25.69,20.83,25.63,41.54-.08,20.49-2.86,40.85-25.63,40.85-65.24,0-65.7-.1-130.93-.1-22.76,0-25.56-20.37-25.62-40.85C172.67,89.79,177.34,69,198.35,69,263.58,69,264,69.06,329.28,69.06Z"/><path class="cls-5" d="M329.28,73.74c21,0,25.69,19.65,25.63,39.18-.08,19.31-2.86,38.53-25.63,38.53-65.24,0-65.7-.1-130.93-.1-22.76,0-25.56-19.22-25.62-38.53-.06-19.53,4.61-39.18,25.62-39.18C263.58,73.64,264,73.74,329.28,73.74Z"/><path class="cls-7" d="M329.28,73.74c21,0,25.69,18.57,25.63,37-.08,18.26-2.86,36.41-25.63,36.41-65.24,0-65.7-.1-130.93-.1-22.76,0-25.56-18.15-25.62-36.41-.06-18.46,4.61-37,25.62-37C263.58,73.64,264,73.74,329.28,73.74Z"/><path class="cls-1" d="M114.66,95.16l-9.88,1.57a56.89,56.89,0,0,1,13.61,8.42l.15.1a48.45,48.45,0,0,1,12.11,16.53v0a49.53,49.53,0,0,1,4.1,20.18,52.49,52.49,0,0,1-1.48,12.29,48.28,48.28,0,0,1-4.37,11.47h0a58.79,58.79,0,0,1-6.25,9.42,54.25,54.25,0,0,1-7.94,7.95,59.42,59.42,0,0,1-8.78,6,53.7,53.7,0,0,1-9.57,4.14h0c-2,.63-4,1.19-6.14,1.65v.66a19.8,19.8,0,0,1-19.77,19.77h-6a19.79,19.79,0,0,1-19.77-19.77v-1.05a72.36,72.36,0,0,1-9.44-2.76,61.29,61.29,0,0,1-9.7-4.66A53.18,53.18,0,0,1,17,180.73h0a61.08,61.08,0,0,1-6.67-7.11v-.05a50,50,0,0,1-5.15-8H5.18A48.57,48.57,0,0,1,3,160.58v-.05c-.79-2.09-1.21-3.29-1.61-4.45v0C0,151.93-.66,147.61.9,143h0c1.93-5.69,6.16-9.85,14.14-11.28l.78-.16,12-1.39a42.12,42.12,0,0,1-8-5.69,51.76,51.76,0,0,1-8-9.25A43,43,0,0,1,6,102.56,51.77,51.77,0,0,1,4.11,88.45,50,50,0,0,1,7.88,69a47.91,47.91,0,0,1,11.23-16.2A50.09,50.09,0,0,1,35.7,42.4a65.88,65.88,0,0,1,10.74-3.16,19.75,19.75,0,0,1,18-11.56h6a19.77,19.77,0,0,1,18,11.59A70.49,70.49,0,0,1,97,41.58a51.49,51.49,0,0,1,15.16,8,48.38,48.38,0,0,1,9.33,9.53A50.9,50.9,0,0,1,128,70.66a21.77,21.77,0,0,1,1.17,3.82v0A17.25,17.25,0,0,1,128,85.45h0A16.52,16.52,0,0,1,118.9,94v0a21.61,21.61,0,0,1-3.65,1.06Z"/><path class="cls-4" d="M114.66,87.79l-9.88,1.55a57.22,57.22,0,0,1,13.61,8.44l.15.1a48.36,48.36,0,0,1,12.11,16.53v0a49.58,49.58,0,0,1,4.1,20.19,52.61,52.61,0,0,1-1.48,12.29,48.2,48.2,0,0,1-4.37,11.46h0a58.88,58.88,0,0,1-6.25,9.43,54.74,54.74,0,0,1-7.94,8,59.42,59.42,0,0,1-8.78,6,56.76,56.76,0,0,1-9.57,4.14h0c-2,.63-4,1.18-6.14,1.64v.67A19.79,19.79,0,0,1,70.44,208h-6a19.77,19.77,0,0,1-19.77-19.76v-1.05a69.36,69.36,0,0,1-9.44-2.78,60.4,60.4,0,0,1-9.7-4.65A53.12,53.12,0,0,1,17,173.36l0,0a61,61,0,0,1-6.67-7.1v-.05a50,50,0,0,1-5.15-8H5.18a49.74,49.74,0,0,1-2.16-5v0c-.79-2.11-1.21-3.29-1.61-4.45v0C0,144.56-.66,140.23.9,135.61h0c1.93-5.69,6.16-9.86,14.14-11.3l.78-.14,12-1.39a43,43,0,0,1-8-5.69,51.83,51.83,0,0,1-8-9.26A42.71,42.71,0,0,1,6,95.17a51.64,51.64,0,0,1-1.89-14.1A50,50,0,0,1,7.88,61.66,48,48,0,0,1,19.11,45.45,50.41,50.41,0,0,1,35.7,35a65.88,65.88,0,0,1,10.74-3.15,20,20,0,0,1,4-5.77,19.74,19.74,0,0,1,14-5.79h6a19.72,19.72,0,0,1,14,5.79,19.92,19.92,0,0,1,4,5.79A67,67,0,0,1,97,34.21a51.7,51.7,0,0,1,15.16,7.95,48.7,48.7,0,0,1,9.33,9.54A50.9,50.9,0,0,1,128,63.29a21.67,21.67,0,0,1,1.17,3.81v.05A17.24,17.24,0,0,1,128,78.07h0a16.47,16.47,0,0,1-9.12,8.54v0a20.76,20.76,0,0,1-3.65,1.05Z"/><path class="cls-2" d="M104.78,89.34c17.82,8.29,28.89,22.42,29.89,42.46a53.41,53.41,0,0,1-20,38.47A56.7,56.7,0,0,1,90.21,182v.67a19.7,19.7,0,0,1-5.8,14c-8,8-26,8-34,0a19.7,19.7,0,0,1-5.79-14v-1.05a63.9,63.9,0,0,1-19.14-7.43C13.59,167,2.29,152.57.21,138.4c2.29-14.25,16.05-14.28,27.64-15.62,8.68-.57-6-9.38-8-11.19A47,47,0,0,1,6,89.69,50.49,50.49,0,0,1,4.19,78.34,49,49,0,0,1,7.88,61.66,48,48,0,0,1,19.11,45.45,50.41,50.41,0,0,1,35.7,35a65.88,65.88,0,0,1,10.74-3.15,20,20,0,0,1,4-5.77,19.74,19.74,0,0,1,14-5.79h6a19.72,19.72,0,0,1,14,5.79,19.92,19.92,0,0,1,4,5.79A67,67,0,0,1,97,34.21a51.7,51.7,0,0,1,15.16,7.95,48.7,48.7,0,0,1,9.33,9.54A50.9,50.9,0,0,1,128,63.29a21.67,21.67,0,0,1,1.17,3.81v.05l.2,1.11c-2.08,13-13.6,13.85-24.57,15.58C99.79,84.67,98.84,85.93,104.78,89.34Z"/><path class="cls-8" d="M112.75,72.82l-23,3.63c-5.08.86-6-2.49-6.62-3.77a21.34,21.34,0,0,0-2.54-4.2,15.84,15.84,0,0,0-2.93-2.65V90.41q24,6.8,32.51,14.23c8,7.22,12,16.32,12,27.42a37.1,37.1,0,0,1-4.33,17.82,44.39,44.39,0,0,1-25.37,21.48A64.36,64.36,0,0,1,77.63,174v11.59a7.2,7.2,0,0,1-7.19,7.18h-6a7.2,7.2,0,0,1-7.19-7.18V173.89A74.83,74.83,0,0,1,39.64,170a43.12,43.12,0,0,1-14.11-8.49,41.28,41.28,0,0,1-9.14-11.67,60.24,60.24,0,0,1-3.08-7.81c-1.27-3.69-1.42-7,4-8l22.43-2.6c5.93-1.33,9.09,0,9.09,4.42,0,2.46,1.33,4.75,3.15,7.34a18.44,18.44,0,0,0,5.29,4.84V117.55c-10.12-2.88-17.43-5.44-21.92-7.62A33.48,33.48,0,0,1,22.25,98.17c-3.69-5.39-5.56-11.93-5.56-19.67A35.38,35.38,0,0,1,27.82,51.92Q38,42.15,57.23,40.35V37.51a7.2,7.2,0,0,1,7.19-7.19h6a7.2,7.2,0,0,1,7.19,7.19v2.87q17.31,1.71,26.9,9.14a37.37,37.37,0,0,1,11.81,15.86c1.39,3.46.79,6.54-3.59,7.44Zm-35.12,51V150A17.4,17.4,0,0,0,85,145.43a12.67,12.67,0,0,0,3.54-8.71,11.91,11.91,0,0,0-3-7.77q-2.3-2.7-7.92-5.12ZM57.23,84.36V64.59A12.74,12.74,0,0,0,53,67.73a10.13,10.13,0,0,0-2.25,6.53A10.65,10.65,0,0,0,53,81.06,12.73,12.73,0,0,0,57.23,84.36Z"/><path class="cls-9" d="M77.63,65.83V90.41q24,6.8,32.51,14.23A34.86,34.86,0,0,1,122,128.38a36.37,36.37,0,0,1-4.17,14.25A44.52,44.52,0,0,1,92.47,164.1a64.32,64.32,0,0,1-14.84,2.68v11.57a7.2,7.2,0,0,1-7.19,7.19h-6a7.2,7.2,0,0,1-7.19-7.19V166.63a73.83,73.83,0,0,1-17.59-3.85,42.92,42.92,0,0,1-14.11-8.48,41.84,41.84,0,0,1-9.14-11.67,54.64,54.64,0,0,1-2.77-6.91,6.44,6.44,0,0,1,3.65-1.64l22.43-2.6c5.93-1.33,9.09,0,9.09,4.42,0,2.46,1.33,4.75,3.15,7.34a18.44,18.44,0,0,0,5.29,4.84V110.3Q42.05,106,35.31,102.68A33.84,33.84,0,0,1,22.25,90.93a32.55,32.55,0,0,1-5.4-16,34.94,34.94,0,0,1,11-23Q38,42.15,57.23,40.35V37.51a7.2,7.2,0,0,1,7.19-7.19h6a7.2,7.2,0,0,1,7.19,7.19v2.87q17.31,1.71,26.9,9.14a37,37,0,0,1,11.28,14.61,6.08,6.08,0,0,1-3.06,1.44l-23,3.63c-5.08.86-6-2.49-6.62-3.78a21.64,21.64,0,0,0-2.54-4.2,15.82,15.82,0,0,0-2.93-2.64v7.25Zm0,50.75V150A17.4,17.4,0,0,0,85,145.43a12.67,12.67,0,0,0,3.54-8.71,11.12,11.12,0,0,0-.57-3.54,12.2,12.2,0,0,0,.57-3.72,11.89,11.89,0,0,0-3-7.77q-2.3-2.7-7.92-5.11Zm-20.4-52V57.33A12.76,12.76,0,0,0,53,60.48,10.11,10.11,0,0,0,50.7,67a11.33,11.33,0,0,0,.58,3.69A11.28,11.28,0,0,0,53,81.06a12.73,12.73,0,0,0,4.25,3.3V64.59Z"/><path class="cls-10" d="M77.63,64.68V89.24q24,6.8,32.51,14.23A34.91,34.91,0,0,1,122,127.22a36.37,36.37,0,0,1-4.17,14.24,44.42,44.42,0,0,1-25.37,21.47,64.32,64.32,0,0,1-14.84,2.68v11.58a7.2,7.2,0,0,1-7.19,7.18h-6a7.2,7.2,0,0,1-7.19-7.18V165.46a74.91,74.91,0,0,1-17.59-3.83,43.31,43.31,0,0,1-14.11-8.5,41.56,41.56,0,0,1-9.14-11.67,54.64,54.64,0,0,1-2.77-6.91,6.58,6.58,0,0,1,3.65-1.64l22.43-2.6c5.93-1.33,9.09,0,9.09,4.43,0,2.46,1.33,4.74,3.15,7.33a18.77,18.77,0,0,0,5.29,4.86v-37.8c-10.12-2.88-17.43-5.44-21.92-7.62A33.61,33.61,0,0,1,22.25,89.76a32.55,32.55,0,0,1-5.4-16,34.94,34.94,0,0,1,11-23Q38,41,57.23,39.18V36.34a7.21,7.21,0,0,1,7.19-7.2h6a7.21,7.21,0,0,1,7.19,7.2v2.87q17.31,1.71,26.9,9.14A37,37,0,0,1,115.81,63a6.08,6.08,0,0,1-3.06,1.44L89.72,68c-5.08.87-6-2.48-6.62-3.77a21.64,21.64,0,0,0-2.54-4.2,16.18,16.18,0,0,0-2.93-2.64v7.27Zm0,50.72v33.43A17.62,17.62,0,0,0,85,144.26a12.69,12.69,0,0,0,3.54-8.71A11.12,11.12,0,0,0,88,132a12.2,12.2,0,0,0,.57-3.72,12,12,0,0,0-3-7.77q-2.3-2.7-7.92-5.12Zm-20.4-52V56.16A12.64,12.64,0,0,0,53,59.32a10,10,0,0,0-2.25,6.51,11.43,11.43,0,0,0,.58,3.7A11.26,11.26,0,0,0,53,79.89a12.73,12.73,0,0,0,4.25,3.3V63.42Z"/><path class="cls-11" d="M121.81,125.35c.08.62.15,1.23.2,1.87a36.37,36.37,0,0,1-4.17,14.24,44.42,44.42,0,0,1-25.37,21.47,64.32,64.32,0,0,1-14.84,2.68v11.58a7.2,7.2,0,0,1-7.19,7.18h-6a7.2,7.2,0,0,1-7.19-7.18V165.46a74.91,74.91,0,0,1-17.59-3.83,43.31,43.31,0,0,1-14.11-8.5,41.56,41.56,0,0,1-9.14-11.67A35,35,0,0,1,15,138.19a268.9,268.9,0,0,0,34.61-.11,23.64,23.64,0,0,0,2.38,4,18.77,18.77,0,0,0,5.29,4.86v-9.44c4.1-.36,8.28-.8,12.51-1.33,2.66-.34,5.28-.69,7.89-1.08v13.75A17.62,17.62,0,0,0,85,144.26a12.69,12.69,0,0,0,3.54-8.71,11.87,11.87,0,0,0-.22-2.23A299.29,299.29,0,0,0,121.81,125.35Z"/><path class="cls-12" d="M77.63,64.68v3.65q-3.9.4-7.89.89c-4.23.53-8.41,1.13-12.51,1.8V56.16A12.64,12.64,0,0,0,53,59.32a10,10,0,0,0-2.25,6.51,11.43,11.43,0,0,0,.58,3.7,9.77,9.77,0,0,0-.54,2.61A302.49,302.49,0,0,0,17.87,80a37.24,37.24,0,0,1-1-6.25,34.94,34.94,0,0,1,11-23Q38,41,57.23,39.18V36.34a7.21,7.21,0,0,1,7.19-7.2h6a7.21,7.21,0,0,1,7.19,7.2v2.87q17.31,1.71,26.9,9.14A37,37,0,0,1,115.81,63a6.08,6.08,0,0,1-3.06,1.44L96.51,67c-3.55.14-7.17.36-10.84.66a6.21,6.21,0,0,1-2.57-3.37,21.64,21.64,0,0,0-2.54-4.2,16.18,16.18,0,0,0-2.93-2.64Z"/><text class="cls-13" transform="translate(189.39 39.04)">CRED<tspan class="cls-14" x="86.62" y="0">I</tspan><tspan x="99.14" y="0">TS</tspan></text><text class="cls-15" transform="translate(189.39 39.04)">CRED<tspan class="cls-14" x="86.62" y="0">I</tspan><tspan x="99.14" y="0">TS</tspan></text></g></g></svg>