<svg xmlns="http://www.w3.org/2000/svg" xmlns:xlink="http://www.w3.org/1999/xlink" viewBox="0 0 526.62 207.45"><defs><style>.cls-1{fill:#010101;opacity:0.2;}.cls-1,.cls-10,.cls-11,.cls-2,.cls-3,.cls-4,.cls-5,.cls-6,.cls-7,.cls-8,.cls-9{fill-rule:evenodd;}.cls-15,.cls-2{fill:#fff;}.cls-3{fill:#fcc133;}.cls-4{fill:#e7e6e6;}.cls-5{fill:#ffe55a;}.cls-6{fill:#d39802;}.cls-7{fill:#fab612;}.cls-8{fill:url(#GradientFill_1);}.cls-9{fill:#dcb103;}.cls-10{fill:#f7e930;}.cls-11{fill:#f7c702;}.cls-12,.cls-15{font-size:42.46px;font-family:Bangers-Regular, Bangers;letter-spacing:0.1em;}.cls-12{fill:none;stroke:#1d1d1b;stroke-width:5px;}.cls-13{letter-spacing:0.1em;}.cls-14{letter-spacing:0.09em;}</style><linearGradient id="GradientFill_1" x1="94.57" y1="185.6" x2="94.57" y2="37.83" gradientUnits="userSpaceOnUse"><stop offset="0" stop-color="#fdc425"/><stop offset="1" stop-color="#f7ea47"/></linearGradient></defs><g id="Layer_2" data-name="Layer 2"><g id="Basic_UI" data-name="Basic UI"><path class="cls-1" d="M481.8,52.63c36.74,0,44.93,36.4,44.82,72.59-.12,35.8-5,71.38-44.82,71.38H139.37c-39.82,0-44.7-35.58-44.82-71.38-.12-36.19,8.07-72.59,44.82-72.59Z"/><path class="cls-2" d="M481.8,45.5c36.74,0,44.93,36.4,44.82,72.61-.12,35.78-5,71.36-44.82,71.36H139.37c-39.82,0-44.7-35.58-44.82-71.36-.12-36.21,8.07-72.61,44.82-72.61Z"/><path class="cls-3" d="M469.08,55.77c34,0,41.61,29.09,41.5,58-.11,28.59-4.63,57-41.5,57h-317c-36.87,0-41.37-28.44-41.5-57-.1-28.93,7.48-58,41.5-58Z"/><path class="cls-4" d="M139.37,184.3c-39.09,0-44.51-34.31-44.81-69.41v0c0,1.06,0,2.13,0,3.2.12,35.78,5,71.36,44.82,71.36H481.8c39.82,0,44.7-35.58,44.82-71.36,0-1.08,0-2.16,0-3.22-.31,35.1-5.72,69.41-44.81,69.41Z"/><path class="cls-5" d="M469.08,159.06h-317c-34.37,0-40.62-24.71-41.4-51.23-.06,2-.1,4-.1,6,.13,28.6,4.63,57,41.5,57h317c36.87,0,41.39-28.43,41.5-57,0-2,0-4-.1-6C509.71,134.35,503.45,159.06,469.08,159.06Z"/><path class="cls-6" d="M110.58,113.55v.24c.13,28.6,4.63,57,41.5,57h317c36.87,0,41.39-28.43,41.5-57v-.24c0-1.54,0-3.1-.1-4.65-.77,26.52-7,51.24-41.4,51.24h-317c-34.37,0-40.62-24.72-41.4-51.24C110.63,110.45,110.59,112,110.58,113.55Z"/><path class="cls-7" d="M507.79,130.21C341,147.07,207.77,148.54,113.87,132c4.49,15.64,14.87,27,38.21,27h317C493.32,159.06,503.58,146.76,507.79,130.21Z"/><path class="cls-5" d="M152.08,60.51h317c30.84,0,39.95,23.9,41.31,49.9,0-.86.08-1.72.09-2.58-.89-24.89-8.48-48.4-34.87-51.68a54,54,0,0,0-6.53-.38h-317a54.21,54.21,0,0,0-6.52.38c-26.38,3.28-34,26.79-34.88,51.68l.09,2.58C112.13,84.41,121.26,60.51,152.08,60.51Z"/><path class="cls-6" d="M471.59,68.9c20.88,0,25.54,20.72,25.48,41.31-.08,20.37-2.84,40.62-25.48,40.62H237.26c-22.64,0-25.42-20.25-25.48-40.62-.06-20.59,4.58-41.31,25.48-41.31Z"/><path class="cls-5" d="M471.59,73.56c20.88,0,25.54,19.54,25.48,39-.08,19.21-2.84,38.32-25.48,38.32H237.26c-22.64,0-25.42-19.11-25.48-38.32-.06-19.41,4.58-38.95,25.48-38.95Z"/><path class="cls-7" d="M471.59,73.56c20.88,0,25.54,18.46,25.48,36.82-.08,18.15-2.84,36.2-25.48,36.2H237.26c-22.64,0-25.42-18.05-25.48-36.2-.06-18.36,4.58-36.82,25.48-36.82Z"/><path class="cls-1" d="M94.56,186.5,59,205l0-.05a20.57,20.57,0,0,1-12.86,2.24v0a19.9,19.9,0,0,1-8.41-3.42h0a20,20,0,0,1-6-6.9,21.76,21.76,0,0,1-2.2-13.69v-.09l6.53-39.31L6.42,114.68v0a21,21,0,0,1-6.06-11h0a18.65,18.65,0,0,1,.34-8.56v-.08A18.17,18.17,0,0,1,5.22,87.3a22.17,22.17,0,0,1,11.91-6.13l.44-.1L58.16,75,59,72.9C65.47,56.59,76.16,29.75,94.53,30c18.17.26,28.8,26.32,35.47,42.64l0,0,.95,2.3,40.65,6.13.45.1a22.08,22.08,0,0,1,11.9,6.13,18.19,18.19,0,0,1,4.53,7.87,18.63,18.63,0,0,1,.35,8.56h0a21.08,21.08,0,0,1-6.06,11v0l-29.63,29.1,6.53,39.31v.09a21.82,21.82,0,0,1-2.2,13.69,20.12,20.12,0,0,1-6,6.9,19.81,19.81,0,0,1-8.5,3.44A20.48,20.48,0,0,1,130.12,205l0,.05Z"/><path class="cls-2" d="M94.56,181.08,59,199.58l0,0a20.57,20.57,0,0,1-12.86,2.24v0a19.9,19.9,0,0,1-8.41-3.42h0a20,20,0,0,1-6-6.9,21.76,21.76,0,0,1-2.2-13.69v-.09l6.53-39.31L6.42,109.26h0a20.81,20.81,0,0,1-6.06-11h0a18.6,18.6,0,0,1,.34-8.55v-.08a18.2,18.2,0,0,1,4.54-7.8,22.23,22.23,0,0,1,11.91-6.12l.44-.09,40.59-6.12L59,67.48c6.49-16.31,17.18-43.15,35.55-42.92,18.17.25,28.8,26.31,35.47,42.64l0,0,.95,2.3,40.65,6.14.45.09a22.13,22.13,0,0,1,11.9,6.12,18.22,18.22,0,0,1,4.53,7.88,18.59,18.59,0,0,1,.35,8.55h0a20.94,20.94,0,0,1-6.06,11h0l-29.63,29.1,6.53,39.31v.09a21.82,21.82,0,0,1-2.2,13.69,19.63,19.63,0,0,1-14.48,10.34,20.61,20.61,0,0,1-12.81-2.24l0,0Z"/><path class="cls-8" d="M94.56,168.28,53.79,189.53c-6.88,3.68-14.4-1.69-13.1-10.05l7.49-45.07L14.31,101.14c-4.92-4.76-4.07-12.52,4.94-14.27l46.81-7.06c4.39-8.81,15-44.12,28.34-43.94s23.93,34.4,28.67,43.94l46.81,7.06c9,1.75,9.85,9.51,4.94,14.27L141,134.41l7.49,45.07c1.3,8.36-6.21,13.73-13.1,10.05Z"/><path class="cls-9" d="M94.56,159.41,53.79,180.66a8.69,8.69,0,0,1-12.56-4.41l-.54,3.23c-1.3,8.36,6.22,13.73,13.1,10.05l40.77-21.25,40.78,21.25c6.89,3.68,14.4-1.69,13.1-10.05l-.54-3.23a8.7,8.7,0,0,1-12.56,4.41Z"/><path class="cls-9" d="M139.68,126.78l1.27,7.63,33.87-33.27c3.23-3.13,4-7.56,1.55-10.72a11,11,0,0,1-1.54,1.86Z"/><path class="cls-9" d="M49.45,126.78,14.3,92.28a12.06,12.06,0,0,1-1.54-1.86c-2.42,3.16-1.68,7.59,1.55,10.72l33.87,33.27Z"/><path class="cls-4" d="M59,194.47a20.29,20.29,0,0,1-21.31-1.2,20.06,20.06,0,0,1-6-6.89,21.33,21.33,0,0,1-2.34-7.58,21.68,21.68,0,0,0,2.34,12.65,19.7,19.7,0,0,0,6,6.9,20.19,20.19,0,0,0,8.41,3.44A20.83,20.83,0,0,0,59,199.58l35.53-18.5,35.56,18.47a20.61,20.61,0,0,0,12.81,2.24,19.63,19.63,0,0,0,14.48-10.34,21.65,21.65,0,0,0,2.34-12.65,20.89,20.89,0,0,1-2.34,7.57,20.12,20.12,0,0,1-6,6.9,19.79,19.79,0,0,1-8.5,3.43,20.86,20.86,0,0,1-12.83-2.19L94.56,176Z"/><path class="cls-10" d="M123.07,79.81c-4.74-9.54-15.33-43.75-28.67-43.94S70.45,71,66.06,79.81L19.25,86.87a10.41,10.41,0,0,0-6.49,3.55l1.54,1.86,18.55,18.21c16.78-8,37.68-15.55,60.77-21.42a368.38,368.38,0,0,1,39.21-7.78Z"/><path class="cls-11" d="M142.44,143.35c-10.16,3.59-21.09,6.9-32.56,9.83-24.29,6.17-47.34,9.58-66.53,10.29l-2.12,12.78a8.69,8.69,0,0,0,12.56,4.41l40.77-21.25,40.78,21.25a8.7,8.7,0,0,0,12.56-4.41Z"/><text class="cls-12" transform="translate(257.16 39.04)">HIGH<tspan class="cls-13" x="84.2" y="0">S</tspan><tspan class="cls-14" x="106.49" y="0">C</tspan><tspan x="127.89" y="0">ORE</tspan></text><text class="cls-15" transform="translate(257.16 39.04)">HIGH<tspan class="cls-13" x="84.2" y="0">S</tspan><tspan class="cls-14" x="106.49" y="0">C</tspan><tspan x="127.89" y="0">ORE</tspan></text></g></g></svg>