<svg xmlns="http://www.w3.org/2000/svg" xmlns:xlink="http://www.w3.org/1999/xlink" viewBox="0 0 450.78 188.45"><defs><style>.cls-1{fill:#010101;opacity:0.2;}.cls-1,.cls-10,.cls-11,.cls-2,.cls-3,.cls-4,.cls-5,.cls-6,.cls-7,.cls-8,.cls-9{fill-rule:evenodd;}.cls-12,.cls-2{fill:#fff;}.cls-3{fill:#fcc133;}.cls-4{fill:#e7e6e6;}.cls-5{fill:#ffe55a;}.cls-6{fill:#d39802;}.cls-7{fill:#fab612;}.cls-8{fill:url(#GradientFill_1);}.cls-9{fill:#dcb103;}.cls-10{fill:#f7e930;}.cls-11{fill:#f7c702;}.cls-12{font-size:42.46px;font-family:Bangers-Regular, Bangers;letter-spacing:0.1em;}.cls-13{letter-spacing:0.1em;}.cls-14{letter-spacing:0.09em;}</style><linearGradient id="GradientFill_1" x1="80.95" y1="169.74" x2="80.95" y2="43.26" gradientUnits="userSpaceOnUse"><stop offset="0" stop-color="#fdc425"/><stop offset="1" stop-color="#f7ea47"/></linearGradient></defs><g id="Layer_2" data-name="Layer 2"><g id="Basic_UI" data-name="Basic UI"><path class="cls-1" d="M412.41,55.92c31.45,0,38.46,31.16,38.37,62.14-.11,30.64-4.29,61.1-38.37,61.1H119.3c-34.09,0-38.27-30.46-38.36-61.1-.11-31,6.9-62.14,38.36-62.14Z"/><path class="cls-2" d="M412.41,49.82c31.45,0,38.46,31.16,38.37,62.15-.11,30.63-4.29,61.09-38.37,61.09H119.3C85.21,173.06,81,142.6,80.94,112c-.11-31,6.9-62.15,38.36-62.15Z"/><path class="cls-3" d="M401.53,58.61c29.12,0,35.62,24.91,35.52,49.67-.1,24.47-4,48.81-35.52,48.81H130.18c-31.56,0-35.42-24.34-35.52-48.81-.09-24.76,6.4-49.67,35.52-49.67Z"/><path class="cls-4" d="M119.3,168.63c-33.46,0-38.1-29.37-38.35-59.42v0c0,.91,0,1.83,0,2.74.09,30.63,4.27,61.09,38.36,61.09H412.41c34.08,0,38.26-30.46,38.37-61.09,0-.92,0-1.85,0-2.76-.26,30.05-4.89,59.42-38.36,59.42Z"/><path class="cls-5" d="M401.53,147H130.18c-29.42,0-34.77-21.16-35.44-43.86-.06,1.69-.08,3.4-.08,5.11.1,24.48,4,48.81,35.52,48.81H401.53c31.55,0,35.42-24.33,35.52-48.81,0-1.71,0-3.42-.09-5.11C436.3,125.87,431,147,401.53,147Z"/><path class="cls-6" d="M94.66,108.07v.21c.1,24.48,4,48.81,35.52,48.81H401.53c31.55,0,35.42-24.33,35.52-48.81v-.21c0-1.32,0-2.66-.09-4-.66,22.7-6,43.86-35.43,43.86H130.18c-29.42,0-34.77-21.16-35.44-43.86C94.69,105.41,94.67,106.74,94.66,108.07Z"/><path class="cls-7" d="M434.66,122.33C291.87,136.76,177.84,138,97.47,123.89,101.32,137.27,110.2,147,130.18,147H401.53C422.28,147,431.05,136.5,434.66,122.33Z"/><path class="cls-5" d="M130.18,62.67H401.53c26.39,0,34.19,20.46,35.35,42.72,0-.74.07-1.48.08-2.22-.76-21.3-7.26-41.43-29.85-44.23a46.92,46.92,0,0,0-5.58-.33H130.18a47.17,47.17,0,0,0-5.58.33C102,61.74,95.51,81.87,94.74,103.17c0,.74.05,1.48.08,2.22C96,83.13,103.79,62.67,130.18,62.67Z"/><path class="cls-6" d="M403.67,69.85c17.88,0,21.86,17.74,21.82,35.36-.07,17.43-2.44,34.77-21.82,34.77H203.09c-19.38,0-21.76-17.34-21.81-34.77-.05-17.62,3.92-35.36,21.81-35.36Z"/><path class="cls-5" d="M403.67,73.84c17.88,0,21.86,16.72,21.82,33.34-.07,16.44-2.44,32.8-21.82,32.8H203.09c-19.38,0-21.76-16.36-21.81-32.8-.05-16.62,3.92-33.34,21.81-33.34Z"/><path class="cls-7" d="M403.67,73.84c17.88,0,21.86,15.81,21.82,31.52-.07,15.53-2.44,31-21.82,31H203.09c-19.38,0-21.76-15.45-21.81-31-.05-15.71,3.92-31.52,21.81-31.52Z"/><path class="cls-1" d="M81,170.51,50.53,186.37l0,0a17.62,17.62,0,0,1-11,1.91h0a17.12,17.12,0,0,1-7.19-2.93h0a17.13,17.13,0,0,1-5.12-5.91,18.61,18.61,0,0,1-1.88-11.72v-.07L30.86,134,5.5,109h0A17.89,17.89,0,0,1,.31,99.66h0a15.91,15.91,0,0,1,.3-7.32v-.07A15.43,15.43,0,0,1,4.47,85.6a18.92,18.92,0,0,1,10.19-5.24l.38-.09L49.78,75l.7-1.76C56,59.32,65.19,36.34,80.91,36.54c15.56.22,24.66,22.53,30.37,36.5h0l.81,2,34.8,5.25.39.09a18.82,18.82,0,0,1,10.18,5.24,15.62,15.62,0,0,1,3.89,6.74,16,16,0,0,1,.29,7.32h0a18,18,0,0,1-5.18,9.39h0L131,134l5.59,33.65v.07a18.6,18.6,0,0,1-1.88,11.72,17.25,17.25,0,0,1-5.12,5.91,16.93,16.93,0,0,1-7.28,2.94,17.54,17.54,0,0,1-11-1.91v0Z"/><path class="cls-2" d="M81,165.87,50.53,181.71l0,0a17.62,17.62,0,0,1-11,1.91h0a17,17,0,0,1-7.19-2.93h0a17.13,17.13,0,0,1-5.12-5.91A18.61,18.61,0,0,1,25.27,163V163l5.59-33.65L5.5,104.4h0A17.82,17.82,0,0,1,.31,95h0a15.9,15.9,0,0,1,.3-7.32v-.07A15.52,15.52,0,0,1,4.47,81a19,19,0,0,1,10.19-5.23l.38-.08,34.74-5.25.7-1.76C56,54.67,65.19,31.7,80.91,31.9c15.56.21,24.66,22.51,30.37,36.5h0l.81,2,34.8,5.26.39.08A18.88,18.88,0,0,1,157.42,81a15.71,15.71,0,0,1,3.89,6.75A16,16,0,0,1,161.6,95h0a18,18,0,0,1-5.18,9.38h0L131,129.31,136.62,163V163a18.6,18.6,0,0,1-1.88,11.72,16.78,16.78,0,0,1-12.4,8.85,17.68,17.68,0,0,1-11-1.91v0Z"/><path class="cls-8" d="M81,154.92,46.05,173.1c-5.9,3.16-12.33-1.44-11.22-8.59l6.41-38.59-29-28.47C8,93.37,8.77,86.73,16.48,85.23l40.06-6C60.3,71.65,69.39,41.43,80.8,41.57S101.28,71,105.35,79.19l40.06,6c7.72,1.5,8.44,8.14,4.23,12.22l-29,28.47,6.41,38.59c1.11,7.15-5.32,11.75-11.21,8.59Z"/><path class="cls-9" d="M81,147.32l-34.9,18.19a7.44,7.44,0,0,1-10.76-3.77l-.46,2.77c-1.11,7.15,5.32,11.75,11.22,8.59L81,154.92l34.9,18.18c5.89,3.16,12.32-1.44,11.21-8.59l-.46-2.77a7.43,7.43,0,0,1-10.75,3.77Z"/><path class="cls-9" d="M119.57,119.4l1.08,6.52,29-28.47c2.77-2.68,3.4-6.47,1.33-9.18a8.84,8.84,0,0,1-1.32,1.59Z"/><path class="cls-9" d="M42.33,119.4,12.24,89.86a9.22,9.22,0,0,1-1.31-1.59c-2.08,2.71-1.45,6.5,1.32,9.18l29,28.47Z"/><path class="cls-4" d="M50.51,177.33a17.34,17.34,0,0,1-18.24-1,17.1,17.1,0,0,1-5.12-5.9,18.3,18.3,0,0,1-2-6.49,18.56,18.56,0,0,0,2,10.83,16.83,16.83,0,0,0,5.16,5.91,17.13,17.13,0,0,0,7.19,2.94,17.83,17.83,0,0,0,11-1.89L81,165.87l30.43,15.82a17.68,17.68,0,0,0,11,1.91,16.78,16.78,0,0,0,12.4-8.85,18.53,18.53,0,0,0,2-10.83,17.93,17.93,0,0,1-2,6.48,17.16,17.16,0,0,1-5.12,5.91,16.92,16.92,0,0,1-7.28,2.93,17.83,17.83,0,0,1-11-1.87L81,161.52Z"/><path class="cls-10" d="M105.35,79.19C101.28,71,92.22,41.74,80.8,41.57S60.3,71.65,56.54,79.19l-40.06,6a8.91,8.91,0,0,0-5.55,3l1.31,1.59,15.88,15.59a285.76,285.76,0,0,1,52-18.33,314.57,314.57,0,0,1,33.57-6.67Z"/><path class="cls-11" d="M121.93,133.58c-8.7,3.08-18.05,5.9-27.87,8.41-20.8,5.28-40.53,8.2-56.95,8.81l-1.82,10.94a7.44,7.44,0,0,0,10.76,3.77L81,147.32l34.9,18.19a7.43,7.43,0,0,0,10.75-3.77Z"/><text class="cls-12" transform="translate(181.28 36.54)">HIGH<tspan class="cls-13" x="84.2" y="0">S</tspan><tspan class="cls-14" x="106.49" y="0">C</tspan><tspan x="127.89" y="0">ORE</tspan></text></g></g></svg>