<svg xmlns="http://www.w3.org/2000/svg" xmlns:xlink="http://www.w3.org/1999/xlink" viewBox="0 0 526.62 202.67"><defs><style>.cls-1{fill:#010101;opacity:0.2;}.cls-1,.cls-10,.cls-11,.cls-2,.cls-3,.cls-4,.cls-5,.cls-6,.cls-7,.cls-8,.cls-9{fill-rule:evenodd;}.cls-13,.cls-2{fill:#fff;}.cls-3{fill:#fcc133;}.cls-4{fill:#e7e6e6;}.cls-5{fill:#ffe55a;}.cls-6{fill:#d39802;}.cls-7{fill:#fab612;}.cls-8{fill:url(#GradientFill_1);}.cls-9{fill:#dcb103;}.cls-10{fill:#f7e930;}.cls-11{fill:#f7c702;}.cls-12{fill:none;stroke:#1d1d1b;stroke-width:5px;}</style><linearGradient id="GradientFill_1" x1="94.57" y1="180.82" x2="94.57" y2="33.06" gradientUnits="userSpaceOnUse"><stop offset="0" stop-color="#fdc425"/><stop offset="1" stop-color="#f7ea47"/></linearGradient></defs><g id="Layer_2" data-name="Layer 2"><g id="Basic_UI" data-name="Basic UI"><path class="cls-1" d="M481.8,47.85c36.74,0,44.93,36.41,44.82,72.6-.12,35.79-5,71.37-44.82,71.37H139.37c-39.82,0-44.7-35.58-44.82-71.37-.12-36.19,8.07-72.6,44.82-72.6Z"/><path class="cls-2" d="M481.8,40.72c36.74,0,44.93,36.41,44.82,72.61-.12,35.78-5,71.36-44.82,71.36H139.37c-39.82,0-44.7-35.58-44.82-71.36-.12-36.2,8.07-72.61,44.82-72.61Z"/><path class="cls-3" d="M469.08,51c34,0,41.61,29.1,41.5,58-.11,28.58-4.63,57-41.5,57h-317c-36.87,0-41.37-28.44-41.5-57-.1-28.93,7.48-58,41.5-58Z"/><path class="cls-4" d="M139.37,179.52c-39.09,0-44.51-34.3-44.81-69.41v0c0,1.06,0,2.14,0,3.2.12,35.78,5,71.36,44.82,71.36H481.8c39.82,0,44.7-35.58,44.82-71.36,0-1.07,0-2.16,0-3.22-.31,35.11-5.72,69.41-44.81,69.41Z"/><path class="cls-5" d="M469.08,154.29h-317c-34.37,0-40.62-24.72-41.4-51.24-.06,2-.1,4-.1,6,.13,28.59,4.63,57,41.5,57h317c36.87,0,41.39-28.43,41.5-57,0-2,0-4-.1-6C509.71,129.57,503.45,154.29,469.08,154.29Z"/><path class="cls-6" d="M110.58,108.78V109c.13,28.59,4.63,57,41.5,57h317c36.87,0,41.39-28.43,41.5-57v-.24c0-1.55,0-3.11-.1-4.66-.77,26.53-7,51.24-41.4,51.24h-317c-34.37,0-40.62-24.71-41.4-51.24C110.63,105.67,110.59,107.22,110.58,108.78Z"/><path class="cls-7" d="M507.79,125.44c-166.82,16.85-300,18.32-393.92,1.82,4.49,15.63,14.87,27,38.21,27h317C493.32,154.29,503.58,142,507.79,125.44Z"/><path class="cls-5" d="M152.08,55.73h317c30.84,0,39.95,23.91,41.31,49.91,0-.86.08-1.73.09-2.59-.89-24.88-8.48-48.4-34.87-51.67a54,54,0,0,0-6.53-.39h-317a54.15,54.15,0,0,0-6.52.39c-26.38,3.27-34,26.79-34.88,51.67l.09,2.59C112.13,79.64,121.26,55.73,152.08,55.73Z"/><path class="cls-6" d="M471.59,64.13c20.88,0,25.54,20.71,25.48,41.3-.08,20.37-2.84,40.62-25.48,40.62H237.26c-22.64,0-25.42-20.25-25.48-40.62-.06-20.59,4.58-41.3,25.48-41.3Z"/><path class="cls-5" d="M471.59,68.78c20.88,0,25.54,19.54,25.48,39-.08,19.2-2.84,38.31-25.48,38.31H237.26c-22.64,0-25.42-19.11-25.48-38.31-.06-19.42,4.58-39,25.48-39Z"/><path class="cls-7" d="M471.59,68.78c20.88,0,25.54,18.47,25.48,36.82-.08,18.16-2.84,36.2-25.48,36.2H237.26c-22.64,0-25.42-18-25.48-36.2-.06-18.35,4.58-36.82,25.48-36.82Z"/><path class="cls-1" d="M94.56,181.72,59,200.24l0,0a20.63,20.63,0,0,1-12.86,2.23h0A20,20,0,0,1,37.74,199h0a20.19,20.19,0,0,1-6-6.9,21.79,21.79,0,0,1-2.2-13.7v-.09L36.05,139,6.42,109.9v0A20.91,20.91,0,0,1,.36,99h0A18.6,18.6,0,0,1,.68,90.4v-.09a18.13,18.13,0,0,1,4.54-7.78A22,22,0,0,1,17.13,76.4l.44-.1,40.59-6.12L59,68.12C65.47,51.82,76.16,25,94.53,25.21c18.17.26,28.8,26.32,35.47,42.64h0l.95,2.3,40.65,6.14.45.1a21.94,21.94,0,0,1,11.9,6.13,18.08,18.08,0,0,1,4.53,7.87,18.58,18.58,0,0,1,.35,8.55h0a21,21,0,0,1-6.06,11v0L153.08,139l6.53,39.3v.09a21.83,21.83,0,0,1-2.2,13.7,20.22,20.22,0,0,1-6,6.9,19.79,19.79,0,0,1-8.5,3.43,20.54,20.54,0,0,1-12.81-2.23l0,0Z"/><path class="cls-2" d="M94.56,176.3,59,194.81l0,0A20.63,20.63,0,0,1,46.15,197h0a20,20,0,0,1-8.41-3.43h0a20.06,20.06,0,0,1-6-6.89,21.79,21.79,0,0,1-2.2-13.7v-.09l6.53-39.3L6.42,104.48h0a20.78,20.78,0,0,1-6.06-11h0A18.59,18.59,0,0,1,.68,85v-.09a18.32,18.32,0,0,1,4.54-7.8A22.16,22.16,0,0,1,17.13,71l.44-.09,40.59-6.13L59,62.7c6.49-16.31,17.18-43.15,35.55-42.91,18.17.24,28.8,26.3,35.47,42.63l0,0,.95,2.3,40.65,6.15L172,71a22.06,22.06,0,0,1,11.9,6.11A18.26,18.26,0,0,1,188.44,85a18.58,18.58,0,0,1,.35,8.55h0a20.92,20.92,0,0,1-6.06,11h0l-29.63,29.11,6.53,39.3V173a21.83,21.83,0,0,1-2.2,13.7A19.65,19.65,0,0,1,142.93,197a20.67,20.67,0,0,1-12.81-2.23l0,0Z"/><path class="cls-8" d="M94.56,163.5,53.79,184.75c-6.88,3.68-14.4-1.68-13.1-10l7.49-45.08L14.31,96.37c-4.92-4.77-4.07-12.52,4.94-14.28L66.06,75c4.39-8.81,15-44.11,28.34-43.94S118.33,65.5,123.07,75l46.81,7.06c9,1.76,9.85,9.51,4.94,14.28L141,129.63l7.49,45.08c1.3,8.36-6.21,13.72-13.1,10Z"/><path class="cls-9" d="M94.56,154.63,53.79,175.88a8.68,8.68,0,0,1-12.56-4.41l-.54,3.24c-1.3,8.36,6.22,13.72,13.1,10L94.56,163.5l40.78,21.25c6.89,3.68,14.4-1.68,13.1-10l-.54-3.24a8.68,8.68,0,0,1-12.56,4.41Z"/><path class="cls-9" d="M139.68,122l1.27,7.62,33.87-33.26c3.23-3.13,4-7.57,1.55-10.73a10.28,10.28,0,0,1-1.54,1.86Z"/><path class="cls-9" d="M49.45,122,14.3,87.5a11.19,11.19,0,0,1-1.54-1.86c-2.42,3.16-1.68,7.6,1.55,10.73l33.87,33.26Z"/><path class="cls-4" d="M59,189.69a20.24,20.24,0,0,1-21.31-1.2,20.06,20.06,0,0,1-6-6.89A21.26,21.26,0,0,1,29.38,174a21.72,21.72,0,0,0,2.34,12.66,19.75,19.75,0,0,0,6,6.89A20.19,20.19,0,0,0,46.15,197,20.89,20.89,0,0,0,59,194.81L94.56,176.3l35.56,18.48A20.67,20.67,0,0,0,142.93,197a19.65,19.65,0,0,0,14.48-10.33A21.7,21.7,0,0,0,159.75,174a20.89,20.89,0,0,1-2.34,7.57,20,20,0,0,1-6,6.9,19.79,19.79,0,0,1-8.5,3.43,20.93,20.93,0,0,1-12.83-2.18L94.56,171.21Z"/><path class="cls-10" d="M123.07,75c-4.74-9.53-15.33-43.75-28.67-43.94S70.45,66.22,66.06,75L19.25,82.09a10.51,10.51,0,0,0-6.49,3.55L14.3,87.5l18.55,18.22c16.78-8,37.68-15.55,60.77-21.42a366,366,0,0,1,39.21-7.79Z"/><path class="cls-11" d="M142.44,138.57c-10.16,3.6-21.09,6.9-32.56,9.83-24.29,6.17-47.34,9.58-66.53,10.29l-2.12,12.78a8.68,8.68,0,0,0,12.56,4.41l40.77-21.25,40.78,21.25a8.68,8.68,0,0,0,12.56-4.41Z"/><path class="cls-12" d="M257.54,34.35c.73-3.91,1.46-7.75,2.16-11.51.26-1.59.54-3.24.85-4.95s.61-3.4.89-5.07.56-3.29.81-4.86.48-3,.68-4.31l6.88-.47c-.48,2-1,4.05-1.42,6.2s-.9,4.24-1.3,6.28l4.2-.46c.4-2,.75-4,1.07-5.84s.72-3.83,1.23-5.84c.65-.11,1.37-.21,2.16-.28L278,3.05l2.42-.21c-.4,1.27-.77,2.67-1.12,4.18s-.7,3.09-1,4.72-.67,3.27-1,4.94-.6,3.26-.85,4.76q-.93,5.39-1.74,11l-6.62.76c.36-1.7.69-3.35,1-5l.87-4.24c.3-1.47.53-2.73.7-3.78l-4.12.38c-.19,1.08-.43,2.32-.7,3.74s-.51,2.76-.74,4L264.08,33Z"/><path class="cls-12" d="M285.39,33.52c-.74.07-1.5.15-2.29.25l-2.15.28a7.27,7.27,0,0,0-1,.17c.34-1.22.68-2.57,1-4.06s.69-3,1-4.67.7-3.27,1-4.94.65-3.29,1-4.84Q285,10.27,286,4.54l6.62-1.06q-1.09,5.68-2.21,11.16c-.31,1.56-.63,3.17-.95,4.84s-.64,3.33-.94,5-.59,3.24-.89,4.78-.56,2.94-.78,4.18C286.62,33.41,286.13,33.45,285.39,33.52Z"/><path class="cls-12" d="M314.31,25.62A19.41,19.41,0,0,1,310.93,31a13.64,13.64,0,0,1-4.25,3.23,10.28,10.28,0,0,1-4.3,1.06,6.93,6.93,0,0,1-3-.68,6.6,6.6,0,0,1-2.46-2.06,10.4,10.4,0,0,1-1.64-3.46,18.11,18.11,0,0,1-.59-4.88,26.5,26.5,0,0,1,1.57-9.56,22.32,22.32,0,0,1,4-6.79,16.26,16.26,0,0,1,5.14-4,11.83,11.83,0,0,1,5.12-1.32,6.93,6.93,0,0,1,2.95.59,5.87,5.87,0,0,1,2.06,1.6A6.3,6.3,0,0,1,316.66,7,10.81,10.81,0,0,1,317,9.85L311.21,11a5.69,5.69,0,0,0-1-2.42,1.91,1.91,0,0,0-1.45-.72,3.41,3.41,0,0,0-2.33,1.5A17.7,17.7,0,0,0,304,13.2a32.29,32.29,0,0,0-1.87,5.22,24.69,24.69,0,0,0-.85,5.61,6.74,6.74,0,0,0,.79,3.76,2.36,2.36,0,0,0,2,1.12,4.23,4.23,0,0,0,1.76-.42,5.29,5.29,0,0,0,1.63-1.21,7.28,7.28,0,0,0,1.21-1.83,5.53,5.53,0,0,0,.53-2.27l-4.54.68.81-4.21,3.9-.51q1.62-.21,3.42-.51c1.2-.19,2.26-.38,3.16-.55A22.56,22.56,0,0,1,314.31,25.62Z"/><path class="cls-12" d="M318.72,34.35q1.11-5.87,2.17-11.51c.25-1.59.53-3.24.85-4.95s.6-3.4.89-5.07.55-3.29.8-4.86.49-3,.68-4.31L331,3.18q-.72,3-1.42,6.2t-1.29,6.28l4.2-.46c.39-2,.75-4,1.06-5.84s.72-3.83,1.23-5.84c.65-.11,1.37-.21,2.17-.28l2.21-.19,2.42-.21c-.4,1.27-.78,2.67-1.13,4.18s-.7,3.09-1,4.72-.67,3.27-1,4.94-.59,3.26-.85,4.76q-.93,5.39-1.74,11l-6.62.76c.37-1.7.69-3.35,1-5l.87-4.24c.29-1.47.53-2.73.7-3.78l-4.12.38c-.2,1.08-.43,2.32-.7,3.74s-.52,2.76-.75,4L325.26,33Z"/><path class="cls-12" d="M359.25,28.08a10.61,10.61,0,0,1-2.46,3.34,11.05,11.05,0,0,1-3.66,2.16,13.08,13.08,0,0,1-4.52.77,7.09,7.09,0,0,1-3.39-.92A10.63,10.63,0,0,1,342,30.52l3.14-6.15a4.54,4.54,0,0,0,.89,1.12,6.68,6.68,0,0,0,1.34,1,9.9,9.9,0,0,0,1.48.7,3.78,3.78,0,0,0,1.34.28,3.65,3.65,0,0,0,2.08-.68A2.76,2.76,0,0,0,353,26a1.88,1.88,0,0,0,.28-1,3.06,3.06,0,0,0-.66-1.89A9.39,9.39,0,0,0,351,21.42c-.65-.53-1.36-1.06-2.12-1.6a19,19,0,0,1-2.11-1.69,9.78,9.78,0,0,1-1.63-2,4.65,4.65,0,0,1-.68-2.46,7.11,7.11,0,0,1,1.32-4.12A12.7,12.7,0,0,1,349,6.26a17.32,17.32,0,0,1,4.31-2.19,13.41,13.41,0,0,1,4.41-.81,8.43,8.43,0,0,1,2.17.28A4.42,4.42,0,0,1,362.86,6a5.37,5.37,0,0,1,.44,2.34,6.91,6.91,0,0,1-.1,1.19c-.07.39-.14.82-.19,1.27l-6.16,1.78c.06-.22.11-.45.15-.68a3.82,3.82,0,0,0,.06-.68,3.05,3.05,0,0,0-.44-1.84,1.43,1.43,0,0,0-1.17-.58,1.9,1.9,0,0,0-.83.26,6,6,0,0,0-1,.66,3.75,3.75,0,0,0-.82,1,2.22,2.22,0,0,0-.34,1.19,2.55,2.55,0,0,0,.57,1.7,7.37,7.37,0,0,0,1.42,1.27c.57.4,1.18.8,1.85,1.21a8.08,8.08,0,0,1,1.85,1.6,8.3,8.3,0,0,1,1.42,2.44,10.29,10.29,0,0,1,.57,3.71A9.93,9.93,0,0,1,359.25,28.08Z"/><path class="cls-12" d="M379.5,29.19a16.08,16.08,0,0,1-2.63,2.88,9.87,9.87,0,0,1-2.78,1.72,7.35,7.35,0,0,1-2.72.56,4.86,4.86,0,0,1-2.4-.6A5.58,5.58,0,0,1,367.08,32,10,10,0,0,1,365.79,29,15,15,0,0,1,365.3,25a29,29,0,0,1,1.1-7.88,26.18,26.18,0,0,1,3.1-7,17.32,17.32,0,0,1,4.74-5,10.4,10.4,0,0,1,6.05-1.89,4.54,4.54,0,0,1,1.95.43,4.86,4.86,0,0,1,1.62,1.19,5.73,5.73,0,0,1,1.08,1.86,7.15,7.15,0,0,1,.4,2.47V9.7a3.82,3.82,0,0,1,0,.57l-5.56,1.49c-.34-.71-.74-1.07-1.19-1.07a2.05,2.05,0,0,0-1.42.79,10.35,10.35,0,0,0-1.47,2,28.07,28.07,0,0,0-1.4,2.8c-.45,1-.85,2.07-1.19,3.12s-.62,2-.83,3a11.11,11.11,0,0,0-.32,2.31,3.68,3.68,0,0,0,.36,1.91,1.1,1.1,0,0,0,1,.55,2.12,2.12,0,0,0,1.06-.36,4.82,4.82,0,0,0,1.11-.93,8.43,8.43,0,0,0,.93-1.3,5.16,5.16,0,0,0,.59-1.44l4.84,1.95A20.72,20.72,0,0,1,379.5,29.19Z"/><path class="cls-12" d="M408.08,17.85a29.12,29.12,0,0,1-2,5.65,22.93,22.93,0,0,1-2.86,4.58,22.27,22.27,0,0,1-3.42,3.44,14.8,14.8,0,0,1-3.61,2.17,9.35,9.35,0,0,1-3.48.74,6.06,6.06,0,0,1-2.55-.53,5.55,5.55,0,0,1-2-1.57,7.48,7.48,0,0,1-1.34-2.68,13.66,13.66,0,0,1-.49-3.92,23.06,23.06,0,0,1,.59-5,36.21,36.21,0,0,1,1.62-5.23,28.79,28.79,0,0,1,2.5-4.92,24.47,24.47,0,0,1,3.27-4.14,15.43,15.43,0,0,1,3.82-2.87,9.07,9.07,0,0,1,4.25-1.06,5.79,5.79,0,0,1,3.16.79,5.6,5.6,0,0,1,2,2,9.3,9.3,0,0,1,1,2.83,16.62,16.62,0,0,1,.3,3.14A28.17,28.17,0,0,1,408.08,17.85ZM392.86,25.6a2.7,2.7,0,0,0,1.21,1.55,1.78,1.78,0,0,0,.95.27,5,5,0,0,0,3.4-1.31,10.93,10.93,0,0,0,2.46-3.23,18.92,18.92,0,0,0,1.51-4.08,16.88,16.88,0,0,0,.53-3.94q0-.51-.06-1.11a4.78,4.78,0,0,0-.26-1.1,2.17,2.17,0,0,0-.59-.87,1.58,1.58,0,0,0-1.09-.36,4.75,4.75,0,0,0-2.5.68,7.59,7.59,0,0,0-2.06,1.8,12.5,12.5,0,0,0-1.59,2.55,23,23,0,0,0-1.17,2.89,16.53,16.53,0,0,0-.7,2.86,16.72,16.72,0,0,0-.21,2.42A2.93,2.93,0,0,0,392.86,25.6Z"/><path class="cls-12" d="M410.39,34.3q1.16-5.64,2.21-11c.25-1.53.54-3.12.85-4.77s.6-3.3.87-4.93.52-3.2.76-4.71.44-2.9.58-4.14a29.85,29.85,0,0,1,5.22-1.13,43.6,43.6,0,0,1,5.56-.36,8.45,8.45,0,0,1,2.74.38,3.83,3.83,0,0,1,2.57,2.72A7.91,7.91,0,0,1,432,8.4a9.64,9.64,0,0,1-.59,3.34,14.12,14.12,0,0,1-1.59,3.09,16.3,16.3,0,0,1-2.29,2.68,12.43,12.43,0,0,1-2.79,2c.51,1.14,1.06,2.38,1.64,3.72S427.5,25.83,428,27c.57,1.42,1.15,2.83,1.74,4.25l-6.58,2.29q-.84-2.92-1.53-5.52l-.59-2.19c-.2-.75-.38-1.45-.55-2.12s-.31-1.25-.43-1.76-.18-.91-.21-1.19l-.55.17c-.17.91-.38,2-.62,3.31s-.46,2.56-.66,3.78c-.25,1.44-.5,2.93-.76,4.46Zm10-18.42a6.07,6.07,0,0,0,2-.68,13.18,13.18,0,0,0,2.23-1.43,12.14,12.14,0,0,0,1.83-1.72,2.55,2.55,0,0,0,.76-1.57,1,1,0,0,0-.29-.74,2.09,2.09,0,0,0-.83-.43,6.65,6.65,0,0,0-1.17-.19c-.42,0-.86,0-1.32,0l-.95,0c-.33,0-.62,0-.87,0Z"/><path class="cls-12" d="M433.66,34.3l5.56-30.19L452.64,3c-.2.62-.37,1.26-.51,1.91s-.28,1.1-.4,1.68-.24,1.09-.32,1.54c-.29,0-.69.05-1.21.07l-1.68,0c-.59,0-1.2,0-1.8,0h-1.6l-1.48,7.6c.87-.05,1.7-.1,2.46-.12s1.26-.05,1.91-.05,1.13,0,1.44,0c-.11.79-.21,1.57-.31,2.34s-.22,1.54-.36,2.33q-.43,0-1.38.06l-1.94.07L443,20.5l-1.44,7.82,6.2-1-.43,4.84Z"/><path class="cls-13" d="M257.54,34.35c.73-3.91,1.46-7.75,2.16-11.51.26-1.59.54-3.24.85-4.95s.61-3.4.89-5.07.56-3.29.81-4.86.48-3,.68-4.31l6.88-.47c-.48,2-1,4.05-1.42,6.2s-.9,4.24-1.3,6.28l4.2-.46c.4-2,.75-4,1.07-5.84s.72-3.83,1.23-5.84c.65-.11,1.37-.21,2.16-.28L278,3.05l2.42-.21c-.4,1.27-.77,2.67-1.12,4.18s-.7,3.09-1,4.72-.67,3.27-1,4.94-.6,3.26-.85,4.76q-.93,5.39-1.74,11l-6.62.76c.36-1.7.69-3.35,1-5l.87-4.24c.3-1.47.53-2.73.7-3.78l-4.12.38c-.19,1.08-.43,2.32-.7,3.74s-.51,2.76-.74,4L264.08,33Z"/><path class="cls-13" d="M285.39,33.52c-.74.07-1.5.15-2.29.25l-2.15.28a7.27,7.27,0,0,0-1,.17c.34-1.22.68-2.57,1-4.06s.69-3,1-4.67.7-3.27,1-4.94.65-3.29,1-4.84Q285,10.27,286,4.54l6.62-1.06q-1.09,5.68-2.21,11.16c-.31,1.56-.63,3.17-.95,4.84s-.64,3.33-.94,5-.59,3.24-.89,4.78-.56,2.94-.78,4.18C286.62,33.41,286.13,33.45,285.39,33.52Z"/><path class="cls-13" d="M314.31,25.62A19.41,19.41,0,0,1,310.93,31a13.64,13.64,0,0,1-4.25,3.23,10.28,10.28,0,0,1-4.3,1.06,6.93,6.93,0,0,1-3-.68,6.6,6.6,0,0,1-2.46-2.06,10.4,10.4,0,0,1-1.64-3.46,18.11,18.11,0,0,1-.59-4.88,26.5,26.5,0,0,1,1.57-9.56,22.32,22.32,0,0,1,4-6.79,16.26,16.26,0,0,1,5.14-4,11.83,11.83,0,0,1,5.12-1.32,6.93,6.93,0,0,1,2.95.59,5.87,5.87,0,0,1,2.06,1.6A6.3,6.3,0,0,1,316.66,7,10.81,10.81,0,0,1,317,9.85L311.21,11a5.69,5.69,0,0,0-1-2.42,1.91,1.91,0,0,0-1.45-.72,3.41,3.41,0,0,0-2.33,1.5A17.7,17.7,0,0,0,304,13.2a32.29,32.29,0,0,0-1.87,5.22,24.69,24.69,0,0,0-.85,5.61,6.74,6.74,0,0,0,.79,3.76,2.36,2.36,0,0,0,2,1.12,4.23,4.23,0,0,0,1.76-.42,5.29,5.29,0,0,0,1.63-1.21,7.28,7.28,0,0,0,1.21-1.83,5.53,5.53,0,0,0,.53-2.27l-4.54.68.81-4.21,3.9-.51q1.62-.21,3.42-.51c1.2-.19,2.26-.38,3.16-.55A22.56,22.56,0,0,1,314.31,25.62Z"/><path class="cls-13" d="M318.72,34.35q1.11-5.87,2.17-11.51c.25-1.59.53-3.24.85-4.95s.6-3.4.89-5.07.55-3.29.8-4.86.49-3,.68-4.31L331,3.18q-.72,3-1.42,6.2t-1.29,6.28l4.2-.46c.39-2,.75-4,1.06-5.84s.72-3.83,1.23-5.84c.65-.11,1.37-.21,2.17-.28l2.21-.19,2.42-.21c-.4,1.27-.78,2.67-1.13,4.18s-.7,3.09-1,4.72-.67,3.27-1,4.94-.59,3.26-.85,4.76q-.93,5.39-1.74,11l-6.62.76c.37-1.7.69-3.35,1-5l.87-4.24c.29-1.47.53-2.73.7-3.78l-4.12.38c-.2,1.08-.43,2.32-.7,3.74s-.52,2.76-.75,4L325.26,33Z"/><path class="cls-13" d="M359.25,28.08a10.61,10.61,0,0,1-2.46,3.34,11.05,11.05,0,0,1-3.66,2.16,13.08,13.08,0,0,1-4.52.77,7.09,7.09,0,0,1-3.39-.92A10.63,10.63,0,0,1,342,30.52l3.14-6.15a4.54,4.54,0,0,0,.89,1.12,6.68,6.68,0,0,0,1.34,1,9.9,9.9,0,0,0,1.48.7,3.78,3.78,0,0,0,1.34.28,3.65,3.65,0,0,0,2.08-.68A2.76,2.76,0,0,0,353,26a1.88,1.88,0,0,0,.28-1,3.06,3.06,0,0,0-.66-1.89A9.39,9.39,0,0,0,351,21.42c-.65-.53-1.36-1.06-2.12-1.6a19,19,0,0,1-2.11-1.69,9.78,9.78,0,0,1-1.63-2,4.65,4.65,0,0,1-.68-2.46,7.11,7.11,0,0,1,1.32-4.12A12.7,12.7,0,0,1,349,6.26a17.32,17.32,0,0,1,4.31-2.19,13.41,13.41,0,0,1,4.41-.81,8.43,8.43,0,0,1,2.17.28A4.42,4.42,0,0,1,362.86,6a5.37,5.37,0,0,1,.44,2.34,6.91,6.91,0,0,1-.1,1.19c-.07.39-.14.82-.19,1.27l-6.16,1.78c.06-.22.11-.45.15-.68a3.82,3.82,0,0,0,.06-.68,3.05,3.05,0,0,0-.44-1.84,1.43,1.43,0,0,0-1.17-.58,1.9,1.9,0,0,0-.83.26,6,6,0,0,0-1,.66,3.75,3.75,0,0,0-.82,1,2.22,2.22,0,0,0-.34,1.19,2.55,2.55,0,0,0,.57,1.7,7.37,7.37,0,0,0,1.42,1.27c.57.4,1.18.8,1.85,1.21a8.08,8.08,0,0,1,1.85,1.6,8.3,8.3,0,0,1,1.42,2.44,10.29,10.29,0,0,1,.57,3.71A9.93,9.93,0,0,1,359.25,28.08Z"/><path class="cls-13" d="M379.5,29.19a16.08,16.08,0,0,1-2.63,2.88,9.87,9.87,0,0,1-2.78,1.72,7.35,7.35,0,0,1-2.72.56,4.86,4.86,0,0,1-2.4-.6A5.58,5.58,0,0,1,367.08,32,10,10,0,0,1,365.79,29,15,15,0,0,1,365.3,25a29,29,0,0,1,1.1-7.88,26.18,26.18,0,0,1,3.1-7,17.32,17.32,0,0,1,4.74-5,10.4,10.4,0,0,1,6.05-1.89,4.54,4.54,0,0,1,1.95.43,4.86,4.86,0,0,1,1.62,1.19,5.73,5.73,0,0,1,1.08,1.86,7.15,7.15,0,0,1,.4,2.47V9.7a3.82,3.82,0,0,1,0,.57l-5.56,1.49c-.34-.71-.74-1.07-1.19-1.07a2.05,2.05,0,0,0-1.42.79,10.35,10.35,0,0,0-1.47,2,28.07,28.07,0,0,0-1.4,2.8c-.45,1-.85,2.07-1.19,3.12s-.62,2-.83,3a11.11,11.11,0,0,0-.32,2.31,3.68,3.68,0,0,0,.36,1.91,1.1,1.1,0,0,0,1,.55,2.12,2.12,0,0,0,1.06-.36,4.82,4.82,0,0,0,1.11-.93,8.43,8.43,0,0,0,.93-1.3,5.16,5.16,0,0,0,.59-1.44l4.84,1.95A20.72,20.72,0,0,1,379.5,29.19Z"/><path class="cls-13" d="M408.08,17.85a29.12,29.12,0,0,1-2,5.65,22.93,22.93,0,0,1-2.86,4.58,22.27,22.27,0,0,1-3.42,3.44,14.8,14.8,0,0,1-3.61,2.17,9.35,9.35,0,0,1-3.48.74,6.06,6.06,0,0,1-2.55-.53,5.55,5.55,0,0,1-2-1.57,7.48,7.48,0,0,1-1.34-2.68,13.66,13.66,0,0,1-.49-3.92,23.06,23.06,0,0,1,.59-5,36.21,36.21,0,0,1,1.62-5.23,28.79,28.79,0,0,1,2.5-4.92,24.47,24.47,0,0,1,3.27-4.14,15.43,15.43,0,0,1,3.82-2.87,9.07,9.07,0,0,1,4.25-1.06,5.79,5.79,0,0,1,3.16.79,5.6,5.6,0,0,1,2,2,9.3,9.3,0,0,1,1,2.83,16.62,16.62,0,0,1,.3,3.14A28.17,28.17,0,0,1,408.08,17.85ZM392.86,25.6a2.7,2.7,0,0,0,1.21,1.55,1.78,1.78,0,0,0,.95.27,5,5,0,0,0,3.4-1.31,10.93,10.93,0,0,0,2.46-3.23,18.92,18.92,0,0,0,1.51-4.08,16.88,16.88,0,0,0,.53-3.94q0-.51-.06-1.11a4.78,4.78,0,0,0-.26-1.1,2.17,2.17,0,0,0-.59-.87,1.58,1.58,0,0,0-1.09-.36,4.75,4.75,0,0,0-2.5.68,7.59,7.59,0,0,0-2.06,1.8,12.5,12.5,0,0,0-1.59,2.55,23,23,0,0,0-1.17,2.89,16.53,16.53,0,0,0-.7,2.86,16.72,16.72,0,0,0-.21,2.42A2.93,2.93,0,0,0,392.86,25.6Z"/><path class="cls-13" d="M410.39,34.3q1.16-5.64,2.21-11c.25-1.53.54-3.12.85-4.77s.6-3.3.87-4.93.52-3.2.76-4.71.44-2.9.58-4.14a29.85,29.85,0,0,1,5.22-1.13,43.6,43.6,0,0,1,5.56-.36,8.45,8.45,0,0,1,2.74.38,3.83,3.83,0,0,1,2.57,2.72A7.91,7.91,0,0,1,432,8.4a9.64,9.64,0,0,1-.59,3.34,14.12,14.12,0,0,1-1.59,3.09,16.3,16.3,0,0,1-2.29,2.68,12.43,12.43,0,0,1-2.79,2c.51,1.14,1.06,2.38,1.64,3.72S427.5,25.83,428,27c.57,1.42,1.15,2.83,1.74,4.25l-6.58,2.29q-.84-2.92-1.53-5.52l-.59-2.19c-.2-.75-.38-1.45-.55-2.12s-.31-1.25-.43-1.76-.18-.91-.21-1.19l-.55.17c-.17.91-.38,2-.62,3.31s-.46,2.56-.66,3.78c-.25,1.44-.5,2.93-.76,4.46Zm10-18.42a6.07,6.07,0,0,0,2-.68,13.18,13.18,0,0,0,2.23-1.43,12.14,12.14,0,0,0,1.83-1.72,2.55,2.55,0,0,0,.76-1.57,1,1,0,0,0-.29-.74,2.09,2.09,0,0,0-.83-.43,6.65,6.65,0,0,0-1.17-.19c-.42,0-.86,0-1.32,0l-.95,0c-.33,0-.62,0-.87,0Z"/><path class="cls-13" d="M433.66,34.3l5.56-30.19L452.64,3c-.2.62-.37,1.26-.51,1.91s-.28,1.1-.4,1.68-.24,1.09-.32,1.54c-.29,0-.69.05-1.21.07l-1.68,0c-.59,0-1.2,0-1.8,0h-1.6l-1.48,7.6c.87-.05,1.7-.1,2.46-.12s1.26-.05,1.91-.05,1.13,0,1.44,0c-.11.79-.21,1.57-.31,2.34s-.22,1.54-.36,2.33q-.43,0-1.38.06l-1.94.07L443,20.5l-1.44,7.82,6.2-1-.43,4.84Z"/></g></g></svg>