<svg xmlns="http://www.w3.org/2000/svg" viewBox="0 0 470.42 195.22"><defs><style>.cls-1{fill:#010101;opacity:0.2;}.cls-1,.cls-10,.cls-11,.cls-12,.cls-2,.cls-3,.cls-4,.cls-5,.cls-6,.cls-7,.cls-9{fill-rule:evenodd;}.cls-2,.cls-8{fill:#fff;}.cls-3{fill:#fcc133;}.cls-4{fill:#e7e6e6;}.cls-5{fill:#ffe55a;}.cls-6{fill:#d39802;}.cls-7{fill:#fab612;}.cls-8{font-size:42.46px;font-family:Bangers-Regular, Bangers;letter-spacing:0.1em;}.cls-9{fill:#ba1818;}.cls-10{fill:#e41f1a;}.cls-11{fill:#7d170f;}.cls-12{fill:#9c1915;}</style></defs><g id="Layer_2" data-name="Layer 2"><g id="Basic_UI" data-name="Basic UI"><path class="cls-1" d="M432.05,57.14c31.45,0,38.46,31.16,38.37,62.14-.11,30.64-4.29,61.1-38.37,61.1H138.94c-34.09,0-38.27-30.46-38.36-61.1-.11-31,6.9-62.14,38.36-62.14Z"/><path class="cls-2" d="M432.05,51c31.45,0,38.46,31.16,38.37,62.15-.11,30.63-4.29,61.09-38.37,61.09H138.94c-34.09,0-38.27-30.46-38.36-61.09-.11-31,6.9-62.15,38.36-62.15Z"/><path class="cls-3" d="M421.17,59.83c29.12,0,35.61,24.91,35.52,49.67-.1,24.47-4,48.81-35.52,48.81H149.82c-31.56,0-35.42-24.34-35.53-48.81-.08-24.76,6.41-49.67,35.53-49.67Z"/><path class="cls-4" d="M138.94,169.85c-33.46,0-38.1-29.37-38.35-59.42v0c0,.91,0,1.83,0,2.74.09,30.63,4.27,61.09,38.36,61.09H432.05c34.08,0,38.26-30.46,38.37-61.09,0-.92,0-1.85,0-2.76-.26,30-4.89,59.42-38.36,59.42Z"/><path class="cls-5" d="M421.17,148.25H149.82c-29.42,0-34.77-21.16-35.44-43.86-.06,1.69-.09,3.4-.09,5.11.11,24.48,4,48.81,35.53,48.81H421.17c31.55,0,35.42-24.33,35.52-48.81,0-1.71,0-3.42-.09-5.11C455.94,127.09,450.59,148.25,421.17,148.25Z"/><path class="cls-6" d="M114.29,109.29v.21c.11,24.48,4,48.81,35.53,48.81H421.17c31.55,0,35.42-24.33,35.52-48.81v-.21c0-1.32,0-2.66-.09-4-.66,22.7-6,43.86-35.43,43.86H149.82c-29.42,0-34.77-21.16-35.44-43.86C114.33,106.63,114.3,108,114.29,109.29Z"/><path class="cls-7" d="M454.3,123.55C311.51,138,197.48,139.24,117.11,125.11c3.85,13.38,12.73,23.14,32.71,23.14H421.17C441.92,148.25,450.69,137.72,454.3,123.55Z"/><path class="cls-5" d="M149.82,63.89H421.17c26.39,0,34.19,20.46,35.35,42.72,0-.74.07-1.48.08-2.22-.76-21.3-7.26-41.43-29.85-44.23a47,47,0,0,0-5.58-.33H149.82a47,47,0,0,0-5.58.33c-22.59,2.8-29.09,22.93-29.86,44.23,0,.74.05,1.48.08,2.22C115.62,84.35,123.43,63.89,149.82,63.89Z"/><path class="cls-6" d="M423.31,71.07c17.88,0,21.86,17.74,21.81,35.36-.06,17.43-2.43,34.77-21.81,34.77H222.73c-19.38,0-21.76-17.34-21.81-34.77,0-17.62,3.92-35.36,21.81-35.36Z"/><path class="cls-5" d="M423.31,75.06c17.88,0,21.86,16.72,21.81,33.34-.06,16.44-2.43,32.8-21.81,32.8H222.73c-19.38,0-21.76-16.36-21.81-32.8,0-16.62,3.92-33.34,21.81-33.34Z"/><path class="cls-7" d="M423.31,75.06c17.88,0,21.86,15.8,21.81,31.52-.06,15.53-2.43,31-21.81,31H222.73c-19.38,0-21.76-15.45-21.81-31,0-15.72,3.92-31.52,21.81-31.52Z"/><text class="cls-8" transform="translate(170.55 36.54)">Spieleranzahl</text><path class="cls-1" d="M85.68,66.21a50.17,50.17,0,0,1,8-8.13c7.89-6.33,17.09-9.49,29.07-9.49A48.29,48.29,0,0,1,157,62.8l0,0A48.31,48.31,0,0,1,171.19,97c0,21-9.79,42.2-24.77,59.63-15.35,17.88-36.4,32-57.92,37.78l-2.91.78-2.9-.78a117.69,117.69,0,0,1-58.76-36.57C8.75,140.19,0,118.61,0,97A48.46,48.46,0,0,1,48.44,48.59c17.32,0,28.24,5.87,37.24,17.62Zm22,9.39c-4.35,3.48-8.12,9.26-12.06,17.15l-10,20.09-10-20.09c-7.2-14.4-14.08-21.6-27.12-21.6A25.88,25.88,0,0,0,22.56,97c0,16.17,6.75,32.57,18.46,46.2a94.62,94.62,0,0,0,44.54,28.62c16.17-5,32-16,43.77-29.82,11.67-13.58,19.31-29.67,19.31-45a25.81,25.81,0,0,0-7.58-18.3v0a25.8,25.8,0,0,0-18.3-7.54C116.15,71.15,111.4,72.64,107.7,75.6Z"/><path class="cls-2" d="M85.68,59.91a50.65,50.65,0,0,1,8-8.14c7.89-6.3,17.09-9.47,29.07-9.47A48.29,48.29,0,0,1,157,56.51l0,0a48.3,48.3,0,0,1,14.19,34.24c0,21-9.79,42.19-24.77,59.63-15.35,17.89-36.4,32-57.92,37.79l-2.91.79-2.9-.79a117.58,117.58,0,0,1-58.76-36.59C8.75,133.9,0,112.32,0,90.73A48.46,48.46,0,0,1,48.44,42.3c17.32,0,28.24,5.87,37.24,17.61Zm22,9.4c-4.35,3.48-8.12,9.25-12.06,17.16l-10,20.06-10-20.06c-7.2-14.41-14.08-21.61-27.12-21.61A25.88,25.88,0,0,0,22.56,90.73c0,16.18,6.75,32.58,18.46,46.22a94.75,94.75,0,0,0,44.54,28.61c16.17-5.07,32-16.05,43.77-29.82,11.67-13.58,19.31-29.67,19.31-45a25.82,25.82,0,0,0-7.58-18.29v0a25.72,25.72,0,0,0-18.3-7.54C116.15,64.86,111.4,66.34,107.7,69.31Z"/><path class="cls-9" d="M85.6,77.46c9.29-18.58,18.57-27.87,37.16-27.87a37.16,37.16,0,0,1,37.15,37.15c0,37.17-36.49,76.4-74.31,86.55-44.32-11.87-74.32-49.38-74.32-86.55A37.16,37.16,0,0,1,48.44,49.59C67,49.59,76.31,58.88,85.6,77.46Z"/><path class="cls-4" d="M82.69,183.53A117.62,117.62,0,0,1,23.93,147C9.36,130,.71,109.43,0,88.7c0,.67,0,1.35,0,2,0,21.59,8.75,43.17,23.93,60.83a117.58,117.58,0,0,0,58.76,36.59l2.9.79,2.91-.79c21.52-5.77,42.57-19.9,57.92-37.79,15-17.44,24.77-38.66,24.77-59.63,0-.71,0-1.42-.05-2.12-.73,20.15-10.33,40.4-24.72,57.15-15.35,17.88-36.4,32-57.92,37.77l-2.91.78Z"/><path class="cls-10" d="M85.6,158.39a106.24,106.24,0,0,1-52.47-32.26,94.72,94.72,0,0,1-7.36-9.53,82.89,82.89,0,0,1-14-36.13,36.93,36.93,0,0,0-.53,6.27c0,37.17,30,74.67,74.32,86.55,37.82-10.15,74.31-49.38,74.31-86.55a37.77,37.77,0,0,0-.58-6.6c-1.61,11.51-6.46,23-13.48,33.56a112,112,0,0,1-8,10.49C123.93,140.43,104.94,153.21,85.6,158.39Z"/><path class="cls-11" d="M11.29,87.34c.32,37,30.23,74.13,74.31,85.95,37.64-10.1,74-49,74.31-86a38.9,38.9,0,0,0-.58-5.74c-1.61,11.52-6.46,23-13.48,33.56a113.58,113.58,0,0,1-8,10.51c-13.94,16.22-32.93,29-52.27,34.2a106.46,106.46,0,0,1-52.47-32.27A96,96,0,0,1,25.77,118a82.89,82.89,0,0,1-14-36.13A38,38,0,0,0,11.29,87.34Z"/><path class="cls-12" d="M138.34,123.42c-36.22,14.38-71.28,15.18-105.21,2.71A106.24,106.24,0,0,0,85.6,158.39c19.34-5.18,38.33-18,52.27-34.2q.38-.42.75-.87A2.31,2.31,0,0,0,138.34,123.42Z"/><path class="cls-10" d="M48.44,54.67C67,54.67,76.3,64,85.6,82.54,94.89,64,104.17,54.67,122.76,54.67A37.18,37.18,0,0,1,158.86,83c.18-1,.33-1.93.47-2.88a37.2,37.2,0,0,0-36.57-30.55c-18.59,0-27.87,9.29-37.16,27.86C76.31,58.88,67,49.59,48.44,49.59A37.18,37.18,0,0,0,11.81,80.47c.12,1,.26,2,.42,3A37.2,37.2,0,0,1,48.44,54.67Z"/><path class="cls-10" d="M33.93,55.06c9.59-3.1,18.76-1.29,20.48,4S49.75,71.26,40.16,74.36s-18.76,1.28-20.47-4S24.35,58.15,33.93,55.06Z"/><path class="cls-10" d="M108.81,54.85c9.59-3.09,18.76-1.28,20.48,4S124.63,71.05,115,74.14s-18.76,1.28-20.48-4S99.22,58,108.81,54.85Z"/></g></g></svg>