<svg xmlns="http://www.w3.org/2000/svg" xmlns:xlink="http://www.w3.org/1999/xlink" viewBox="0 0 409.52 205.62"><defs><style>.cls-1,.cls-10{fill:none;}.cls-1,.cls-12,.cls-90{stroke:#fff;stroke-miterlimit:10;}.cls-1,.cls-12{stroke-width:4px;}.cls-2{isolation:isolate;}.cls-3{fill:#010101;}.cls-3,.cls-4,.cls-5,.cls-6,.cls-7,.cls-8,.cls-9{fill-rule:evenodd;}.cls-3,.cls-85{opacity:0.2;}.cls-11,.cls-4,.cls-85,.cls-89{fill:#fff;}.cls-5{fill:#fcc133;}.cls-6{fill:#e7e6e6;}.cls-7{fill:#ffe55a;}.cls-8{fill:#d39802;}.cls-12,.cls-86,.cls-9,.cls-90{fill:#fab612;}.cls-10{stroke:#1d1d1b;}.cls-10,.cls-90{stroke-width:5px;}.cls-13{clip-path:url(#clip-path);}.cls-14{fill:#f2af47;}.cls-15{fill:#f2b048;}.cls-16{fill:#f3b248;}.cls-17{fill:#f3b348;}.cls-18{fill:#f4b54a;}.cls-19{fill:#f4b64b;}.cls-20{fill:#f4b84c;}.cls-21{fill:#f4b94b;}.cls-22{fill:#f5ba4d;}.cls-23{fill:#f4ba4d;}.cls-24{fill:#f4bb4f;}.cls-25{fill:#f5bd50;}.cls-26{fill:#f5bf50;}.cls-27{fill:#f6c050;}.cls-28{fill:#f6c051;}.cls-29{fill:#f5c253;}.cls-30{fill:#f6c352;}.cls-31{fill:#f6c453;}.cls-32{fill:#f7c654;}.cls-33{fill:#f7c655;}.cls-34{fill:#f6c755;}.cls-35{fill:#f7c957;}.cls-36{fill:#f6ca58;}.cls-37{fill:#f7cb58;}.cls-38{fill:#f7cc59;}.cls-39{fill:#f7cd5a;}.cls-40{fill:#f8cf5c;}.cls-41{fill:#f8d15c;}.cls-42{fill:#f8d25c;}.cls-43{fill:#f9d35d;}.cls-44{fill:#f9d45d;}.cls-45{fill:#f9d45e;}.cls-46{fill:#f9d55f;}.cls-47{fill:#f9d760;}.cls-48{fill:#f9d761;}.cls-49{fill:#fad961;}.cls-50{fill:#f9da63;}.cls-51{fill:#f9db63;}.cls-52{fill:#f9dc63;}.cls-53{fill:#fadd64;}.cls-54{fill:#fade64;}.cls-55{fill:#fadf65;}.cls-56{fill:#fae067;}.cls-57{fill:#fae167;}.cls-58{fill:#fae267;}.cls-59{fill:#fae368;}.cls-60{fill:#fbe468;}.cls-61{fill:#fce569;}.cls-62{fill:#fce76b;}.cls-63{fill:#fce86c;}.cls-64{fill:#fce96c;}.cls-65{fill:#fcea6c;}.cls-66{fill:#fdeb6d;}.cls-67{fill:#fdec6f;}.cls-68{fill:#fcec6f;}.cls-69{fill:#fcee6f;}.cls-70{fill:#fcef72;}.cls-71{fill:#fdef72;}.cls-72{fill:#fcef74;}.cls-73{fill:#fbee75;}.cls-74{fill:#faee77;}.cls-75{fill:#faee78;}.cls-76{fill:#f9ee79;}.cls-77{fill:#faee79;}.cls-78{fill:#f9ee7a;}.cls-79{fill:#f8ee7c;}.cls-80{fill:#f8ee7a;}.cls-81{fill:#f7ee7c;}.cls-82{fill:#f7ee7d;}.cls-83{fill:#f9ee7c;}.cls-84{fill:#f9ee7d;}.cls-87{clip-path:url(#clip-path-2);}.cls-88{fill:#ce6959;}.cls-89{opacity:0.5;}.cls-91{opacity:0.7;fill:url(#radial-gradient);}.cls-100,.cls-91{mix-blend-mode:lighten;}.cls-92{fill:#fffbe5;}.cls-93{fill:url(#linear-gradient);}.cls-94{fill:url(#radial-gradient-2);}.cls-95{fill:#eddd9a;}.cls-96{fill:#e66e27;opacity:0.4;}.cls-97{fill:url(#radial-gradient-3);}.cls-98{fill:url(#radial-gradient-4);}.cls-99{fill:#2f2a4a;}.cls-100{fill:url(#linear-gradient-2);}</style><clipPath id="clip-path"><path class="cls-1" d="M146.72,36.55c3.18,4.77-3.74,15-15.47,22.78s-23.8,10.27-27,5.5,3.75-15,15.47-22.78S143.55,31.78,146.72,36.55Z"/></clipPath><clipPath id="clip-path-2"><path class="cls-1" d="M22.22,36.55c-3.17,4.77,3.75,15,15.48,22.78s23.8,10.27,27,5.5-3.75-15-15.47-22.78S25.4,31.78,22.22,36.55Z"/></clipPath><radialGradient id="radial-gradient" cx="85.79" cy="896.54" r="56.04" gradientTransform="translate(0 -445.91) scale(1 0.62)" gradientUnits="userSpaceOnUse"><stop offset="0" stop-color="#fff"/><stop offset="0.1" stop-color="#f3f3f3"/><stop offset="0.27" stop-color="#d3d3d2"/><stop offset="0.51" stop-color="#9e9e9d"/><stop offset="0.79" stop-color="#575755"/><stop offset="1" stop-color="#1e1e1c"/></radialGradient><linearGradient id="linear-gradient" x1="85.56" y1="160.83" x2="85.56" y2="105.31" gradientUnits="userSpaceOnUse"><stop offset="0" stop-color="#5e130f"/><stop offset="0.22" stop-color="#6a1412"/><stop offset="0.61" stop-color="#8b161a"/><stop offset="1" stop-color="#b11924"/></linearGradient><radialGradient id="radial-gradient-2" cx="85.73" cy="8500.58" r="39.93" gradientTransform="translate(0 -4177.55) scale(1 0.51)" gradientUnits="userSpaceOnUse"><stop offset="0" stop-color="#ee7228"/><stop offset="0.2" stop-color="#e76627"/><stop offset="0.57" stop-color="#d64526"/><stop offset="1" stop-color="#be1823"/></radialGradient><radialGradient id="radial-gradient-3" cx="84.47" cy="72.62" r="23.7" gradientUnits="userSpaceOnUse"><stop offset="0.56" stop-color="#fff"/><stop offset="0.78" stop-color="#fdfdfd"/><stop offset="0.86" stop-color="#f6f6f6"/><stop offset="0.92" stop-color="#ebebeb"/><stop offset="0.96" stop-color="#dadada"/><stop offset="1" stop-color="#c7c6c6"/></radialGradient><radialGradient id="radial-gradient-4" cx="84.47" cy="72.62" r="12.75" gradientUnits="userSpaceOnUse"><stop offset="0" stop-color="#fff"/><stop offset="0.18" stop-color="#fcfdfe"/><stop offset="0.32" stop-color="#f2f6fa"/><stop offset="0.45" stop-color="#e1eaf5"/><stop offset="0.58" stop-color="#cadaec"/><stop offset="0.69" stop-color="#abc5e2"/><stop offset="0.81" stop-color="#86acd5"/><stop offset="0.91" stop-color="#5a8ec6"/><stop offset="1" stop-color="#3272b8"/></radialGradient><linearGradient id="linear-gradient-2" x1="84.44" y1="60.9" x2="84.51" y2="71.52" gradientTransform="matrix(1, 0, 0, 1, 0, 0)" xlink:href="#radial-gradient"/></defs><g class="cls-2"><g id="Layer_2" data-name="Layer 2"><g id="Basic_UI" data-name="Basic UI"><path class="cls-3" d="M363.24,50.36c36.41,0,44.53,36.08,44.42,72-.12,35.48-5,70.75-44.42,70.75H124.68c-39.48,0-44.31-35.27-44.42-70.75-.13-35.87,8-71.95,44.42-71.95Z"/><path class="cls-4" d="M363.24,43.3c36.41,0,44.53,36.08,44.42,72-.12,35.47-5,70.73-44.42,70.73H124.68c-39.48,0-44.31-35.26-44.42-70.73-.13-35.88,8-72,44.42-72Z"/><path class="cls-5" d="M361.09,53.47c25.15,0,30.75,28.84,30.67,57.52-.08,28.33-3.42,56.52-30.67,56.52H126.81c-27.25,0-30.58-28.19-30.67-56.52-.07-28.68,5.53-57.52,30.67-57.52Z"/><path class="cls-6" d="M124.68,180.87c-38.75,0-44.12-34-44.41-68.8v0c0,1,0,2.12,0,3.17C80.37,150.73,85.2,186,124.68,186H363.24c39.46,0,44.3-35.26,44.42-70.73,0-1.06,0-2.14,0-3.19-.3,34.8-5.67,68.8-44.41,68.8Z"/><path class="cls-7" d="M350.63,155.86H137.27c-34.06,0-40.26-24.5-41-50.79-.06,2-.1,3.93-.1,5.92.13,28.34,4.59,56.52,41.13,56.52H350.63c36.54,0,41-28.18,41.13-56.52,0-2,0-4-.1-5.92C390.9,131.36,384.7,155.86,350.63,155.86Z"/><path class="cls-8" d="M96.14,110.75V111c.13,28.34,4.59,56.52,41.13,56.52H350.63c36.54,0,41-28.18,41.13-56.52v-.24c0-1.53,0-3.08-.1-4.61-.76,26.28-7,50.78-41,50.78H137.27c-34.06,0-40.26-24.5-41-50.78C96.19,107.67,96.15,109.2,96.14,110.75Z"/><path class="cls-9" d="M389,127.26C223.65,144,192.47,145.42,99.4,129.07c4.46,15.49,14.74,26.79,37.87,26.79H350.63C374.66,155.86,384.82,143.66,389,127.26Z"/><path class="cls-7" d="M137.27,58.18H350.63c30.56,0,39.6,23.69,40.94,49.46.05-.85.08-1.72.09-2.57-.88-24.66-8.41-48-34.56-51.22a55.34,55.34,0,0,0-6.47-.38H137.27a55.3,55.3,0,0,0-6.46.38c-26.15,3.25-33.68,26.56-34.57,51.22l.09,2.57C97.68,81.87,106.72,58.18,137.27,58.18Z"/><path class="cls-8" d="M353.11,66.49c20.7,0,25.32,20.54,25.26,41-.08,20.18-2.82,40.25-25.26,40.25H221.7c-22.44,0-25.19-20.07-25.26-40.25C196.39,87,201,66.49,221.7,66.49Z"/><path class="cls-7" d="M353.11,71.11c20.7,0,25.32,19.36,25.26,38.61-.08,19-2.82,38-25.26,38H221.7c-22.44,0-25.19-18.94-25.26-38-.05-19.25,4.55-38.61,25.26-38.61Z"/><path class="cls-9" d="M353.11,71.11c20.7,0,25.32,18.3,25.26,36.49-.08,18-2.82,35.88-25.26,35.88H221.7c-22.44,0-25.19-17.88-25.26-35.88-.05-18.19,4.55-36.49,25.26-36.49Z"/><path class="cls-10" d="M163.29,28.58a10.46,10.46,0,0,1-2.46,3.33,10.91,10.91,0,0,1-3.66,2.17,13.12,13.12,0,0,1-4.52.76,7.14,7.14,0,0,1-3.4-.91A10.72,10.72,0,0,1,146,31l3.14-6.15A4.73,4.73,0,0,0,150,26a6.41,6.41,0,0,0,1.34,1,9.9,9.9,0,0,0,1.48.7,4,4,0,0,0,1.34.28,3.65,3.65,0,0,0,2.08-.68,2.76,2.76,0,0,0,.74-.79,1.88,1.88,0,0,0,.28-1,3.06,3.06,0,0,0-.66-1.89A9.78,9.78,0,0,0,155,21.91c-.66-.52-1.36-1.05-2.13-1.59a19.94,19.94,0,0,1-2.1-1.7,9.4,9.4,0,0,1-1.63-2,4.56,4.56,0,0,1-.68-2.46,7.15,7.15,0,0,1,1.31-4.12,13,13,0,0,1,3.29-3.29,17.67,17.67,0,0,1,4.31-2.19,13.52,13.52,0,0,1,4.42-.81A8.07,8.07,0,0,1,164,4a4.65,4.65,0,0,1,1.76.89,4.62,4.62,0,0,1,1.19,1.55,5.5,5.5,0,0,1,.44,2.33,6.75,6.75,0,0,1-.1,1.19c-.08.4-.14.83-.19,1.28l-6.16,1.78c.05-.22.11-.45.15-.68a3.82,3.82,0,0,0,.06-.68,3.05,3.05,0,0,0-.44-1.84,1.4,1.4,0,0,0-1.17-.58,1.86,1.86,0,0,0-.83.26,5.62,5.62,0,0,0-1,.66,3.81,3.81,0,0,0-.83,1,2.28,2.28,0,0,0-.34,1.19,2.56,2.56,0,0,0,.58,1.7,7.08,7.08,0,0,0,1.42,1.27c.57.4,1.18.8,1.85,1.21a8,8,0,0,1,1.84,1.59,8.36,8.36,0,0,1,1.43,2.44,10.39,10.39,0,0,1,.57,3.72A9.93,9.93,0,0,1,163.29,28.58Z"/><path class="cls-10" d="M167.77,34.8q1.28-5.73,2.42-11.21c.31-1.53.63-3.14,1-4.84s.67-3.37,1-5,.61-3.23.89-4.76.53-2.93.72-4.2c.82-.25,1.63-.47,2.42-.66s1.61-.34,2.45-.49A14.22,14.22,0,0,1,181,3.42a7.17,7.17,0,0,1,3.21.64,5.73,5.73,0,0,1,2.1,1.72,6.74,6.74,0,0,1,1.15,2.53,13.82,13.82,0,0,1,.34,3.1A12.59,12.59,0,0,1,186.9,16a14.07,14.07,0,0,1-2.34,3.93,11.84,11.84,0,0,1-3.36,2.74,8.1,8.1,0,0,1-3.92,1h-.47c-.23,1-.44,2-.64,3.14s-.36,2.18-.51,3.14c-.19,1.13-.38,2.26-.55,3.4Zm10.91-20.93q-.47,2.51-1,5.35a3.78,3.78,0,0,0,1.42-.79,6.73,6.73,0,0,0,1.38-1.61,8.7,8.7,0,0,0,1-2.31,9.71,9.71,0,0,0,.38-2.77,3.51,3.51,0,0,0-.7-2.37,2,2,0,0,0-1.55-.81Q179.15,11.36,178.68,13.87Z"/><path class="cls-10" d="M193.94,34c-.75.08-1.52.16-2.31.26l-2.14.28a7.26,7.26,0,0,0-1.05.17c.29-1.22.58-2.57.88-4.06s.6-3,.91-4.67.61-3.28.89-4.95l.81-4.84q.88-5.43,1.78-11.16L200.33,4q-1,5.7-1.91,11.17L197.64,20c-.27,1.67-.54,3.33-.81,5s-.52,3.23-.74,4.78-.44,2.93-.64,4.18C195.2,33.91,194.69,33.94,193.94,34Z"/><path class="cls-10" d="M201.4,34.8,207,4.61l13.41-1.14c-.19.62-.36,1.25-.5,1.91s-.28,1.09-.41,1.67-.23,1.1-.32,1.55c-.28,0-.68.05-1.21.07l-1.67,0-1.81,0h-1.59l-1.49,7.6c.88-.06,1.7-.1,2.47-.13.62,0,1.25,0,1.91,0s1.13,0,1.44,0c-.11.79-.22,1.57-.32,2.33s-.22,1.55-.36,2.34q-.42,0-1.38.06l-1.93.07-2.42.08-1.45,7.81,6.2-1-.42,4.84Z"/><path class="cls-10" d="M228.72,33.48c-1,.06-2,.15-2.95.26s-2,.26-2.91.44a22.24,22.24,0,0,0-2.57.66c.17-1.27.37-2.69.59-4.24s.49-3.17.79-4.84.59-3.36.89-5.06.6-3.32.91-4.88q1.07-5.57,2.25-11.34l7.44-1Q232,8.43,231,13.1c-.32,1.33-.63,2.71-.94,4.14s-.61,2.83-.89,4.19-.54,2.67-.76,3.94-.41,2.41-.56,3.4c.71-.05,1.47-.09,2.28-.1l2.14,0c0,.54.07,1.07.13,1.6s.12,1,.19,1.42.13.8.17,1.12a5.34,5.34,0,0,0,.11.66c-.23,0-.45,0-.66,0l-.66,0C230.62,33.4,229.69,33.43,228.72,33.48Z"/><path class="cls-10" d="M237.19,34.8l5.56-30.19,13.42-1.14a19.09,19.09,0,0,0-.51,1.91c-.14.53-.28,1.09-.41,1.67s-.23,1.1-.31,1.55c-.29,0-.69.05-1.21.07l-1.68,0-1.81,0h-1.59l-1.48,7.6c.87-.06,1.69-.1,2.46-.13s1.26,0,1.91,0,1.13,0,1.44,0c-.11.79-.22,1.57-.32,2.33s-.22,1.55-.36,2.34q-.42,0-1.38.06l-1.93.07-2.42.08-1.44,7.81,6.2-1-.43,4.84Z"/><path class="cls-10" d="M255.74,34.8q1.15-5.64,2.21-11c.25-1.53.54-3.12.85-4.78s.6-3.29.87-4.92.52-3.2.76-4.71.44-2.9.58-4.14a29.85,29.85,0,0,1,5.22-1.13,43.6,43.6,0,0,1,5.56-.36,8.45,8.45,0,0,1,2.74.38,4.09,4.09,0,0,1,1.7,1.08,4.12,4.12,0,0,1,.87,1.64,7.91,7.91,0,0,1,.25,2.08,9.59,9.59,0,0,1-.59,3.33,14.2,14.2,0,0,1-1.59,3.1A16.3,16.3,0,0,1,272.88,18a12.76,12.76,0,0,1-2.79,2c.51,1.13,1.06,2.37,1.64,3.72s1.12,2.62,1.63,3.84c.57,1.42,1.15,2.83,1.74,4.25l-6.58,2.29q-.84-2.71-1.52-5.1-.3-1-.6-2c-.2-.7-.38-1.35-.55-2s-.31-1.18-.43-1.67a10.44,10.44,0,0,1-.21-1.22l-.55.17c-.17.91-.38,2-.62,3.19s-.46,2.39-.65,3.52c-.26,1.33-.51,2.68-.77,4Zm10-18.43a5.74,5.74,0,0,0,2-.68,13.45,13.45,0,0,0,2.22-1.42,12.14,12.14,0,0,0,1.83-1.72,2.57,2.57,0,0,0,.76-1.57,1,1,0,0,0-.29-.74,2,2,0,0,0-.83-.43,5.84,5.84,0,0,0-1.17-.19c-.42,0-.86,0-1.31,0l-1,0c-.33,0-.62,0-.87,0Z"/><path class="cls-10" d="M292,34.29l-2.29.38c.11-.93.22-1.85.34-2.76s.16-1.58.23-2.37.13-1.48.19-2h-3.69L285,33.61c-.62.09-1.36.18-2.21.28l-2.38.27-2.67.34,3.35-11.12q.67-2.29,1.43-4.8c.49-1.67,1-3.33,1.48-5s1-3.25,1.42-4.78.85-2.93,1.19-4.2q2.89-.21,5.88-.51t5.84-.8c-.08.9-.18,2-.27,3.37s-.19,2.81-.28,4.4-.17,3.24-.25,5-.17,3.43-.26,5.1q-.21,5.86-.47,12.44c-.85.14-1.69.25-2.54.34Zm-4.2-11c.11,0,.32,0,.61,0l.94,0,.91,0a3.76,3.76,0,0,0,.59-.07,7.94,7.94,0,0,1,.07-.87c0-.41.08-.88.12-1.4s.1-1.1.15-1.72.12-1.23.17-1.83c.12-1.44.26-3,.43-4.67L292,8.9l-.63,0-1,3.65Z"/><path class="cls-10" d="M301.51,35c.85-4.08,1.66-8,2.42-11.85.29-1.64.59-3.34.92-5.09s.63-3.49.91-5.2.54-3.36.76-4.93.4-3,.51-4.27c.37,0,.68.05.94.05h.89l1.44,0,1.7-.07,1.83-.08c.39,2,.75,3.89,1.06,5.73.31,1.61.63,3.27.95,5s.62,3.14.87,4.33c.12-.57.24-1.23.39-2s.29-1.53.46-2.35.34-1.65.49-2.49.32-1.66.49-2.48q.6-2.76,1.23-5.69L325,2.91q-1.44,6.5-2.55,12.32c-.33,1.67-.67,3.36-1,5.07s-.63,3.35-.92,4.93-.52,3-.72,4.37-.35,2.47-.47,3.37c-.08,0-.41.07-1,.2l-2,.44-2.25.51a13.46,13.46,0,0,0-1.68.47q-.25-3.41-.55-6.46c-.08-.87-.17-1.77-.27-2.69s-.21-1.81-.32-2.66-.23-1.64-.34-2.37-.23-1.38-.34-1.91c-.09.53-.2,1.16-.34,1.86s-.29,1.46-.43,2.25-.28,1.63-.42,2.49-.3,1.69-.47,2.48c-.37,1.9-.76,3.88-1.19,6Z"/><path class="cls-10" d="M341.43,33.1l-2.91.13-3.63.21-3.82.28c-1.25.1-2.4.2-3.46.32s-1.91.22-2.53.34l0-6.2,12.06-16.44a19.39,19.39,0,0,0-2,.15l-2.65.32c-.89.12-1.66.23-2.32.34l-1,.09L330,6l17.37-1.23-1.11,5.86L334.63,27.07c.57,0,1.33,0,2.27-.08l3-.17,3.32-.21L343,33.06Z"/><path class="cls-10" d="M360.58,34.29l-2.3.38c.12-.93.23-1.85.34-2.76s.17-1.58.24-2.37.13-1.48.19-2h-3.7l-1.69,6.11c-.63.09-1.36.18-2.21.28l-2.38.27-2.68.34c1.14-3.76,2.25-7.47,3.36-11.12q.67-2.29,1.42-4.8t1.49-5c.49-1.65,1-3.25,1.42-4.78s.85-2.93,1.19-4.2q2.88-.21,5.88-.51T367,3.3c-.09.9-.18,2-.28,3.37s-.19,2.81-.28,4.4-.17,3.24-.25,5-.17,3.43-.25,5.1q-.23,5.86-.47,12.44c-.85.14-1.7.25-2.55.34Zm-4.21-11c.12,0,.32,0,.62,0l.93,0,.91,0a3.76,3.76,0,0,0,.6-.07q0-.25.06-.87c.05-.41.09-.88.13-1.4s.09-1.1.15-1.72.11-1.23.17-1.83c.11-1.44.25-3,.42-4.67l.26-3.69-.64,0-1,3.65Z"/><path class="cls-10" d="M370.26,34.84q1.19-5.94,2.29-11.59c.28-1.61.58-3.29.89-5s.6-3.46.87-5.16.52-3.35.77-5,.43-3,.57-4.35l1.8.11c.56,0,1.1.08,1.64.1l1.63.07,1.81,0c-.48,2-1,4-1.42,6s-.9,4-1.3,6.07l4.2-.47c.4-2,.75-3.95,1.07-5.83S385.8,6,386.31,4c.65-.12,1.37-.21,2.16-.28l2.21-.19,2.42-.21c-.4,1.27-.77,2.67-1.12,4.18s-.71,3.09-1.05,4.71-.66,3.28-1,4.95-.6,3.25-.85,4.76q-.93,5.39-1.74,11l-6.63.77c.37-1.7.7-3.36,1-5l.87-4.24c.3-1.48.53-2.74.7-3.78l-4.12.38c-.19,1.07-.43,2.32-.7,3.74s-.51,2.76-.74,4l-.93,4.58Z"/><path class="cls-10" d="M401.83,33.48c-1,.06-2,.15-3,.26s-2,.26-2.9.44a22.24,22.24,0,0,0-2.57.66c.17-1.27.36-2.69.59-4.24s.49-3.17.79-4.84.59-3.36.89-5.06.6-3.32.91-4.88q1.07-5.57,2.25-11.34l7.43-1q-1.14,4.92-2.21,9.59-.46,2-.93,4.14c-.31,1.43-.61,2.83-.89,4.19s-.54,2.67-.77,3.94-.41,2.41-.55,3.4c.71-.05,1.47-.09,2.27-.1l2.15,0c0,.54.07,1.07.13,1.6s.12,1,.19,1.42.12.8.17,1.12a6.05,6.05,0,0,0,.1.66c-.22,0-.44,0-.66,0l-.65,0C403.73,33.4,402.8,33.43,401.83,33.48Z"/><path class="cls-11" d="M163.29,28.58a10.46,10.46,0,0,1-2.46,3.33,10.91,10.91,0,0,1-3.66,2.17,13.12,13.12,0,0,1-4.52.76,7.14,7.14,0,0,1-3.4-.91A10.72,10.72,0,0,1,146,31l3.14-6.15A4.73,4.73,0,0,0,150,26a6.41,6.41,0,0,0,1.34,1,9.9,9.9,0,0,0,1.48.7,4,4,0,0,0,1.34.28,3.65,3.65,0,0,0,2.08-.68,2.76,2.76,0,0,0,.74-.79,1.88,1.88,0,0,0,.28-1,3.06,3.06,0,0,0-.66-1.89A9.78,9.78,0,0,0,155,21.91c-.66-.52-1.36-1.05-2.13-1.59a19.94,19.94,0,0,1-2.1-1.7,9.4,9.4,0,0,1-1.63-2,4.56,4.56,0,0,1-.68-2.46,7.15,7.15,0,0,1,1.31-4.12,13,13,0,0,1,3.29-3.29,17.67,17.67,0,0,1,4.31-2.19,13.52,13.52,0,0,1,4.42-.81A8.07,8.07,0,0,1,164,4a4.65,4.65,0,0,1,1.76.89,4.62,4.62,0,0,1,1.19,1.55,5.5,5.5,0,0,1,.44,2.33,6.75,6.75,0,0,1-.1,1.19c-.08.4-.14.83-.19,1.28l-6.16,1.78c.05-.22.11-.45.15-.68a3.82,3.82,0,0,0,.06-.68,3.05,3.05,0,0,0-.44-1.84,1.4,1.4,0,0,0-1.17-.58,1.86,1.86,0,0,0-.83.26,5.62,5.62,0,0,0-1,.66,3.81,3.81,0,0,0-.83,1,2.28,2.28,0,0,0-.34,1.19,2.56,2.56,0,0,0,.58,1.7,7.08,7.08,0,0,0,1.42,1.27c.57.4,1.18.8,1.85,1.21a8,8,0,0,1,1.84,1.59,8.36,8.36,0,0,1,1.43,2.44,10.39,10.39,0,0,1,.57,3.72A9.93,9.93,0,0,1,163.29,28.58Z"/><path class="cls-11" d="M167.77,34.8q1.28-5.73,2.42-11.21c.31-1.53.63-3.14,1-4.84s.67-3.37,1-5,.61-3.23.89-4.76.53-2.93.72-4.2c.82-.25,1.63-.47,2.42-.66s1.61-.34,2.45-.49A14.22,14.22,0,0,1,181,3.42a7.17,7.17,0,0,1,3.21.64,5.73,5.73,0,0,1,2.1,1.72,6.74,6.74,0,0,1,1.15,2.53,13.82,13.82,0,0,1,.34,3.1A12.59,12.59,0,0,1,186.9,16a14.07,14.07,0,0,1-2.34,3.93,11.84,11.84,0,0,1-3.36,2.74,8.1,8.1,0,0,1-3.92,1h-.47c-.23,1-.44,2-.64,3.14s-.36,2.18-.51,3.14c-.19,1.13-.38,2.26-.55,3.4Zm10.91-20.93q-.47,2.51-1,5.35a3.78,3.78,0,0,0,1.42-.79,6.73,6.73,0,0,0,1.38-1.61,8.7,8.7,0,0,0,1-2.31,9.71,9.71,0,0,0,.38-2.77,3.51,3.51,0,0,0-.7-2.37,2,2,0,0,0-1.55-.81Q179.15,11.36,178.68,13.87Z"/><path class="cls-11" d="M193.94,34c-.75.08-1.52.16-2.31.26l-2.14.28a7.26,7.26,0,0,0-1.05.17c.29-1.22.58-2.57.88-4.06s.6-3,.91-4.67.61-3.28.89-4.95l.81-4.84q.88-5.43,1.78-11.16L200.33,4q-1,5.7-1.91,11.17L197.64,20c-.27,1.67-.54,3.33-.81,5s-.52,3.23-.74,4.78-.44,2.93-.64,4.18C195.2,33.91,194.69,33.94,193.94,34Z"/><path class="cls-11" d="M201.4,34.8,207,4.61l13.41-1.14c-.19.62-.36,1.25-.5,1.91s-.28,1.09-.41,1.67-.23,1.1-.32,1.55c-.28,0-.68.05-1.21.07l-1.67,0-1.81,0h-1.59l-1.49,7.6c.88-.06,1.7-.1,2.47-.13.62,0,1.25,0,1.91,0s1.13,0,1.44,0c-.11.79-.22,1.57-.32,2.33s-.22,1.55-.36,2.34q-.42,0-1.38.06l-1.93.07-2.42.08-1.45,7.81,6.2-1-.42,4.84Z"/><path class="cls-11" d="M228.72,33.48c-1,.06-2,.15-2.95.26s-2,.26-2.91.44a22.24,22.24,0,0,0-2.57.66c.17-1.27.37-2.69.59-4.24s.49-3.17.79-4.84.59-3.36.89-5.06.6-3.32.91-4.88q1.07-5.57,2.25-11.34l7.44-1Q232,8.43,231,13.1c-.32,1.33-.63,2.71-.94,4.14s-.61,2.83-.89,4.19-.54,2.67-.76,3.94-.41,2.41-.56,3.4c.71-.05,1.47-.09,2.28-.1l2.14,0c0,.54.07,1.07.13,1.6s.12,1,.19,1.42.13.8.17,1.12a5.34,5.34,0,0,0,.11.66c-.23,0-.45,0-.66,0l-.66,0C230.62,33.4,229.69,33.43,228.72,33.48Z"/><path class="cls-11" d="M237.19,34.8l5.56-30.19,13.42-1.14a19.09,19.09,0,0,0-.51,1.91c-.14.53-.28,1.09-.41,1.67s-.23,1.1-.31,1.55c-.29,0-.69.05-1.21.07l-1.68,0-1.81,0h-1.59l-1.48,7.6c.87-.06,1.69-.1,2.46-.13s1.26,0,1.91,0,1.13,0,1.44,0c-.11.79-.22,1.57-.32,2.33s-.22,1.55-.36,2.34q-.42,0-1.38.06l-1.93.07-2.42.08-1.44,7.81,6.2-1-.43,4.84Z"/><path class="cls-11" d="M255.74,34.8q1.15-5.64,2.21-11c.25-1.53.54-3.12.85-4.78s.6-3.29.87-4.92.52-3.2.76-4.71.44-2.9.58-4.14a29.85,29.85,0,0,1,5.22-1.13,43.6,43.6,0,0,1,5.56-.36,8.45,8.45,0,0,1,2.74.38,4.09,4.09,0,0,1,1.7,1.08,4.12,4.12,0,0,1,.87,1.64,7.91,7.91,0,0,1,.25,2.08,9.59,9.59,0,0,1-.59,3.33,14.2,14.2,0,0,1-1.59,3.1A16.3,16.3,0,0,1,272.88,18a12.76,12.76,0,0,1-2.79,2c.51,1.13,1.06,2.37,1.64,3.72s1.12,2.62,1.63,3.84c.57,1.42,1.15,2.83,1.74,4.25l-6.58,2.29q-.84-2.71-1.52-5.1-.3-1-.6-2c-.2-.7-.38-1.35-.55-2s-.31-1.18-.43-1.67a10.44,10.44,0,0,1-.21-1.22l-.55.17c-.17.91-.38,2-.62,3.19s-.46,2.39-.65,3.52c-.26,1.33-.51,2.68-.77,4Zm10-18.43a5.74,5.74,0,0,0,2-.68,13.45,13.45,0,0,0,2.22-1.42,12.14,12.14,0,0,0,1.83-1.72,2.57,2.57,0,0,0,.76-1.57,1,1,0,0,0-.29-.74,2,2,0,0,0-.83-.43,5.84,5.84,0,0,0-1.17-.19c-.42,0-.86,0-1.31,0l-1,0c-.33,0-.62,0-.87,0Z"/><path class="cls-11" d="M292,34.29l-2.29.38c.11-.93.22-1.85.34-2.76s.16-1.58.23-2.37.13-1.48.19-2h-3.69L285,33.61c-.62.09-1.36.18-2.21.28l-2.38.27-2.67.34,3.35-11.12q.67-2.29,1.43-4.8c.49-1.67,1-3.33,1.48-5s1-3.25,1.42-4.78.85-2.93,1.19-4.2q2.89-.21,5.88-.51t5.84-.8c-.08.9-.18,2-.27,3.37s-.19,2.81-.28,4.4-.17,3.24-.25,5-.17,3.43-.26,5.1q-.21,5.86-.47,12.44c-.85.14-1.69.25-2.54.34Zm-4.2-11c.11,0,.32,0,.61,0l.94,0,.91,0a3.76,3.76,0,0,0,.59-.07,7.94,7.94,0,0,1,.07-.87c0-.41.08-.88.12-1.4s.1-1.1.15-1.72.12-1.23.17-1.83c.12-1.44.26-3,.43-4.67L292,8.9l-.63,0-1,3.65Z"/><path class="cls-11" d="M301.51,35c.85-4.08,1.66-8,2.42-11.85.29-1.64.59-3.34.92-5.09s.63-3.49.91-5.2.54-3.36.76-4.93.4-3,.51-4.27c.37,0,.68.05.94.05h.89l1.44,0,1.7-.07,1.83-.08c.39,2,.75,3.89,1.06,5.73.31,1.61.63,3.27.95,5s.62,3.14.87,4.33c.12-.57.24-1.23.39-2s.29-1.53.46-2.35.34-1.65.49-2.49.32-1.66.49-2.48q.6-2.76,1.23-5.69L325,2.91q-1.44,6.5-2.55,12.32c-.33,1.67-.67,3.36-1,5.07s-.63,3.35-.92,4.93-.52,3-.72,4.37-.35,2.47-.47,3.37c-.08,0-.41.07-1,.2l-2,.44-2.25.51a13.46,13.46,0,0,0-1.68.47q-.25-3.41-.55-6.46c-.08-.87-.17-1.77-.27-2.69s-.21-1.81-.32-2.66-.23-1.64-.34-2.37-.23-1.38-.34-1.91c-.09.53-.2,1.16-.34,1.86s-.29,1.46-.43,2.25-.28,1.63-.42,2.49-.3,1.69-.47,2.48c-.37,1.9-.76,3.88-1.19,6Z"/><path class="cls-11" d="M341.43,33.1l-2.91.13-3.63.21-3.82.28c-1.25.1-2.4.2-3.46.32s-1.91.22-2.53.34l0-6.2,12.06-16.44a19.39,19.39,0,0,0-2,.15l-2.65.32c-.89.12-1.66.23-2.32.34l-1,.09L330,6l17.37-1.23-1.11,5.86L334.63,27.07c.57,0,1.33,0,2.27-.08l3-.17,3.32-.21L343,33.06Z"/><path class="cls-11" d="M360.58,34.29l-2.3.38c.12-.93.23-1.85.34-2.76s.17-1.58.24-2.37.13-1.48.19-2h-3.7l-1.69,6.11c-.63.09-1.36.18-2.21.28l-2.38.27-2.68.34c1.14-3.76,2.25-7.47,3.36-11.12q.67-2.29,1.42-4.8t1.49-5c.49-1.65,1-3.25,1.42-4.78s.85-2.93,1.19-4.2q2.88-.21,5.88-.51T367,3.3c-.09.9-.18,2-.28,3.37s-.19,2.81-.28,4.4-.17,3.24-.25,5-.17,3.43-.25,5.1q-.23,5.86-.47,12.44c-.85.14-1.7.25-2.55.34Zm-4.21-11c.12,0,.32,0,.62,0l.93,0,.91,0a3.76,3.76,0,0,0,.6-.07q0-.25.06-.87c.05-.41.09-.88.13-1.4s.09-1.1.15-1.72.11-1.23.17-1.83c.11-1.44.25-3,.42-4.67l.26-3.69-.64,0-1,3.65Z"/><path class="cls-11" d="M370.26,34.84q1.19-5.94,2.29-11.59c.28-1.61.58-3.29.89-5s.6-3.46.87-5.16.52-3.35.77-5,.43-3,.57-4.35l1.8.11c.56,0,1.1.08,1.64.1l1.63.07,1.81,0c-.48,2-1,4-1.42,6s-.9,4-1.3,6.07l4.2-.47c.4-2,.75-3.95,1.07-5.83S385.8,6,386.31,4c.65-.12,1.37-.21,2.16-.28l2.21-.19,2.42-.21c-.4,1.27-.77,2.67-1.12,4.18s-.71,3.09-1.05,4.71-.66,3.28-1,4.95-.6,3.25-.85,4.76q-.93,5.39-1.74,11l-6.63.77c.37-1.7.7-3.36,1-5l.87-4.24c.3-1.48.53-2.74.7-3.78l-4.12.38c-.19,1.07-.43,2.32-.7,3.74s-.51,2.76-.74,4l-.93,4.58Z"/><path class="cls-11" d="M401.83,33.48c-1,.06-2,.15-3,.26s-2,.26-2.9.44a22.24,22.24,0,0,0-2.57.66c.17-1.27.36-2.69.59-4.24s.49-3.17.79-4.84.59-3.36.89-5.06.6-3.32.91-4.88q1.07-5.57,2.25-11.34l7.43-1q-1.14,4.92-2.21,9.59-.46,2-.93,4.14c-.31,1.43-.61,2.83-.89,4.19s-.54,2.67-.77,3.94-.41,2.41-.55,3.4c.71-.05,1.47-.09,2.27-.1l2.15,0c0,.54.07,1.07.13,1.6s.12,1,.19,1.42.12.8.17,1.12a6.05,6.05,0,0,0,.1.66c-.22,0-.44,0-.66,0l-.65,0C403.73,33.4,402.8,33.43,401.83,33.48Z"/><path class="cls-12" d="M89.1,24.49c0,6.25-2.07,11.32-4.63,11.32s-4.62-5.07-4.62-11.32,2.07-11.31,4.62-11.31S89.1,18.25,89.1,24.49Z"/><path class="cls-12" d="M95.83,32c-3.65,5.07-8.29,8-10.37,6.48s-.79-6.81,2.87-11.88,8.29-8,10.36-6.48S99.48,27,95.83,32Z"/><path class="cls-12" d="M73.12,32c3.65,5.07,8.29,8,10.36,6.48s.79-6.81-2.86-11.88-8.29-8-10.37-6.48S69.46,27,73.12,32Z"/><g class="cls-13"><rect class="cls-14" x="101.09" y="31.78" width="48.81" height="37.82"/><path class="cls-14" d="M145.87,36.39c1.56,3-4.92,9.47-14.47,14.33S112.84,57,111.29,54s4.93-9.47,14.48-14.33S144.32,33.33,145.87,36.39Z"/><path class="cls-15" d="M145.66,36.5c1.53,3-4.87,9.35-14.3,14.15S113,56.88,111.51,53.87s4.86-9.35,14.29-14.15S144.12,33.48,145.66,36.5Z"/><path class="cls-16" d="M145.44,36.61c1.52,3-4.8,9.23-14.11,14s-18.09,6.16-19.61,3.18,4.81-9.23,14.12-14S143.93,33.63,145.44,36.61Z"/><path class="cls-17" d="M145.23,36.72c1.49,2.94-4.75,9.11-13.94,13.79s-17.85,6.08-19.35,3.14,4.74-9.12,13.93-13.79S143.73,33.78,145.23,36.72Z"/><path class="cls-18" d="M145,36.83c1.48,2.9-4.68,9-13.75,13.61s-17.63,6-19.11,3.1,4.69-9,13.76-13.61S143.53,33.92,145,36.83Z"/><path class="cls-19" d="M144.79,36.94c1.46,2.86-4.62,8.88-13.57,13.43s-17.39,5.92-18.85,3.06S117,44.55,126,40,143.34,34.07,144.79,36.94Z"/><path class="cls-20" d="M144.58,37.05c1.43,2.82-4.56,8.76-13.4,13.25s-17.16,5.84-18.59,3,4.56-8.76,13.39-13.26S143.14,34.22,144.58,37.05Z"/><path class="cls-21" d="M144.36,37.16c1.42,2.79-4.5,8.64-13.21,13.07s-16.93,5.77-18.35,3,4.5-8.64,13.21-13.08S142.94,34.37,144.36,37.16Z"/><path class="cls-22" d="M144.14,37.27c1.4,2.75-4.43,8.52-13,12.89S114.42,55.85,113,53.1s4.43-8.52,13-12.9S142.75,34.52,144.14,37.27Z"/><path class="cls-23" d="M143.93,37.38c1.38,2.71-4.37,8.4-12.85,12.71S114.61,55.7,113.23,53s4.38-8.41,12.85-12.72S142.55,34.66,143.93,37.38Z"/><path class="cls-24" d="M143.71,37.49C145.07,40.16,139.4,45.77,131,50s-16.23,5.53-17.59,2.86,4.31-8.29,12.67-12.54S142.35,34.81,143.71,37.49Z"/><path class="cls-25" d="M143.5,37.6c1.34,2.63-4.25,8.17-12.49,12.36s-16,5.44-17.34,2.81,4.25-8.17,12.49-12.36S142.16,35,143.5,37.6Z"/><path class="cls-26" d="M143.28,37.71c1.32,2.59-4.19,8-12.31,12.18s-15.77,5.37-17.09,2.77,4.19-8,12.31-12.18S142,35.11,143.28,37.71Z"/><path class="cls-27" d="M143.06,37.82c1.31,2.55-4.12,7.93-12.12,12s-15.54,5.29-16.84,2.73,4.13-7.93,12.13-12S141.76,35.26,143.06,37.82Z"/><path class="cls-28" d="M142.85,37.93c1.28,2.52-4.07,7.81-11.95,11.82S115.6,55,114.31,52.44s4.07-7.81,12-11.82S141.57,35.41,142.85,37.93Z"/><path class="cls-29" d="M142.63,38c1.27,2.48-4,7.69-11.76,11.64s-15.07,5.13-16.34,2.65,4-7.69,11.77-11.64S141.37,35.56,142.63,38Z"/><path class="cls-30" d="M142.42,38.15c1.24,2.44-3.95,7.57-11.59,11.46s-14.84,5-16.08,2.61,3.94-7.58,11.58-11.46S141.17,35.7,142.42,38.15Z"/><path class="cls-31" d="M142.2,38.26c1.22,2.4-3.88,7.45-11.4,11.28s-14.61,5-15.83,2.57,3.88-7.46,11.4-11.28S141,35.85,142.2,38.26Z"/><path class="cls-32" d="M142,38.37c1.21,2.36-3.82,7.34-11.22,11.1s-14.37,4.9-15.58,2.53S119,44.66,126.4,40.9,140.78,36,142,38.37Z"/><path class="cls-33" d="M141.77,38.48c1.18,2.33-3.76,7.22-11,10.92s-14.15,4.82-15.33,2.49,3.75-7.22,11-10.93S140.58,36.15,141.77,38.48Z"/><path class="cls-34" d="M141.55,38.58c1.17,2.3-3.69,7.11-10.86,10.75s-13.91,4.74-15.08,2.45,3.7-7.1,10.86-10.75S140.39,36.29,141.55,38.58Z"/><path class="cls-35" d="M141.33,38.7c1.15,2.25-3.63,7-10.67,10.56S117,53.92,115.83,51.67s3.63-7,10.68-10.57S140.19,36.44,141.33,38.7Z"/><path class="cls-36" d="M141.12,38.81c1.12,2.21-3.57,6.86-10.5,10.38s-13.45,4.58-14.57,2.37,3.57-6.87,10.49-10.39S140,36.59,141.12,38.81Z"/><path class="cls-37" d="M140.9,38.92c1.11,2.17-3.51,6.74-10.31,10.2s-13.22,4.51-14.33,2.33,3.51-6.75,10.32-10.21S139.79,36.74,140.9,38.92Z"/><path class="cls-38" d="M140.69,39c1.08,2.13-3.45,6.62-10.14,10s-13,4.42-14.07,2.28,3.45-6.63,10.13-10S139.6,36.89,140.69,39Z"/><path class="cls-39" d="M140.47,39.14c1.07,2.1-3.39,6.51-9.95,9.85s-12.76,4.34-13.83,2.24,3.39-6.51,10-9.85S139.4,37,140.47,39.14Z"/><path class="cls-40" d="M140.25,39.24c1.05,2.07-3.32,6.4-9.77,9.68s-12.52,4.26-13.57,2.2,3.33-6.39,9.77-9.67S139.2,37.18,140.25,39.24Z"/><path class="cls-41" d="M140,39.36c1,2-3.27,6.27-9.59,9.49S118.15,53,117.13,51s3.26-6.27,9.59-9.49S139,37.33,140,39.36Z"/><path class="cls-42" d="M139.82,39.47c1,2-3.2,6.15-9.41,9.31s-12.06,4.11-13.07,2.12,3.21-6.16,9.41-9.31S138.81,37.48,139.82,39.47Z"/><path class="cls-43" d="M139.61,39.58c1,1.94-3.15,6-9.23,9.13s-11.83,4-12.82,2.08,3.14-6,9.23-9.13S138.61,37.63,139.61,39.58Z"/><path class="cls-44" d="M139.39,39.69c1,1.91-3.08,5.91-9,9s-11.59,4-12.57,2,3.08-5.92,9-9S138.42,37.78,139.39,39.69Z"/><path class="cls-45" d="M139.17,39.79c1,1.88-3,5.81-8.86,8.78s-11.37,3.87-12.32,2,3-5.8,8.87-8.78S138.22,37.92,139.17,39.79Z"/><path class="cls-46" d="M139,39.91c.93,1.83-3,5.68-8.69,8.59s-11.13,3.79-12.06,2,3-5.68,8.68-8.6S138,38.07,139,39.91Z"/><path class="cls-47" d="M138.74,40c.91,1.79-2.9,5.56-8.5,8.41s-10.9,3.71-11.82,1.92,2.9-5.56,8.51-8.42S137.83,38.22,138.74,40Z"/><path class="cls-48" d="M138.53,40.13c.89,1.75-2.84,5.44-8.33,8.23S119.53,52,118.64,50.24,121.47,44.8,127,42,137.63,38.37,138.53,40.13Z"/><path class="cls-49" d="M138.31,40.24c.87,1.71-2.77,5.32-8.15,8.06s-10.43,3.55-11.3,1.83,2.77-5.33,8.14-8.06S137.43,38.52,138.31,40.24Z"/><path class="cls-50" d="M138.09,40.35c.86,1.68-2.71,5.2-8,7.88S119.93,51.7,119.07,50s2.71-5.21,8-7.88S137.24,38.66,138.09,40.35Z"/><path class="cls-51" d="M137.88,40.45c.83,1.65-2.65,5.1-7.79,7.71s-10,3.39-10.8,1.75,2.65-5.09,7.78-7.7S137,38.81,137.88,40.45Z"/><path class="cls-52" d="M137.66,40.56c.82,1.61-2.59,5-7.6,7.53s-9.74,3.31-10.56,1.71,2.59-5,7.61-7.52S136.85,39,137.66,40.56Z"/><path class="cls-53" d="M137.44,40.68c.8,1.56-2.52,4.85-7.42,7.34s-9.5,3.24-10.3,1.67,2.53-4.85,7.42-7.34S136.65,39.11,137.44,40.68Z"/><path class="cls-54" d="M137.23,40.78c.77,1.53-2.46,4.74-7.24,7.17s-9.28,3.16-10.05,1.63,2.46-4.73,7.24-7.16S136.45,39.26,137.23,40.78Z"/><path class="cls-55" d="M137,40.9c.76,1.48-2.4,4.61-7.06,7s-9,3.08-9.8,1.59,2.4-4.62,7.06-7S136.25,39.41,137,40.9Z"/><path class="cls-56" d="M136.79,41c.74,1.46-2.34,4.5-6.87,6.81s-8.82,3-9.55,1.55,2.34-4.5,6.88-6.8S136.06,39.55,136.79,41Z"/><path class="cls-57" d="M136.58,41.11c.72,1.42-2.28,4.38-6.7,6.63s-8.58,2.92-9.3,1.51,2.28-4.38,6.7-6.63S135.86,39.7,136.58,41.11Z"/><path class="cls-58" d="M136.36,41.22c.7,1.38-2.21,4.27-6.51,6.45s-8.35,2.85-9,1.47,2.22-4.26,6.52-6.45S135.66,39.85,136.36,41.22Z"/><path class="cls-59" d="M136.15,41.33c.68,1.34-2.16,4.15-6.34,6.27S121.7,50.37,121,49s2.15-4.14,6.33-6.27S135.47,40,136.15,41.33Z"/><path class="cls-60" d="M135.93,41.44c.66,1.3-2.09,4-6.15,6.09s-7.89,2.69-8.55,1.39,2.1-4,6.16-6.09S135.27,40.15,135.93,41.44Z"/><path class="cls-61" d="M135.71,41.56c.65,1.26-2,3.9-6,5.91s-7.65,2.6-8.29,1.34,2-3.91,6-5.91S135.07,40.29,135.71,41.56Z"/><path class="cls-62" d="M135.5,41.66c.62,1.23-2,3.79-5.79,5.74s-7.42,2.52-8,1.3,2-3.79,5.79-5.73S134.88,40.44,135.5,41.66Z"/><path class="cls-63" d="M135.28,41.77c.6,1.19-1.91,3.67-5.61,5.56s-7.19,2.44-7.79,1.26,1.91-3.67,5.61-5.55S134.68,40.59,135.28,41.77Z"/><path class="cls-64" d="M135.07,41.88c.58,1.15-1.85,3.56-5.43,5.38s-7,2.37-7.54,1.22,1.85-3.55,5.43-5.37S134.48,40.74,135.07,41.88Z"/><path class="cls-65" d="M134.85,42c.56,1.11-1.79,3.44-5.25,5.2s-6.72,2.29-7.29,1.18,1.79-3.43,5.25-5.19S134.29,40.89,134.85,42Z"/><path class="cls-66" d="M134.63,42.11c.55,1.06-1.72,3.31-5.06,5s-6.5,2.21-7,1.14,1.73-3.31,5.07-5S134.09,41,134.63,42.11Z"/><path class="cls-67" d="M134.42,42.22c.52,1-1.66,3.19-4.89,4.83s-6.26,2.13-6.78,1.1,1.66-3.2,4.88-4.83S133.89,41.18,134.42,42.22Z"/><path class="cls-68" d="M134.2,42.32c.51,1-1.6,3.08-4.7,4.66S123.47,49,123,48s1.6-3.08,4.71-4.66S133.7,41.33,134.2,42.32Z"/><path class="cls-69" d="M134,42.43c.48,1-1.54,3-4.53,4.48s-5.8,2-6.28,1,1.54-3,4.52-4.48S133.5,41.48,134,42.43Z"/><path class="cls-69" d="M133.77,42.54c.47.92-1.48,2.85-4.34,4.3s-5.57,1.9-6,1,1.48-2.84,4.35-4.3S133.3,41.63,133.77,42.54Z"/><path class="cls-70" d="M133.55,42.65c.45.88-1.41,2.73-4.16,4.12s-5.33,1.82-5.78.94S125,45,127.77,43.59,133.11,41.77,133.55,42.65Z"/><path class="cls-71" d="M133.34,42.76c.43.84-1.36,2.61-4,3.94s-5.11,1.74-5.53.9,1.35-2.6,4-3.94S132.91,41.92,133.34,42.76Z"/><path class="cls-72" d="M133.12,42.87c.41.81-1.29,2.49-3.8,3.77s-4.87,1.65-5.28.85,1.3-2.48,3.8-3.76S132.71,42.07,133.12,42.87Z"/><path class="cls-73" d="M132.9,43c.39.77-1.23,2.37-3.61,3.59s-4.64,1.57-5,.81,1.23-2.37,3.62-3.58S132.52,42.22,132.9,43Z"/><path class="cls-73" d="M132.69,43.09c.37.73-1.17,2.25-3.44,3.41s-4.41,1.5-4.78.77,1.18-2.25,3.44-3.4S132.32,42.37,132.69,43.09Z"/><path class="cls-74" d="M132.47,43.2c.35.69-1.11,2.13-3.26,3.23s-4.17,1.42-4.52.73S125.8,45,128,43.94,132.12,42.52,132.47,43.2Z"/><path class="cls-75" d="M132.26,43.31c.33.65-1,2-3.08,3s-3.94,1.34-4.27.69,1-2,3.07-3S131.93,42.66,132.26,43.31Z"/><path class="cls-76" d="M132,43.42c.31.61-1,1.9-2.89,2.87s-3.72,1.26-4,.65,1-1.89,2.9-2.86S131.73,42.81,132,43.42Z"/><path class="cls-77" d="M131.82,43.53c.3.58-.92,1.78-2.71,2.69s-3.48,1.18-3.77.61.92-1.77,2.71-2.69S131.53,43,131.82,43.53Z"/><path class="cls-78" d="M131.61,43.64c.27.54-.86,1.66-2.53,2.51s-3.25,1.11-3.53.57.87-1.66,2.54-2.5S131.34,43.11,131.61,43.64Z"/><path class="cls-78" d="M131.39,43.75c.25.5-.8,1.54-2.35,2.33s-3,1-3.27.53.8-1.54,2.36-2.33S131.14,43.26,131.39,43.75Z"/><path class="cls-79" d="M131.18,43.86c.23.46-.74,1.42-2.18,2.15s-2.78,1-3,.49.74-1.42,2.17-2.15S130.94,43.4,131.18,43.86Z"/><path class="cls-80" d="M131,44c.21.42-.68,1.31-2,2s-2.55.87-2.76.45.67-1.3,2-2S130.75,43.55,131,44Z"/><path class="cls-81" d="M130.74,44.08c.2.39-.61,1.19-1.81,1.79s-2.32.79-2.51.41.62-1.18,1.81-1.79S130.55,43.7,130.74,44.08Z"/><path class="cls-81" d="M130.53,44.19c.17.35-.56,1.07-1.63,1.62s-2.09.71-2.26.36.55-1.06,1.63-1.61S130.35,43.85,130.53,44.19Z"/><path class="cls-82" d="M130.31,44.3c.16.31-.49,1-1.45,1.44s-1.85.63-2,.32.5-1,1.45-1.43S130.16,44,130.31,44.3Z"/><path class="cls-81" d="M130.1,44.41c.13.27-.44.83-1.27,1.26s-1.62.55-1.76.28.43-.83,1.27-1.25S130,44.15,130.1,44.41Z"/><path class="cls-83" d="M129.88,44.52c.12.23-.37.71-1.09,1.08s-1.39.47-1.5.24.37-.71,1.08-1.07S129.76,44.29,129.88,44.52Z"/><path class="cls-84" d="M129.66,44.63c.1.19-.31.59-.9.9s-1.16.39-1.26.2.31-.59.91-.89S129.57,44.44,129.66,44.63Z"/><path class="cls-79" d="M129.45,44.74c.07.16-.25.48-.73.72s-.93.31-1,.16.24-.47.72-.71S129.37,44.59,129.45,44.74Z"/><path class="cls-79" d="M129.23,44.85c.06.12-.18.36-.54.54s-.7.24-.76.12.19-.35.55-.53S129.17,44.74,129.23,44.85Z"/><path class="cls-79" d="M129,45c0,.08-.12.24-.36.36s-.46.16-.5.08.12-.24.36-.36S129,44.89,129,45Z"/><path class="cls-79" d="M128.8,45.07s-.06.12-.18.18-.23.08-.25,0,.06-.12.18-.18S128.78,45,128.8,45.07Z"/></g><path class="cls-1" d="M146.72,36.55c3.18,4.77-3.74,15-15.47,22.78s-23.8,10.27-27,5.5,3.75-15,15.47-22.78S143.55,31.78,146.72,36.55Z"/><path class="cls-85" d="M143.57,37.28c1.92,2.89-2.27,9.07-9.37,13.8s-14.42,6.22-16.35,3.33,2.28-9.07,9.37-13.8S141.64,34.39,143.57,37.28Z"/><path class="cls-86" d="M120.41,41.66l-.67.43c-1.4.93-2.72,1.9-4,2.88a110.28,110.28,0,0,1,11.48,16.86c1.33-.75,2.67-1.57,4-2.45l.87-.59A121.8,121.8,0,0,0,120.41,41.66Z"/><path class="cls-86" d="M131.28,59.36l.84-.57a121.8,121.8,0,0,0-11.71-17.13l-.67.43-.18.13A125.5,125.5,0,0,1,131.28,59.36Z"/><g class="cls-87"><rect class="cls-14" x="19.05" y="31.78" width="48.81" height="37.82"/><path class="cls-14" d="M58.5,55.05c-1.88,3.52-11.09,2.28-20.59-2.78s-15.68-12-13.8-15.52S35.2,34.47,44.7,39.52,60.37,51.52,58.5,55.05Z"/><path class="cls-15" d="M58.28,54.93c-1.85,3.48-11,2.25-20.33-2.74S22.47,40.34,24.32,36.87s11-2.26,20.33,2.73S60.13,51.45,58.28,54.93Z"/><path class="cls-16" d="M58.07,54.82C56.24,58.25,47.25,57,38,52.12S22.71,40.41,24.54,37s10.81-2.22,20.07,2.7S59.89,51.38,58.07,54.82Z"/><path class="cls-17" d="M57.85,54.7C56.05,58.09,47.18,56.9,38,52S23,40.48,24.75,37.09s10.68-2.19,19.82,2.67S59.66,51.31,57.85,54.7Z"/><path class="cls-18" d="M57.64,54.59C55.86,57.93,47.1,56.76,38.08,52S23.19,40.56,25,37.21,35.5,35,44.52,39.84,59.42,51.24,57.64,54.59Z"/><path class="cls-19" d="M57.42,54.47c-1.76,3.3-10.4,2.14-19.3-2.59S23.43,40.63,25.18,37.32s10.4-2.13,19.3,2.6S59.18,51.17,57.42,54.47Z"/><path class="cls-20" d="M57.21,54.36C55.47,57.62,47,56.47,38.16,51.8S23.67,40.7,25.4,37.44s10.26-2.11,19,2.56S58.94,51.1,57.21,54.36Z"/><path class="cls-21" d="M57,54.25c-1.71,3.21-10.12,2.08-18.78-2.53S23.9,40.77,25.61,37.55s10.12-2.08,18.79,2.53S58.7,51,57,54.25Z"/><path class="cls-22" d="M56.78,54.13c-1.69,3.17-10,2-18.53-2.49s-14.11-10.8-12.42-14,10-2.06,18.53,2.49S58.46,51,56.78,54.13Z"/><path class="cls-23" d="M56.56,54c-1.66,3.12-9.84,2-18.27-2.46S24.38,40.91,26,37.78s9.84-2,18.27,2.46S58.22,50.89,56.56,54Z"/><path class="cls-24" d="M56.35,53.9c-1.64,3.08-9.71,2-18-2.42S24.62,41,26.26,37.9s9.7-2,18,2.42S58,50.82,56.35,53.9Z"/><path class="cls-25" d="M56.13,53.79c-1.61,3-9.56,2-17.75-2.39S24.86,41.05,26.47,38,36,36,44.23,40.4,57.75,50.75,56.13,53.79Z"/><path class="cls-26" d="M55.92,53.67c-1.6,3-9.43,1.94-17.5-2.35s-13.33-10.2-11.73-13.2,9.42-1.93,17.5,2.36S57.51,50.68,55.92,53.67Z"/><path class="cls-27" d="M55.7,53.56c-1.57,2.95-9.29,1.91-17.24-2.32s-13.13-10.05-11.56-13,9.29-1.91,17.24,2.32S57.27,50.61,55.7,53.56Z"/><path class="cls-28" d="M55.49,53.44c-1.55,2.91-9.15,1.89-17-2.28s-12.93-9.9-11.38-12.81,9.15-1.88,17,2.29S57,50.54,55.49,53.44Z"/><path class="cls-29" d="M55.27,53.33c-1.52,2.86-9,1.85-16.73-2.25S25.81,41.33,27.33,38.47s9-1.86,16.73,2.25S56.79,50.47,55.27,53.33Z"/><path class="cls-30" d="M55.06,53.22C53.56,56,46.19,55,38.59,51s-12.54-9.6-11-12.42S36.42,36.76,44,40.8,56.56,50.4,55.06,53.22Z"/><path class="cls-31" d="M54.84,53.1c-1.47,2.78-8.73,1.8-16.21-2.18S26.29,41.47,27.76,38.7,36.49,36.9,44,40.88,56.32,50.33,54.84,53.1Z"/><path class="cls-32" d="M54.63,53c-1.45,2.73-8.6,1.77-16-2.15s-12.15-9.3-10.69-12S36.57,37,43.93,41,56.08,50.26,54.63,53Z"/><path class="cls-33" d="M54.41,52.87C53,55.56,46,54.61,38.72,50.76s-12-9.15-10.53-11.83,8.46-1.74,15.7,2.11S55.84,50.19,54.41,52.87Z"/><path class="cls-34" d="M54.2,52.76c-1.41,2.64-8.32,1.71-15.44-2.08S27,41.68,28.41,39s8.31-1.71,15.44,2.08S55.6,50.12,54.2,52.76Z"/><path class="cls-35" d="M54,52.64c-1.38,2.6-8.18,1.69-15.18-2S27.24,41.75,28.62,39.15s8.18-1.68,15.19,2.05S55.37,50.05,54,52.64Z"/><path class="cls-36" d="M53.77,52.53c-1.36,2.55-8,1.65-14.93-2s-11.36-8.7-10-11.25,8-1.66,14.92,2S55.13,50,53.77,52.53Z"/><path class="cls-37" d="M53.55,52.42c-1.33,2.51-7.9,1.62-14.67-2s-11.16-8.55-9.83-11.06,7.9-1.62,14.67,2S54.89,49.91,53.55,52.42Z"/><path class="cls-38" d="M53.34,52.3c-1.31,2.47-7.77,1.6-14.41-1.94S28,42,29.27,39.5,37,37.9,43.68,41.44,54.65,49.84,53.34,52.3Z"/><path class="cls-39" d="M53.12,52.19C51.84,54.61,45.5,53.76,39,50.28S28.19,42,29.48,39.61s7.63-1.57,14.15,1.9S54.41,49.77,53.12,52.19Z"/><path class="cls-40" d="M52.91,52.07c-1.27,2.38-7.49,1.54-13.9-1.87S28.43,42.1,29.7,39.72s7.48-1.53,13.89,1.88S54.17,49.7,52.91,52.07Z"/><path class="cls-41" d="M52.69,52c-1.24,2.33-7.34,1.51-13.64-1.84s-10.38-7.95-9.14-10.28,7.35-1.51,13.64,1.83S53.93,49.63,52.69,52Z"/><path class="cls-42" d="M52.48,51.85C51.26,54.13,45.27,53.33,39.1,50s-10.19-7.8-9-10.09,7.2-1.48,13.38,1.8S53.7,49.56,52.48,51.85Z"/><path class="cls-43" d="M52.26,51.73C51.07,54,45.19,53.18,39.14,50s-10-7.65-8.8-9.89,7.07-1.46,13.12,1.76S53.46,49.48,52.26,51.73Z"/><path class="cls-44" d="M52.05,51.61c-1.17,2.21-6.93,1.43-12.87-1.73s-9.8-7.5-8.62-9.7,6.93-1.42,12.86,1.73S53.22,49.42,52.05,51.61Z"/><path class="cls-45" d="M51.83,51.5c-1.15,2.16-6.79,1.4-12.6-1.7s-9.61-7.35-8.46-9.5S37.56,38.9,43.38,42,53,49.34,51.83,51.5Z"/><path class="cls-46" d="M51.62,51.39C50.49,53.5,45,52.76,39.27,49.72s-9.41-7.2-8.28-9.31S37.64,39,43.34,42.07,52.74,49.27,51.62,51.39Z"/><path class="cls-47" d="M51.4,51.27c-1.1,2.07-6.51,1.34-12.09-1.63s-9.21-7-8.11-9.11,6.52-1.34,12.09,1.62S52.5,49.2,51.4,51.27Z"/><path class="cls-48" d="M51.19,51.16c-1.08,2-6.38,1.31-11.84-1.6s-9-6.9-7.93-8.92,6.37-1.31,11.83,1.59S52.27,49.13,51.19,51.16Z"/><path class="cls-49" d="M51,51c-1,2-6.23,1.29-11.58-1.56s-8.81-6.75-7.76-8.73,6.24-1.28,11.58,1.56S52,49.06,51,51Z"/><path class="cls-50" d="M50.76,50.93c-1,1.94-6.1,1.25-11.32-1.52s-8.63-6.6-7.59-8.54,6.1-1.26,11.32,1.52S51.79,49,50.76,50.93Z"/><path class="cls-51" d="M50.55,50.82c-1,1.89-6,1.22-11.07-1.49S31.05,42.87,32.06,41s6-1.22,11.06,1.49S51.55,48.92,50.55,50.82Z"/><path class="cls-52" d="M50.33,50.7c-1,1.85-5.82,1.2-10.81-1.45S31.29,43,32.28,41.1s5.82-1.2,10.8,1.45S51.31,48.85,50.33,50.7Z"/><path class="cls-53" d="M50.11,50.59c-1,1.8-5.68,1.17-10.55-1.42s-8-6.15-7.07-8S38.17,40,43,42.63,51.07,48.78,50.11,50.59Z"/><path class="cls-54" d="M49.9,50.47c-.94,1.76-5.55,1.14-10.29-1.38s-7.84-6-6.91-7.76,5.55-1.14,10.3,1.38S50.83,48.71,49.9,50.47Z"/><path class="cls-55" d="M49.68,50.36c-.91,1.71-5.4,1.11-10-1.35S32,43.16,32.92,41.44s5.41-1.11,10,1.35S50.6,48.64,49.68,50.36Z"/><path class="cls-56" d="M49.47,50.24c-.89,1.68-5.27,1.09-9.78-1.31s-7.44-5.7-6.56-7.38,5.27-1.08,9.78,1.32S50.36,48.57,49.47,50.24Z"/><path class="cls-57" d="M49.25,50.13c-.86,1.63-5.13,1-9.52-1.28s-7.25-5.55-6.38-7.18,5.13-1.06,9.52,1.28S50.12,48.5,49.25,50.13Z"/><path class="cls-58" d="M49,50c-.84,1.59-5,1-9.26-1.24s-7.06-5.4-6.22-7,5-1,9.27,1.25S49.88,48.43,49,50Z"/><path class="cls-59" d="M48.82,49.9c-.81,1.54-4.85,1-9-1.21s-6.86-5.25-6-6.79,4.85-1,9,1.21S49.64,48.36,48.82,49.9Z"/><path class="cls-60" d="M48.61,49.79c-.8,1.49-4.71,1-8.75-1.18S33.2,43.51,34,42s4.72-1,8.75,1.18S49.41,48.29,48.61,49.79Z"/><path class="cls-61" d="M48.39,49.67c-.77,1.46-4.57.94-8.49-1.14s-6.46-5-5.69-6.4,4.57-.94,8.49,1.14S49.17,48.22,48.39,49.67Z"/><path class="cls-62" d="M48.18,49.56c-.75,1.41-4.44.91-8.24-1.11s-6.27-4.8-5.52-6.21,4.44-.91,8.24,1.11S48.93,48.15,48.18,49.56Z"/><path class="cls-63" d="M48,49.44c-.73,1.37-4.3.89-8-1.07s-6.08-4.65-5.35-6,4.3-.88,8,1.08S48.69,48.08,48,49.44Z"/><path class="cls-64" d="M47.75,49.33c-.7,1.32-4.16.85-7.72-1s-5.88-4.5-5.18-5.82,4.16-.86,7.72,1S48.45,48,47.75,49.33Z"/><path class="cls-65" d="M47.53,49.22c-.67,1.27-4,.82-7.46-1s-5.68-4.35-5-5.63,4-.82,7.46,1S48.21,47.94,47.53,49.22Z"/><path class="cls-66" d="M47.32,49.1c-.66,1.23-3.88.8-7.2-1s-5.49-4.2-4.84-5.43,3.89-.8,7.21,1S48,47.87,47.32,49.1Z"/><path class="cls-67" d="M47.1,49c-.63,1.18-3.74.77-6.94-.94s-5.29-4-4.66-5.24,3.74-.77,7,.94S47.74,47.8,47.1,49Z"/><path class="cls-68" d="M46.89,48.87c-.61,1.15-3.61.74-6.69-.9s-5.1-3.9-4.49-5,3.61-.74,6.69.9S47.5,47.73,46.89,48.87Z"/><path class="cls-69" d="M46.68,48.76c-.59,1.1-3.47.71-6.44-.87s-4.9-3.75-4.31-4.85,3.47-.71,6.43.87S47.26,47.66,46.68,48.76Z"/><path class="cls-69" d="M46.46,48.64c-.56,1.06-3.33.69-6.18-.83s-4.7-3.6-4.14-4.66,3.33-.68,6.18.84S47,47.59,46.46,48.64Z"/><path class="cls-70" d="M46.25,48.53c-.54,1-3.19.66-5.92-.8s-4.51-3.45-4-4.46,3.19-.66,5.92.8S46.78,47.52,46.25,48.53Z"/><path class="cls-71" d="M46,48.41c-.51,1-3.05.63-5.66-.76s-4.31-3.3-3.8-4.27,3-.62,5.67.76S46.54,47.45,46,48.41Z"/><path class="cls-72" d="M45.82,48.3c-.5.92-2.91.6-5.41-.73s-4.11-3.15-3.62-4.07,2.91-.6,5.4.72S46.31,47.37,45.82,48.3Z"/><path class="cls-73" d="M45.6,48.19c-.47.88-2.77.57-5.15-.7s-3.91-3-3.45-3.88,2.78-.57,5.15.69S46.07,47.31,45.6,48.19Z"/><path class="cls-73" d="M45.39,48.07c-.45.84-2.64.54-4.89-.66s-3.73-2.85-3.28-3.68,2.63-.54,4.89.65S45.83,47.24,45.39,48.07Z"/><path class="cls-74" d="M45.17,48c-.42.79-2.5.51-4.63-.63s-3.53-2.7-3.11-3.49,2.5-.51,4.64.62S45.59,47.16,45.17,48Z"/><path class="cls-75" d="M45,47.84c-.4.75-2.36.49-4.38-.59S37.25,44.7,37.65,44s2.35-.48,4.37.59S45.35,47.09,45,47.84Z"/><path class="cls-76" d="M44.74,47.73c-.37.7-2.22.46-4.12-.56s-3.13-2.4-2.76-3.1,2.22-.46,4.12.55S45.12,47,44.74,47.73Z"/><path class="cls-77" d="M44.52,47.61c-.35.66-2.07.43-3.85-.52s-2.94-2.25-2.59-2.91,2.08-.42,3.86.52S44.88,47,44.52,47.61Z"/><path class="cls-78" d="M44.31,47.5c-.33.62-1.94.4-3.6-.49S38,44.91,38.29,44.3s1.94-.4,3.61.48S44.64,46.88,44.31,47.5Z"/><path class="cls-78" d="M44.1,47.38c-.31.58-1.81.38-3.35-.44s-2.55-2-2.24-2.53,1.8-.37,3.34.45S44.4,46.81,44.1,47.38Z"/><path class="cls-79" d="M43.88,47.27c-.28.53-1.66.34-3.09-.42s-2.35-1.79-2.07-2.32,1.67-.34,3.09.41S44.16,46.74,43.88,47.27Z"/><path class="cls-80" d="M43.67,47.16c-.26.48-1.53.31-2.83-.38s-2.16-1.66-1.9-2.14,1.52-.31,2.83.38S43.92,46.67,43.67,47.16Z"/><path class="cls-81" d="M43.45,47c-.23.44-1.38.29-2.57-.34s-2-1.51-1.73-1.94,1.39-.29,2.58.34S43.69,46.6,43.45,47Z"/><path class="cls-81" d="M43.24,46.93c-.21.39-1.25.25-2.32-.31s-1.76-1.35-1.55-1.75,1.25-.26,2.31.31S43.45,46.53,43.24,46.93Z"/><path class="cls-82" d="M43,46.81c-.19.36-1.11.23-2.06-.27S39.4,45.34,39.58,45s1.11-.22,2.06.28S43.21,46.46,43,46.81Z"/><path class="cls-81" d="M42.81,46.7c-.17.31-1,.2-1.81-.24s-1.37-1.05-1.2-1.36,1-.2,1.8.24S43,46.39,42.81,46.7Z"/><path class="cls-83" d="M42.59,46.59c-.14.26-.83.17-1.54-.21s-1.18-.9-1-1.17.83-.17,1.55.21S42.73,46.32,42.59,46.59Z"/><path class="cls-84" d="M42.38,46.47c-.12.22-.7.14-1.29-.17s-1-.75-.86-1,.69-.15,1.29.17S42.49,46.25,42.38,46.47Z"/><path class="cls-79" d="M42.16,46.36c-.09.17-.55.11-1-.14s-.78-.6-.69-.78.56-.11,1,.14S42.25,46.18,42.16,46.36Z"/><path class="cls-79" d="M42,46.24c-.07.13-.42.09-.78-.1s-.58-.45-.51-.58.41-.09.77.1S42,46.11,42,46.24Z"/><path class="cls-79" d="M41.73,46.13c0,.09-.28,0-.51-.07s-.39-.3-.35-.39.28-.06.52.07S41.78,46,41.73,46.13Z"/><path class="cls-79" d="M41.52,46c0,.05-.14,0-.26,0s-.2-.15-.17-.2.14,0,.25,0S41.54,46,41.52,46Z"/></g><path class="cls-1" d="M22.22,36.55c-3.17,4.77,3.75,15,15.48,22.78s23.8,10.27,27,5.5-3.75-15-15.47-22.78S25.4,31.78,22.22,36.55Z"/><path class="cls-85" d="M25.38,37.28c-1.93,2.89,2.27,9.07,9.37,13.8s14.42,6.22,16.34,3.33-2.27-9.07-9.37-13.8S27.3,34.39,25.38,37.28Z"/><path class="cls-86" d="M48.54,41.66l.66.43c1.4.93,2.73,1.9,4,2.88A110.28,110.28,0,0,0,41.7,61.83c-1.33-.75-2.67-1.57-4-2.45-.3-.2-.59-.39-.87-.59A121.8,121.8,0,0,1,48.54,41.66Z"/><path class="cls-86" d="M37.67,59.36l-.84-.57A121.8,121.8,0,0,1,48.54,41.66l.66.43.19.13A125.5,125.5,0,0,0,37.67,59.36Z"/><path class="cls-12" d="M124.09,188.07a14.32,14.32,0,0,1-14.32,14.32h0a14.32,14.32,0,0,1-14.32-14.32V141a14.32,14.32,0,0,1,14.32-14.32h0A14.32,14.32,0,0,1,124.09,141Z"/><path class="cls-88" d="M105.88,200.39c-.85,2.36-2.73,3.84-4.2,3.31s-2-2.86-1.14-5.22,2.72-3.84,4.2-3.31S106.72,198,105.88,200.39Z"/><path class="cls-88" d="M119.65,198.48c-.85-2.36-2.73-3.84-4.2-3.31s-2,2.86-1.14,5.22,2.73,3.84,4.2,3.31S120.49,200.84,119.65,198.48Z"/><path class="cls-88" d="M112.93,201.09c0,2.5-1.27,4.53-2.84,4.53s-2.83-2-2.83-4.53,1.27-4.53,2.84-4.53S112.93,198.59,112.93,201.09Z"/><path class="cls-86" d="M120.35,194.06c0,3.7-4.78,6.7-10.67,6.7s-10.65-3-10.65-6.7,4.77-6.69,10.65-6.69S120.35,190.37,120.35,194.06Z"/><path class="cls-85" d="M120.35,189.86c0,3.7-4.78,6.7-10.67,6.7s-10.65-3-10.65-6.7,4.77-6.69,10.65-6.69S120.35,186.17,120.35,189.86Z"/><path class="cls-12" d="M76.13,188.07a14.32,14.32,0,0,1-14.32,14.32h0a14.33,14.33,0,0,1-14.33-14.32V141a14.33,14.33,0,0,1,14.33-14.32h0A14.32,14.32,0,0,1,76.13,141Z"/><path class="cls-88" d="M57.91,200.39c-.84,2.36-2.72,3.84-4.19,3.31s-2-2.86-1.14-5.22,2.72-3.84,4.2-3.31S58.76,198,57.91,200.39Z"/><path class="cls-88" d="M71.69,198.48c-.85-2.36-2.73-3.84-4.2-3.31s-2,2.86-1.14,5.22,2.73,3.84,4.2,3.31S72.53,200.84,71.69,198.48Z"/><path class="cls-88" d="M65,201.09c0,2.5-1.27,4.53-2.84,4.53s-2.83-2-2.83-4.53,1.27-4.53,2.83-4.53S65,198.59,65,201.09Z"/><path class="cls-86" d="M72.38,194.06c0,3.7-4.77,6.7-10.66,6.7s-10.66-3-10.66-6.7,4.78-6.69,10.66-6.69S72.38,190.37,72.38,194.06Z"/><path class="cls-85" d="M72.38,189.86c0,3.7-4.77,6.7-10.66,6.7s-10.66-3-10.66-6.7,4.78-6.69,10.66-6.69S72.38,186.17,72.38,189.86Z"/><path class="cls-12" d="M141.81,94a17.73,17.73,0,1,0-25.58,24.55c3.86,4,13.28,4.12,24,14.31,8.08,7.68,15.75,25.31,24.71,22.45,7-2.23,3.94-17.48.19-25.41C157.68,114.07,146.36,98.69,141.81,94Z"/><path class="cls-85" d="M142.73,97.71a15.94,15.94,0,1,0-23,22.08c3.47,3.62,11.94,3.7,21.58,12.87,7.27,6.91,14.69,24,22.75,21.45,6.27-2,3-17-.35-24.11C157,115.81,146.82,102,142.73,97.71Z"/><path class="cls-89" d="M165.8,143.84c1.62,3.58.7,7.49-2.06,8.75s-6.32-.63-7.94-4.21-.71-7.49,2-8.74S164.17,140.26,165.8,143.84Z"/><path class="cls-12" d="M29.31,94A17.73,17.73,0,1,1,54.89,118.5c-3.86,4-13.28,4.12-24,14.31-8.08,7.68-15.75,25.31-24.71,22.45-7-2.23-3.94-17.48-.19-25.41C13.44,114.07,24.76,98.69,29.31,94Z"/><path class="cls-85" d="M28.39,97.71a15.95,15.95,0,1,1,23,22.08c-3.48,3.62-11.95,3.7-21.59,12.87-7.27,6.91-14.69,24-22.75,21.45-6.27-2-3-17,.36-24.11C14.11,115.81,24.3,102,28.39,97.71Z"/><path class="cls-89" d="M5.33,143.84c-1.63,3.58-.71,7.49,2.06,8.75s6.31-.63,7.94-4.21.7-7.49-2.06-8.74S7,140.26,5.33,143.84Z"/><path class="cls-90" d="M145.29,123.76a60.82,60.82,0,1,1-121.64,0c0-33.59,27.24-98.27,60.82-98.27S145.29,90.17,145.29,123.76Z"/><path class="cls-85" d="M138.51,120.35a54,54,0,0,1-108.07,0C30.44,90.5,54.63,33,84.47,33S138.51,90.5,138.51,120.35Z"/><path class="cls-91" d="M141.82,109.49c0,19.18-25.09,34.72-56,34.72s-56-15.54-56-34.72,25.09-34.71,56-34.71S141.82,90.32,141.82,109.49Z"/><path class="cls-92" d="M125.14,122.36c0,12.65-16.68,39.58-39.58,39.58C62.39,161.94,46,135,46,122.36,46,102.41,125.14,102.08,125.14,122.36Z"/><path class="cls-93" d="M125.14,121c0,12.65-16.68,39.58-39.58,39.58C62.39,160.59,46,133.66,46,121,46,101.07,125.14,100.74,125.14,121Z"/><path class="cls-94" d="M85.57,160.51c11.44,0,21.33-6.72,28.37-15a29.63,29.63,0,0,0-56.75.09C64.18,153.83,74,160.51,85.57,160.51Z"/><path class="cls-85" d="M102.2,137.48c0,5.66-7.45,10.25-16.64,10.25s-16.64-4.59-16.64-10.25,7.45-10.24,16.64-10.24S102.2,131.83,102.2,137.48Z"/><path class="cls-95" d="M68.1,114.39c2.77,0,5-3.08,5-6.88,0-.32,0-.64,0-1a82.52,82.52,0,0,0-9.92,1.77C63.44,111.74,65.55,114.39,68.1,114.39Z"/><path class="cls-95" d="M103.8,114.51c-2.76,0-5-3.08-5-6.88,0-.32,0-.64,0-.94a78.75,78.75,0,0,1,9.92,1.77C108.47,111.87,106.36,114.51,103.8,114.51Z"/><path class="cls-11" d="M104.36,113.21c-2.21,0-4-2.47-4-5.52a6.28,6.28,0,0,1,0-.75,62.82,62.82,0,0,1,7.94,1.42C108.1,111.09,106.41,113.21,104.36,113.21Z"/><path class="cls-11" d="M67.76,113c2.21,0,4-2.47,4-5.51a6.06,6.06,0,0,0,0-.75,64.7,64.7,0,0,0-7.94,1.41C64,110.87,65.71,113,67.76,113Z"/><path class="cls-96" d="M73.11,107.51c0-.32,0-.64,0-1a82.52,82.52,0,0,0-9.92,1.77,10,10,0,0,0,.33,1.78,83.32,83.32,0,0,1,9.58-1.65A7.46,7.46,0,0,0,73.11,107.51Z"/><path class="cls-96" d="M108.77,108.46a78.75,78.75,0,0,0-9.92-1.77c0,.3,0,.62,0,.94s0,.59,0,.87a81.93,81.93,0,0,1,9.6,1.71A9.68,9.68,0,0,0,108.77,108.46Z"/><path class="cls-86" d="M109.82,72.62A25.35,25.35,0,1,1,84.47,47.28,25.34,25.34,0,0,1,109.82,72.62Z"/><path class="cls-97" d="M108.18,72.62a23.71,23.71,0,1,1-23.71-23.7A23.7,23.7,0,0,1,108.18,72.62Z"/><path class="cls-98" d="M97.22,72.62A12.75,12.75,0,1,1,84.47,59.87,12.75,12.75,0,0,1,97.22,72.62Z"/><path class="cls-99" d="M90.44,72.62a6,6,0,1,1-6-6A6,6,0,0,1,90.44,72.62Z"/><path class="cls-100" d="M91.57,66.32c0,3-3.18,5.46-7.1,5.46s-7.1-2.45-7.1-5.46,3.18-5.45,7.1-5.45S91.57,63.31,91.57,66.32Z"/></g></g></g></svg>