<svg xmlns="http://www.w3.org/2000/svg" xmlns:xlink="http://www.w3.org/1999/xlink" viewBox="0 0 412.46 209.9"><defs><style>.cls-1,.cls-10{fill:none;}.cls-1,.cls-12,.cls-90{stroke:#fff;stroke-miterlimit:10;}.cls-1,.cls-12{stroke-width:4px;}.cls-2{isolation:isolate;}.cls-3{fill:#010101;}.cls-3,.cls-4,.cls-5,.cls-6,.cls-7,.cls-8,.cls-9{fill-rule:evenodd;}.cls-3,.cls-85{opacity:0.2;}.cls-11,.cls-4,.cls-85,.cls-89,.cls-96{fill:#fff;}.cls-5{fill:#fcc133;}.cls-6{fill:#e7e6e6;}.cls-7{fill:#ffe55a;}.cls-8{fill:#d39802;}.cls-12,.cls-86,.cls-9,.cls-90{fill:#fab612;}.cls-10,.cls-11{font-size:42.46px;font-family:Bangers-Regular, Bangers;letter-spacing:0.1em;}.cls-10{stroke:#1d1d1b;}.cls-10,.cls-90{stroke-width:5px;}.cls-13{clip-path:url(#clip-path);}.cls-14{fill:#f2af47;}.cls-15{fill:#f2b048;}.cls-16{fill:#f3b248;}.cls-17{fill:#f3b348;}.cls-18{fill:#f4b54a;}.cls-19{fill:#f4b64b;}.cls-20{fill:#f4b84c;}.cls-21{fill:#f4b94b;}.cls-22{fill:#f5ba4d;}.cls-23{fill:#f4ba4d;}.cls-24{fill:#f4bb4f;}.cls-25{fill:#f5bd50;}.cls-26{fill:#f5bf50;}.cls-27{fill:#f6c050;}.cls-28{fill:#f6c051;}.cls-29{fill:#f5c253;}.cls-30{fill:#f6c352;}.cls-31{fill:#f6c453;}.cls-32{fill:#f7c654;}.cls-33{fill:#f7c655;}.cls-34{fill:#f6c755;}.cls-35{fill:#f7c957;}.cls-36{fill:#f6ca58;}.cls-37{fill:#f7cb58;}.cls-38{fill:#f7cc59;}.cls-39{fill:#f7cd5a;}.cls-40{fill:#f8cf5c;}.cls-41{fill:#f8d15c;}.cls-42{fill:#f8d25c;}.cls-43{fill:#f9d35d;}.cls-44{fill:#f9d45d;}.cls-45{fill:#f9d45e;}.cls-46{fill:#f9d55f;}.cls-47{fill:#f9d760;}.cls-48{fill:#f9d761;}.cls-49{fill:#fad961;}.cls-50{fill:#f9da63;}.cls-51{fill:#f9db63;}.cls-52{fill:#f9dc63;}.cls-53{fill:#fadd64;}.cls-54{fill:#fade64;}.cls-55{fill:#fadf65;}.cls-56{fill:#fae067;}.cls-57{fill:#fae167;}.cls-58{fill:#fae267;}.cls-59{fill:#fae368;}.cls-60{fill:#fbe468;}.cls-61{fill:#fce569;}.cls-62{fill:#fce76b;}.cls-63{fill:#fce86c;}.cls-64{fill:#fce96c;}.cls-65{fill:#fcea6c;}.cls-66{fill:#fdeb6d;}.cls-67{fill:#fdec6f;}.cls-68{fill:#fcec6f;}.cls-69{fill:#fcee6f;}.cls-70{fill:#fcef72;}.cls-71{fill:#fdef72;}.cls-72{fill:#fcef74;}.cls-73{fill:#fbee75;}.cls-74{fill:#faee77;}.cls-75{fill:#faee78;}.cls-76{fill:#f9ee79;}.cls-77{fill:#faee79;}.cls-78{fill:#f9ee7a;}.cls-79{fill:#f8ee7c;}.cls-80{fill:#f8ee7a;}.cls-81{fill:#f7ee7c;}.cls-82{fill:#f7ee7d;}.cls-83{fill:#f9ee7c;}.cls-84{fill:#f9ee7d;}.cls-87{clip-path:url(#clip-path-2);}.cls-88{fill:#ce6959;}.cls-89{opacity:0.5;}.cls-91{opacity:0.7;fill:url(#radial-gradient);}.cls-101,.cls-91{mix-blend-mode:lighten;}.cls-92{fill:#fffbe5;}.cls-93{fill:url(#linear-gradient);}.cls-94{fill:url(#radial-gradient-2);}.cls-95{fill:#eddd9a;}.cls-97{fill:#e66e27;opacity:0.4;}.cls-98{fill:url(#radial-gradient-3);}.cls-99{fill:url(#radial-gradient-4);}.cls-100{fill:#2f2a4a;}.cls-101{fill:url(#linear-gradient-2);}</style><clipPath id="clip-path"><path class="cls-1" d="M146.72,40.83c3.18,4.77-3.74,15-15.47,22.78s-23.8,10.27-27,5.5,3.75-15,15.47-22.78S143.55,36.06,146.72,40.83Z"/></clipPath><clipPath id="clip-path-2"><path class="cls-1" d="M22.22,40.83C19.05,45.6,26,55.8,37.7,63.61s23.8,10.27,27,5.5-3.75-15-15.47-22.78S25.4,36.06,22.22,40.83Z"/></clipPath><radialGradient id="radial-gradient" cx="85.79" cy="900.82" r="56.04" gradientTransform="translate(0 -444.29) scale(1 0.62)" gradientUnits="userSpaceOnUse"><stop offset="0" stop-color="#fff"/><stop offset="0.1" stop-color="#f3f3f3"/><stop offset="0.27" stop-color="#d3d3d2"/><stop offset="0.51" stop-color="#9e9e9d"/><stop offset="0.79" stop-color="#575755"/><stop offset="1" stop-color="#1e1e1c"/></radialGradient><linearGradient id="linear-gradient" x1="85.56" y1="165.11" x2="85.56" y2="109.58" gradientUnits="userSpaceOnUse"><stop offset="0" stop-color="#5e130f"/><stop offset="0.22" stop-color="#6a1412"/><stop offset="0.61" stop-color="#8b161a"/><stop offset="1" stop-color="#b11924"/></linearGradient><radialGradient id="radial-gradient-2" cx="85.73" cy="8504.85" r="39.93" gradientTransform="translate(0 -4175.44) scale(1 0.51)" gradientUnits="userSpaceOnUse"><stop offset="0" stop-color="#ee7228"/><stop offset="0.2" stop-color="#e76627"/><stop offset="0.57" stop-color="#d64526"/><stop offset="1" stop-color="#be1823"/></radialGradient><radialGradient id="radial-gradient-3" cx="84.47" cy="76.9" r="23.7" gradientUnits="userSpaceOnUse"><stop offset="0.56" stop-color="#fff"/><stop offset="0.78" stop-color="#fdfdfd"/><stop offset="0.86" stop-color="#f6f6f6"/><stop offset="0.92" stop-color="#ebebeb"/><stop offset="0.96" stop-color="#dadada"/><stop offset="1" stop-color="#c7c6c6"/></radialGradient><radialGradient id="radial-gradient-4" cx="84.47" cy="76.9" r="12.75" gradientUnits="userSpaceOnUse"><stop offset="0" stop-color="#fff"/><stop offset="0.18" stop-color="#fcfdfe"/><stop offset="0.32" stop-color="#f2f6fa"/><stop offset="0.45" stop-color="#e1eaf5"/><stop offset="0.58" stop-color="#cadaec"/><stop offset="0.69" stop-color="#abc5e2"/><stop offset="0.81" stop-color="#86acd5"/><stop offset="0.91" stop-color="#5a8ec6"/><stop offset="1" stop-color="#3272b8"/></radialGradient><linearGradient id="linear-gradient-2" x1="84.44" y1="65.17" x2="84.51" y2="75.8" gradientTransform="matrix(1, 0, 0, 1, 0, 0)" xlink:href="#radial-gradient"/></defs><g class="cls-2"><g id="Layer_2" data-name="Layer 2"><g id="Basic_UI" data-name="Basic UI"><path class="cls-3" d="M363.24,54.64c36.41,0,44.53,36.08,44.42,72-.12,35.48-5,70.75-44.42,70.75H124.68c-39.48,0-44.31-35.27-44.42-70.75-.13-35.87,8-71.95,44.42-71.95Z"/><path class="cls-4" d="M363.24,47.58c36.41,0,44.53,36.08,44.42,72-.12,35.47-5,70.73-44.42,70.73H124.68c-39.48,0-44.31-35.26-44.42-70.73-.13-35.88,8-72,44.42-72Z"/><path class="cls-5" d="M361.09,57.75c25.15,0,30.75,28.84,30.67,57.51-.08,28.34-3.42,56.53-30.67,56.53H126.81c-27.25,0-30.58-28.19-30.67-56.53-.07-28.67,5.53-57.51,30.67-57.51Z"/><path class="cls-6" d="M124.68,185.15c-38.75,0-44.12-34-44.41-68.8v0c0,1,0,2.12,0,3.17.11,35.47,4.94,70.73,44.42,70.73H363.24c39.46,0,44.3-35.26,44.42-70.73,0-1.06,0-2.14,0-3.19-.3,34.79-5.67,68.8-44.41,68.8Z"/><path class="cls-7" d="M350.63,160.13H137.27c-34.06,0-40.26-24.49-41-50.78-.06,2-.1,3.93-.1,5.91.13,28.35,4.59,56.53,41.13,56.53H350.63c36.54,0,41-28.18,41.13-56.53,0-2,0-4-.1-5.91C390.9,135.64,384.7,160.13,350.63,160.13Z"/><path class="cls-8" d="M96.14,115v.23c.13,28.35,4.59,56.53,41.13,56.53H350.63c36.54,0,41-28.18,41.13-56.53V115c0-1.54,0-3.08-.1-4.61-.76,26.28-7,50.78-41,50.78H137.27c-34.06,0-40.26-24.5-41-50.78C96.19,112,96.15,113.48,96.14,115Z"/><path class="cls-9" d="M389,131.54c-165.35,16.7-196.53,18.16-289.6,1.8,4.46,15.5,14.74,26.79,37.87,26.79H350.63C374.66,160.13,384.82,147.94,389,131.54Z"/><path class="cls-7" d="M137.27,62.45H350.63c30.56,0,39.6,23.69,40.94,49.47.05-.86.08-1.72.09-2.57-.88-24.66-8.41-48-34.56-51.22a55.34,55.34,0,0,0-6.47-.38H137.27a55.3,55.3,0,0,0-6.46.38c-26.15,3.25-33.68,26.56-34.57,51.22l.09,2.57C97.68,86.14,106.72,62.45,137.27,62.45Z"/><path class="cls-8" d="M353.11,70.77c20.7,0,25.32,20.53,25.26,40.94-.08,20.19-2.82,40.26-25.26,40.26H221.7c-22.44,0-25.19-20.07-25.26-40.26C196.39,91.3,201,70.77,221.7,70.77Z"/><path class="cls-7" d="M353.11,75.38c20.7,0,25.32,19.37,25.26,38.62-.08,19-2.82,38-25.26,38H221.7c-22.44,0-25.19-18.94-25.26-38-.05-19.25,4.55-38.62,25.26-38.62Z"/><path class="cls-9" d="M353.11,75.38c20.7,0,25.32,18.31,25.26,36.5-.08,18-2.82,35.88-25.26,35.88H221.7c-22.44,0-25.19-17.89-25.26-35.88-.05-18.19,4.55-36.5,25.26-36.5Z"/><text class="cls-10" transform="translate(145.39 39.04)">Spieleranzahl</text><text class="cls-11" transform="translate(145.39 39.04)">Spieleranzahl</text><path class="cls-12" d="M89.1,28.77C89.1,35,87,40.08,84.47,40.08S79.85,35,79.85,28.77s2.07-11.31,4.62-11.31S89.1,22.52,89.1,28.77Z"/><path class="cls-12" d="M95.83,36.32c-3.65,5.07-8.29,8-10.37,6.48S84.67,36,88.33,30.92s8.29-8,10.36-6.48S99.48,31.25,95.83,36.32Z"/><path class="cls-12" d="M73.12,36.32c3.65,5.07,8.29,8,10.36,6.48s.79-6.82-2.86-11.88-8.29-8-10.37-6.48S69.46,31.25,73.12,36.32Z"/><g class="cls-13"><rect class="cls-14" x="101.09" y="36.06" width="48.81" height="37.82"/><path class="cls-14" d="M145.87,40.67c1.56,3-4.92,9.47-14.47,14.32s-18.56,6.32-20.11,3.27,4.93-9.47,14.48-14.33S144.32,37.61,145.87,40.67Z"/><path class="cls-15" d="M145.66,40.78c1.53,3-4.87,9.35-14.3,14.14S113,61.16,111.51,58.15,116.37,48.8,125.8,44,144.12,37.76,145.66,40.78Z"/><path class="cls-16" d="M145.44,40.88c1.52,3-4.8,9.24-14.11,14S113.24,61,111.72,58s4.81-9.24,14.12-14S143.93,37.91,145.44,40.88Z"/><path class="cls-17" d="M145.23,41c1.49,2.94-4.75,9.11-13.94,13.79s-17.85,6.08-19.35,3.14,4.74-9.12,13.93-13.79S143.73,38.05,145.23,41Z"/><path class="cls-18" d="M145,41.11c1.48,2.9-4.68,9-13.75,13.61s-17.63,6-19.11,3.1,4.69-9,13.76-13.62S143.53,38.2,145,41.11Z"/><path class="cls-19" d="M144.79,41.21c1.46,2.87-4.62,8.88-13.57,13.44s-17.39,5.92-18.85,3.06S117,48.83,126,44.27,143.34,38.35,144.79,41.21Z"/><path class="cls-20" d="M144.58,41.32c1.43,2.83-4.56,8.76-13.4,13.26s-17.16,5.84-18.59,3,4.56-8.76,13.39-13.26S143.14,38.5,144.58,41.32Z"/><path class="cls-21" d="M144.36,41.44c1.42,2.78-4.5,8.64-13.21,13.07s-16.93,5.76-18.35,3,4.5-8.64,13.21-13.08S142.94,38.65,144.36,41.44Z"/><path class="cls-22" d="M144.14,41.54c1.4,2.75-4.43,8.53-13,12.9S114.42,60.13,113,57.38s4.43-8.53,13-12.9S142.75,38.79,144.14,41.54Z"/><path class="cls-23" d="M143.93,41.65c1.38,2.72-4.37,8.41-12.85,12.72s-16.47,5.61-17.85,2.9,4.38-8.41,12.85-12.72S142.55,38.94,143.93,41.65Z"/><path class="cls-24" d="M143.71,41.77c1.36,2.67-4.31,8.28-12.67,12.53s-16.23,5.53-17.59,2.86,4.31-8.29,12.67-12.54S142.35,39.09,143.71,41.77Z"/><path class="cls-25" d="M143.5,41.87c1.34,2.64-4.25,8.17-12.49,12.36s-16,5.45-17.34,2.82,4.25-8.17,12.49-12.36S142.16,39.24,143.5,41.87Z"/><path class="cls-26" d="M143.28,42c1.32,2.6-4.19,8.05-12.31,12.18s-15.77,5.38-17.09,2.78,4.19-8,12.31-12.18S142,39.39,143.28,42Z"/><path class="cls-27" d="M143.06,42.09c1.31,2.56-4.12,7.94-12.12,12s-15.54,5.3-16.84,2.74,4.13-7.93,12.13-12S141.76,39.54,143.06,42.09Z"/><path class="cls-28" d="M142.85,42.2C144.13,44.73,138.78,50,130.9,54s-15.3,5.22-16.59,2.7,4.07-7.82,12-11.82S141.57,39.68,142.85,42.2Z"/><path class="cls-29" d="M142.63,42.32c1.27,2.48-4,7.69-11.76,11.64s-15.07,5.13-16.34,2.65,4-7.7,11.77-11.64S141.37,39.83,142.63,42.32Z"/><path class="cls-30" d="M142.42,42.42c1.24,2.45-3.95,7.58-11.59,11.47s-14.84,5-16.08,2.61,3.94-7.58,11.58-11.47S141.17,40,142.42,42.42Z"/><path class="cls-31" d="M142.2,42.53c1.22,2.41-3.88,7.46-11.4,11.29s-14.61,5-15.83,2.57,3.88-7.46,11.4-11.29S141,40.13,142.2,42.53Z"/><path class="cls-32" d="M142,42.64c1.21,2.37-3.82,7.34-11.22,11.11s-14.37,4.89-15.58,2.53S119,48.94,126.4,45.17,140.78,40.28,142,42.64Z"/><path class="cls-33" d="M141.77,42.75c1.18,2.33-3.76,7.23-11,10.93s-14.15,4.82-15.33,2.49,3.75-7.22,11-10.93S140.58,40.42,141.77,42.75Z"/><path class="cls-34" d="M141.55,42.86c1.17,2.3-3.69,7.11-10.86,10.75s-13.91,4.74-15.08,2.45,3.7-7.11,10.86-10.75S140.39,40.57,141.55,42.86Z"/><path class="cls-35" d="M141.33,43c1.15,2.25-3.63,7-10.67,10.56S117,58.2,115.83,56s3.63-7,10.68-10.57S140.19,40.72,141.33,43Z"/><path class="cls-36" d="M141.12,43.08c1.12,2.22-3.57,6.87-10.5,10.39s-13.45,4.58-14.57,2.37,3.57-6.87,10.49-10.39S140,40.87,141.12,43.08Z"/><path class="cls-37" d="M140.9,43.19c1.11,2.18-3.51,6.75-10.31,10.21s-13.22,4.5-14.33,2.33,3.51-6.75,10.32-10.21S139.79,41,140.9,43.19Z"/><path class="cls-38" d="M140.69,43.3c1.08,2.14-3.45,6.63-10.14,10s-13,4.43-14.07,2.29,3.45-6.63,10.13-10S139.6,41.16,140.69,43.3Z"/><path class="cls-39" d="M140.47,43.41c1.07,2.1-3.39,6.52-9.95,9.85s-12.76,4.35-13.83,2.25,3.39-6.51,10-9.85S139.4,41.31,140.47,43.41Z"/><path class="cls-40" d="M140.25,43.52c1.05,2.07-3.32,6.4-9.77,9.67S118,57.46,116.91,55.4s3.33-6.39,9.77-9.67S139.2,41.46,140.25,43.52Z"/><path class="cls-41" d="M140,43.63c1,2-3.27,6.28-9.59,9.5s-12.3,4.18-13.32,2.16,3.26-6.28,9.59-9.5S139,41.61,140,43.63Z"/><path class="cls-42" d="M139.82,43.74c1,2-3.2,6.16-9.41,9.32s-12.06,4.11-13.07,2.12,3.21-6.16,9.41-9.31S138.81,41.76,139.82,43.74Z"/><path class="cls-43" d="M139.61,43.85c1,1.95-3.15,6-9.23,9.14s-11.83,4-12.82,2.08,3.14-6,9.23-9.14S138.61,41.91,139.61,43.85Z"/><path class="cls-44" d="M139.39,44c1,1.91-3.08,5.92-9,9s-11.59,3.95-12.57,2,3.08-5.92,9-9S138.42,42.05,139.39,44Z"/><path class="cls-45" d="M139.17,44.07c1,1.88-3,5.8-8.86,8.78s-11.37,3.87-12.32,2,3-5.8,8.87-8.78S138.22,42.2,139.17,44.07Z"/><path class="cls-46" d="M139,44.18c.93,1.84-3,5.69-8.69,8.6s-11.13,3.79-12.06,2,3-5.68,8.68-8.6S138,42.35,139,44.18Z"/><path class="cls-47" d="M138.74,44.29c.91,1.8-2.9,5.57-8.5,8.42s-10.9,3.71-11.82,1.92,2.9-5.57,8.51-8.42S137.83,42.5,138.74,44.29Z"/><path class="cls-48" d="M138.53,44.4c.89,1.76-2.84,5.45-8.33,8.24s-10.67,3.63-11.56,1.88,2.83-5.45,8.32-8.24S137.63,42.65,138.53,44.4Z"/><path class="cls-49" d="M138.31,44.51c.87,1.72-2.77,5.33-8.15,8.06s-10.43,3.56-11.3,1.84,2.77-5.33,8.14-8.06S137.43,42.79,138.31,44.51Z"/><path class="cls-50" d="M138.09,44.62c.86,1.68-2.71,5.21-8,7.88s-10.2,3.48-11.06,1.8,2.71-5.21,8-7.88S137.24,42.94,138.09,44.62Z"/><path class="cls-51" d="M137.88,44.73c.83,1.64-2.65,5.09-7.79,7.7s-10,3.4-10.8,1.76,2.65-5.09,7.78-7.7S137,43.09,137.88,44.73Z"/><path class="cls-52" d="M137.66,44.84c.82,1.61-2.59,5-7.6,7.52s-9.74,3.32-10.56,1.72,2.59-5,7.61-7.52S136.85,43.24,137.66,44.84Z"/><path class="cls-53" d="M137.44,45c.8,1.57-2.52,4.86-7.42,7.35s-9.5,3.24-10.3,1.67,2.53-4.86,7.42-7.34S136.65,43.39,137.44,45Z"/><path class="cls-54" d="M137.23,45.06c.77,1.53-2.46,4.74-7.24,7.17s-9.28,3.16-10.05,1.63,2.46-4.74,7.24-7.17S136.45,43.53,137.23,45.06Z"/><path class="cls-55" d="M137,45.17c.76,1.49-2.4,4.62-7.06,7s-9,3.08-9.8,1.59,2.4-4.62,7.06-7S136.25,43.68,137,45.17Z"/><path class="cls-56" d="M136.79,45.28c.74,1.45-2.34,4.5-6.87,6.81s-8.82,3-9.55,1.55,2.34-4.5,6.88-6.81S136.06,43.83,136.79,45.28Z"/><path class="cls-57" d="M136.58,45.39c.72,1.42-2.28,4.38-6.7,6.63s-8.58,2.92-9.3,1.51,2.28-4.38,6.7-6.63S135.86,44,136.58,45.39Z"/><path class="cls-58" d="M136.36,45.5c.7,1.38-2.21,4.27-6.51,6.45s-8.35,2.84-9,1.47S123,49.16,127.32,47,135.66,44.13,136.36,45.5Z"/><path class="cls-59" d="M136.15,45.61c.68,1.34-2.16,4.15-6.34,6.27s-8.11,2.77-8.79,1.43,2.15-4.15,6.33-6.27S135.47,44.28,136.15,45.61Z"/><path class="cls-60" d="M135.93,45.72c.66,1.3-2.09,4-6.15,6.09s-7.89,2.69-8.55,1.39,2.1-4,6.16-6.09S135.27,44.43,135.93,45.72Z"/><path class="cls-61" d="M135.71,45.83c.65,1.26-2,3.91-6,5.91s-7.65,2.61-8.29,1.35,2-3.91,6-5.91S135.07,44.57,135.71,45.83Z"/><path class="cls-62" d="M135.5,45.94c.62,1.22-2,3.79-5.79,5.73s-7.42,2.53-8,1.31,2-3.79,5.79-5.73S134.88,44.72,135.5,45.94Z"/><path class="cls-63" d="M135.28,46.05c.6,1.19-1.91,3.67-5.61,5.55s-7.19,2.45-7.79,1.27,1.91-3.67,5.61-5.55S134.68,44.87,135.28,46.05Z"/><path class="cls-64" d="M135.07,46.16c.58,1.15-1.85,3.55-5.43,5.37s-7,2.37-7.54,1.23,1.85-3.55,5.43-5.37S134.48,45,135.07,46.16Z"/><path class="cls-65" d="M134.85,46.27c.56,1.11-1.79,3.43-5.25,5.2s-6.72,2.29-7.29,1.18,1.79-3.43,5.25-5.2S134.29,45.16,134.85,46.27Z"/><path class="cls-66" d="M134.63,46.38c.55,1.07-1.72,3.32-5.06,5s-6.5,2.21-7,1.14,1.73-3.32,5.07-5S134.09,45.31,134.63,46.38Z"/><path class="cls-67" d="M134.42,46.49c.52,1-1.66,3.2-4.89,4.84s-6.26,2.13-6.78,1.1,1.66-3.2,4.88-4.84S133.89,45.46,134.42,46.49Z"/><path class="cls-68" d="M134.2,46.6c.51,1-1.6,3.08-4.7,4.66s-6,2.05-6.54,1.06,1.6-3.08,4.71-4.66S133.7,45.61,134.2,46.6Z"/><path class="cls-69" d="M134,46.71c.48,1-1.54,3-4.53,4.48s-5.8,2-6.28,1,1.54-3,4.52-4.48S133.5,45.76,134,46.71Z"/><path class="cls-69" d="M133.77,46.82c.47.92-1.48,2.84-4.34,4.3s-5.57,1.9-6,1,1.48-2.84,4.35-4.3S133.3,45.9,133.77,46.82Z"/><path class="cls-70" d="M133.55,46.93c.45.88-1.41,2.72-4.16,4.12s-5.33,1.82-5.78.94,1.42-2.72,4.16-4.12S133.11,46.05,133.55,46.93Z"/><path class="cls-71" d="M133.34,47c.43.84-1.36,2.61-4,3.94s-5.11,1.74-5.53.9,1.35-2.61,4-3.94S132.91,46.2,133.34,47Z"/><path class="cls-72" d="M133.12,47.15c.41.8-1.29,2.49-3.8,3.76s-4.87,1.66-5.28.86,1.3-2.49,3.8-3.76S132.71,46.35,133.12,47.15Z"/><path class="cls-73" d="M132.9,47.26c.39.77-1.23,2.37-3.61,3.58s-4.64,1.58-5,.82,1.23-2.37,3.62-3.58S132.52,46.5,132.9,47.26Z"/><path class="cls-73" d="M132.69,47.37c.37.73-1.17,2.25-3.44,3.4s-4.41,1.5-4.78.78,1.18-2.25,3.44-3.4S132.32,46.65,132.69,47.37Z"/><path class="cls-74" d="M132.47,47.48c.35.69-1.11,2.13-3.26,3.23s-4.17,1.42-4.52.73,1.11-2.13,3.26-3.22S132.12,46.79,132.47,47.48Z"/><path class="cls-75" d="M132.26,47.59c.33.65-1,2-3.08,3s-3.94,1.34-4.27.69,1-2,3.07-3S131.93,46.94,132.26,47.59Z"/><path class="cls-76" d="M132,47.7c.31.61-1,1.9-2.89,2.87s-3.72,1.26-4,.65,1-1.9,2.9-2.87S131.73,47.09,132,47.7Z"/><path class="cls-77" d="M131.82,47.81c.3.57-.92,1.78-2.71,2.69s-3.48,1.18-3.77.61.92-1.78,2.71-2.69S131.53,47.24,131.82,47.81Z"/><path class="cls-78" d="M131.61,47.92c.27.54-.86,1.66-2.53,2.51s-3.25,1.1-3.53.57.87-1.66,2.54-2.51S131.34,47.39,131.61,47.92Z"/><path class="cls-78" d="M131.39,48c.25.5-.8,1.54-2.35,2.33s-3,1-3.27.53.8-1.54,2.36-2.33S131.14,47.53,131.39,48Z"/><path class="cls-79" d="M131.18,48.14c.23.46-.74,1.42-2.18,2.15s-2.78,1-3,.49.74-1.42,2.17-2.15S130.94,47.68,131.18,48.14Z"/><path class="cls-80" d="M131,48.25c.21.42-.68,1.3-2,2s-2.55.87-2.76.45.67-1.3,2-2S130.75,47.83,131,48.25Z"/><path class="cls-81" d="M130.74,48.36c.2.38-.61,1.19-1.81,1.79s-2.32.79-2.51.41.62-1.18,1.81-1.79S130.55,48,130.74,48.36Z"/><path class="cls-81" d="M130.53,48.47c.17.35-.56,1.07-1.63,1.61s-2.09.71-2.26.37.55-1.07,1.63-1.61S130.35,48.13,130.53,48.47Z"/><path class="cls-82" d="M130.31,48.58c.16.31-.49,1-1.45,1.43s-1.85.64-2,.33.5-1,1.45-1.43S130.16,48.28,130.31,48.58Z"/><path class="cls-81" d="M130.1,48.69c.13.27-.44.83-1.27,1.25s-1.62.56-1.76.29.43-.83,1.27-1.25S130,48.42,130.1,48.69Z"/><path class="cls-83" d="M129.88,48.8c.12.23-.37.71-1.09,1.07s-1.39.48-1.5.25.37-.71,1.08-1.07S129.76,48.57,129.88,48.8Z"/><path class="cls-84" d="M129.66,48.91c.1.19-.31.59-.9.9s-1.16.39-1.26.2.31-.59.91-.9S129.57,48.72,129.66,48.91Z"/><path class="cls-79" d="M129.45,49c.07.15-.25.47-.73.72s-.93.31-1,.16.24-.47.72-.72S129.37,48.87,129.45,49Z"/><path class="cls-79" d="M129.23,49.13c.06.11-.18.36-.54.54s-.7.23-.76.12.19-.36.55-.54S129.17,49,129.23,49.13Z"/><path class="cls-79" d="M129,49.24c0,.08-.12.24-.36.36s-.46.16-.5.08.12-.24.36-.36S129,49.16,129,49.24Z"/><path class="cls-79" d="M128.8,49.35s-.06.12-.18.18-.23.08-.25,0,.06-.12.18-.18S128.78,49.31,128.8,49.35Z"/></g><path class="cls-1" d="M146.72,40.83c3.18,4.77-3.74,15-15.47,22.78s-23.8,10.27-27,5.5,3.75-15,15.47-22.78S143.55,36.06,146.72,40.83Z"/><path class="cls-85" d="M143.57,41.56c1.92,2.89-2.27,9.07-9.37,13.79s-14.42,6.23-16.35,3.34,2.28-9.07,9.37-13.8S141.64,38.67,143.57,41.56Z"/><path class="cls-86" d="M120.41,45.94l-.67.43c-1.4.93-2.72,1.9-4,2.88a110.28,110.28,0,0,1,11.48,16.86c1.33-.75,2.67-1.57,4-2.46.3-.19.58-.39.87-.59A121.69,121.69,0,0,0,120.41,45.94Z"/><path class="cls-86" d="M131.28,63.64l.84-.58a121.69,121.69,0,0,0-11.71-17.12l-.67.43-.18.13A125.5,125.5,0,0,1,131.28,63.64Z"/><g class="cls-87"><rect class="cls-14" x="19.05" y="36.06" width="48.81" height="37.82"/><path class="cls-14" d="M58.5,59.33c-1.88,3.52-11.09,2.27-20.59-2.78S22.23,44.55,24.11,41,35.2,38.75,44.7,43.8,60.37,55.8,58.5,59.33Z"/><path class="cls-15" d="M58.28,59.21c-1.85,3.48-11,2.25-20.33-2.74S22.47,44.62,24.32,41.14s11-2.25,20.33,2.74S60.13,55.73,58.28,59.21Z"/><path class="cls-16" d="M58.07,59.09c-1.83,3.44-10.82,2.23-20.08-2.7S22.71,44.69,24.54,41.26,35.35,39,44.61,44,59.89,55.66,58.07,59.09Z"/><path class="cls-17" d="M57.85,59c-1.8,3.39-10.67,2.2-19.81-2.67S23,44.76,24.75,41.37,35.43,39.18,44.57,44,59.66,55.59,57.85,59Z"/><path class="cls-18" d="M57.64,58.87C55.86,62.21,47.1,61,38.08,56.23S23.19,44.83,25,41.49s10.53-2.17,19.55,2.63S59.42,55.52,57.64,58.87Z"/><path class="cls-19" d="M57.42,58.75c-1.76,3.3-10.4,2.14-19.3-2.59S23.43,44.9,25.18,41.6s10.4-2.14,19.3,2.6S59.18,55.45,57.42,58.75Z"/><path class="cls-20" d="M57.21,58.64C55.47,61.9,47,60.75,38.16,56.08S23.67,45,25.4,41.72s10.26-2.11,19,2.56S58.94,55.38,57.21,58.64Z"/><path class="cls-21" d="M57,58.52C55.28,61.74,46.87,60.61,38.21,56S23.9,45,25.61,41.83s10.12-2.08,18.79,2.53S58.7,55.31,57,58.52Z"/><path class="cls-22" d="M56.78,58.41c-1.69,3.17-10,2.05-18.53-2.49S24.14,45.11,25.83,42s10-2.06,18.53,2.49S58.46,55.24,56.78,58.41Z"/><path class="cls-23" d="M56.56,58.3c-1.66,3.12-9.84,2-18.27-2.46S24.38,45.19,26,42.06s9.84-2,18.27,2.46S58.22,55.17,56.56,58.3Z"/><path class="cls-24" d="M56.35,58.18c-1.64,3.08-9.71,2-18-2.42S24.62,45.25,26.26,42.17s9.7-2,18,2.43S58,55.1,56.35,58.18Z"/><path class="cls-25" d="M56.13,58.07c-1.61,3-9.56,2-17.75-2.39S24.86,45.32,26.47,42.29s9.57-2,17.76,2.39S57.75,55,56.13,58.07Z"/><path class="cls-26" d="M55.92,58c-1.6,3-9.43,1.94-17.5-2.35S25.09,45.4,26.69,42.4s9.42-1.94,17.5,2.36S57.51,55,55.92,58Z"/><path class="cls-27" d="M55.7,57.84c-1.57,2.95-9.29,1.91-17.24-2.32s-13.13-10.05-11.56-13,9.29-1.91,17.24,2.32S57.27,54.89,55.7,57.84Z"/><path class="cls-28" d="M55.49,57.72c-1.55,2.91-9.15,1.89-17-2.28s-12.93-9.9-11.38-12.81,9.15-1.88,17,2.29S57,54.82,55.49,57.72Z"/><path class="cls-29" d="M55.27,57.61c-1.52,2.86-9,1.85-16.73-2.25S25.81,45.61,27.33,42.74s9-1.85,16.73,2.26S56.79,54.75,55.27,57.61Z"/><path class="cls-30" d="M55.06,57.49c-1.5,2.82-8.87,1.83-16.47-2.21s-12.54-9.6-11-12.42S36.42,41,44,45.08,56.56,54.68,55.06,57.49Z"/><path class="cls-31" d="M54.84,57.38c-1.47,2.77-8.73,1.8-16.21-2.18S26.29,45.75,27.76,43,36.49,41.18,44,45.16,56.32,54.61,54.84,57.38Z"/><path class="cls-32" d="M54.63,57.27C53.18,60,46,59,38.67,55.12s-12.15-9.3-10.69-12,8.59-1.77,16,2.15S56.08,54.54,54.63,57.27Z"/><path class="cls-33" d="M54.41,57.15C53,59.84,46,58.89,38.72,55s-12-9.15-10.53-11.84,8.46-1.74,15.7,2.12S55.84,54.47,54.41,57.15Z"/><path class="cls-34" d="M54.2,57c-1.41,2.64-8.32,1.71-15.44-2.08S27,46,28.41,43.32s8.31-1.71,15.44,2.08S55.6,54.4,54.2,57Z"/><path class="cls-35" d="M54,56.92c-1.38,2.6-8.18,1.69-15.18-2S27.24,46,28.62,43.43s8.18-1.68,15.19,2S55.37,54.33,54,56.92Z"/><path class="cls-36" d="M53.77,56.81c-1.36,2.55-8,1.65-14.93-2s-11.36-8.7-10-11.26,8-1.65,14.92,2S55.13,54.26,53.77,56.81Z"/><path class="cls-37" d="M53.55,56.69c-1.33,2.51-7.9,1.63-14.67-2s-11.16-8.55-9.83-11.06,7.9-1.63,14.67,2S54.89,54.19,53.55,56.69Z"/><path class="cls-38" d="M53.34,56.58c-1.31,2.47-7.77,1.6-14.41-1.94s-11-8.4-9.66-10.87S37,42.18,43.68,45.71,54.65,54.11,53.34,56.58Z"/><path class="cls-39" d="M53.12,56.47C51.84,58.89,45.5,58,39,54.56s-10.78-8.25-9.49-10.67,7.63-1.57,14.15,1.9S54.41,54,53.12,56.47Z"/><path class="cls-40" d="M52.91,56.35c-1.27,2.38-7.49,1.54-13.9-1.87S28.43,46.38,29.7,44s7.48-1.54,13.89,1.87S54.17,54,52.91,56.35Z"/><path class="cls-41" d="M52.69,56.24c-1.24,2.33-7.34,1.51-13.64-1.84s-10.38-7.95-9.14-10.28S37.26,42.61,43.55,46,53.93,53.9,52.69,56.24Z"/><path class="cls-42" d="M52.48,56.12c-1.22,2.29-7.21,1.49-13.38-1.8s-10.19-7.8-9-10.09,7.2-1.48,13.38,1.8S53.7,53.83,52.48,56.12Z"/><path class="cls-43" d="M52.26,56c-1.19,2.24-7.07,1.45-13.12-1.77s-10-7.65-8.8-9.89,7.07-1.46,13.12,1.76S53.46,53.76,52.26,56Z"/><path class="cls-44" d="M52.05,55.89c-1.17,2.2-6.93,1.43-12.87-1.73s-9.8-7.5-8.62-9.7S37.49,43,43.42,46.19,53.22,53.69,52.05,55.89Z"/><path class="cls-45" d="M51.83,55.78c-1.15,2.16-6.79,1.4-12.6-1.7s-9.61-7.35-8.46-9.51,6.79-1.39,12.61,1.7S53,53.62,51.83,55.78Z"/><path class="cls-46" d="M51.62,55.67C50.49,57.78,45,57,39.27,54S29.86,46.8,31,44.69s6.65-1.37,12.35,1.66S52.74,53.55,51.62,55.67Z"/><path class="cls-47" d="M51.4,55.55c-1.1,2.07-6.51,1.34-12.09-1.63S30.1,46.87,31.2,44.8s6.52-1.34,12.09,1.63S52.5,53.48,51.4,55.55Z"/><path class="cls-48" d="M51.19,55.44c-1.08,2-6.38,1.31-11.84-1.6s-9-6.9-7.93-8.92,6.37-1.31,11.83,1.59S52.27,53.41,51.19,55.44Z"/><path class="cls-49" d="M51,55.32c-1,2-6.23,1.29-11.58-1.56S30.58,47,31.63,45s6.24-1.28,11.58,1.56S52,53.34,51,55.32Z"/><path class="cls-50" d="M50.76,55.21c-1,1.93-6.1,1.25-11.32-1.53s-8.63-6.6-7.59-8.53,6.1-1.26,11.32,1.52S51.79,53.27,50.76,55.21Z"/><path class="cls-51" d="M50.55,55.09c-1,1.9-6,1.23-11.07-1.49s-8.43-6.45-7.42-8.34S38,44,43.12,46.75,51.55,53.2,50.55,55.09Z"/><path class="cls-52" d="M50.33,55c-1,1.85-5.82,1.2-10.81-1.46s-8.23-6.3-7.24-8.15,5.82-1.19,10.8,1.46S51.31,53.13,50.33,55Z"/><path class="cls-53" d="M50.11,54.86c-1,1.81-5.68,1.17-10.55-1.42s-8-6.15-7.07-7.95S38.17,44.32,43,46.91,51.07,53.06,50.11,54.86Z"/><path class="cls-54" d="M49.9,54.75c-.94,1.76-5.55,1.14-10.29-1.38s-7.84-6-6.91-7.77S38.25,44.46,43,47,50.83,53,49.9,54.75Z"/><path class="cls-55" d="M49.68,54.64c-.91,1.71-5.4,1.11-10-1.35S32,47.43,32.92,45.72s5.41-1.11,10,1.35S50.6,52.92,49.68,54.64Z"/><path class="cls-56" d="M49.47,54.52c-.89,1.67-5.27,1.09-9.78-1.31s-7.44-5.7-6.56-7.38,5.27-1.08,9.78,1.32S50.36,52.85,49.47,54.52Z"/><path class="cls-57" d="M49.25,54.41c-.86,1.63-5.13,1.05-9.52-1.28S32.48,47.58,33.35,46s5.13-1.06,9.52,1.28S50.12,52.78,49.25,54.41Z"/><path class="cls-58" d="M49,54.29c-.84,1.59-5,1-9.26-1.24s-7.06-5.4-6.22-7,5-1,9.27,1.25S49.88,52.71,49,54.29Z"/><path class="cls-59" d="M48.82,54.18c-.81,1.54-4.85,1-9-1.21s-6.86-5.25-6-6.79,4.85-1,9,1.21S49.64,52.64,48.82,54.18Z"/><path class="cls-60" d="M48.61,54.06c-.8,1.5-4.71,1-8.75-1.17s-6.66-5.1-5.87-6.6,4.72-1,8.75,1.18S49.41,52.57,48.61,54.06Z"/><path class="cls-61" d="M48.39,54c-.77,1.45-4.57.94-8.49-1.14s-6.46-5-5.69-6.41,4.57-.94,8.49,1.15S49.17,52.5,48.39,54Z"/><path class="cls-62" d="M48.18,53.84c-.75,1.41-4.44.91-8.24-1.11s-6.27-4.8-5.52-6.21,4.44-.91,8.24,1.11S48.93,52.43,48.18,53.84Z"/><path class="cls-63" d="M48,53.72c-.73,1.37-4.3.89-8-1.07s-6.08-4.65-5.35-6,4.3-.88,8,1.08S48.69,52.36,48,53.72Z"/><path class="cls-64" d="M47.75,53.61c-.7,1.32-4.16.85-7.72-1s-5.88-4.5-5.18-5.82,4.16-.86,7.72,1S48.45,52.29,47.75,53.61Z"/><path class="cls-65" d="M47.53,53.49c-.67,1.28-4,.83-7.46-1s-5.68-4.35-5-5.63,4-.83,7.46,1S48.21,52.22,47.53,53.49Z"/><path class="cls-66" d="M47.32,53.38c-.66,1.23-3.88.8-7.2-1s-5.49-4.2-4.84-5.43,3.89-.8,7.21,1S48,52.15,47.32,53.38Z"/><path class="cls-67" d="M47.1,53.26c-.63,1.19-3.74.78-6.94-.93s-5.29-4-4.66-5.24,3.74-.77,7,.94S47.74,52.08,47.1,53.26Z"/><path class="cls-68" d="M46.89,53.15c-.61,1.14-3.61.74-6.69-.9s-5.1-3.9-4.49-5,3.61-.74,6.69.91S47.5,52,46.89,53.15Z"/><path class="cls-69" d="M46.68,53c-.59,1.11-3.47.72-6.44-.86s-4.9-3.75-4.31-4.85,3.47-.71,6.43.86S47.26,51.93,46.68,53Z"/><path class="cls-69" d="M46.46,52.92c-.56,1.06-3.33.69-6.18-.83s-4.7-3.6-4.14-4.66,3.33-.68,6.18.84S47,51.86,46.46,52.92Z"/><path class="cls-70" d="M46.25,52.81c-.54,1-3.19.65-5.92-.8s-4.51-3.45-4-4.46,3.19-.66,5.92.79S46.78,51.8,46.25,52.81Z"/><path class="cls-71" d="M46,52.69c-.51,1-3.05.63-5.66-.76s-4.31-3.3-3.8-4.27,3-.63,5.67.76S46.54,51.72,46,52.69Z"/><path class="cls-72" d="M45.82,52.58c-.5.92-2.91.6-5.41-.73s-4.11-3.15-3.62-4.07,2.91-.6,5.4.72S46.31,51.65,45.82,52.58Z"/><path class="cls-73" d="M45.6,52.46c-.47.88-2.77.57-5.15-.69s-3.91-3-3.45-3.88,2.78-.57,5.15.69S46.07,51.58,45.6,52.46Z"/><path class="cls-73" d="M45.39,52.35c-.45.84-2.64.54-4.89-.66S36.77,48.84,37.22,48s2.63-.55,4.89.65S45.83,51.51,45.39,52.35Z"/><path class="cls-74" d="M45.17,52.24c-.42.79-2.5.51-4.63-.63s-3.53-2.7-3.11-3.49,2.5-.51,4.64.62S45.59,51.44,45.17,52.24Z"/><path class="cls-75" d="M45,52.12c-.4.75-2.36.49-4.38-.59s-3.33-2.55-2.93-3.3,2.35-.48,4.37.59S45.35,51.37,45,52.12Z"/><path class="cls-76" d="M44.74,52c-.37.7-2.22.45-4.12-.56s-3.13-2.4-2.76-3.1,2.22-.46,4.12.55S45.12,51.3,44.74,52Z"/><path class="cls-77" d="M44.52,51.89c-.35.66-2.07.43-3.85-.52s-2.94-2.25-2.59-2.91,2.08-.43,3.86.52S44.88,51.23,44.52,51.89Z"/><path class="cls-78" d="M44.31,51.78c-.33.61-1.94.4-3.6-.49s-2.75-2.1-2.42-2.71,1.94-.4,3.61.48S44.64,51.16,44.31,51.78Z"/><path class="cls-78" d="M44.1,51.66c-.31.58-1.81.37-3.35-.45s-2.55-2-2.24-2.52,1.8-.37,3.34.45S44.4,51.09,44.1,51.66Z"/><path class="cls-79" d="M43.88,51.55c-.28.53-1.66.34-3.09-.42s-2.35-1.8-2.07-2.33,1.67-.34,3.09.42S44.16,51,43.88,51.55Z"/><path class="cls-80" d="M43.67,51.43c-.26.49-1.53.32-2.83-.38s-2.16-1.65-1.9-2.13,1.52-.31,2.83.38S43.92,51,43.67,51.43Z"/><path class="cls-81" d="M43.45,51.32c-.23.44-1.38.29-2.57-.35s-2-1.5-1.73-1.94,1.39-.28,2.58.35S43.69,50.88,43.45,51.32Z"/><path class="cls-81" d="M43.24,51.21c-.21.39-1.25.25-2.32-.32s-1.76-1.35-1.55-1.74,1.25-.26,2.31.31S43.45,50.81,43.24,51.21Z"/><path class="cls-82" d="M43,51.09c-.19.35-1.11.23-2.06-.28s-1.56-1.2-1.38-1.55,1.11-.23,2.06.28S43.21,50.74,43,51.09Z"/><path class="cls-81" d="M42.81,51c-.17.31-1,.2-1.81-.24s-1.37-1.06-1.2-1.36,1-.2,1.8.24S43,50.67,42.81,51Z"/><path class="cls-83" d="M42.59,50.86c-.14.27-.83.17-1.54-.21s-1.18-.89-1-1.16.83-.17,1.55.21S42.73,50.6,42.59,50.86Z"/><path class="cls-84" d="M42.38,50.75c-.12.22-.7.14-1.29-.17s-1-.76-.86-1,.69-.15,1.29.17S42.49,50.53,42.38,50.75Z"/><path class="cls-79" d="M42.16,50.63c-.09.18-.55.12-1-.13s-.78-.6-.69-.78.56-.11,1,.14S42.25,50.46,42.16,50.63Z"/><path class="cls-79" d="M42,50.52c-.07.13-.42.09-.78-.1s-.58-.45-.51-.59.41-.08.77.11S42,50.39,42,50.52Z"/><path class="cls-79" d="M41.73,50.4c0,.09-.28.06-.51-.06s-.39-.3-.35-.39.28-.06.52.07S41.78,50.32,41.73,50.4Z"/><path class="cls-79" d="M41.52,50.29c0,.05-.14,0-.26,0s-.2-.15-.17-.2.14,0,.25,0S41.54,50.25,41.52,50.29Z"/></g><path class="cls-1" d="M22.22,40.83C19.05,45.6,26,55.8,37.7,63.61s23.8,10.27,27,5.5-3.75-15-15.47-22.78S25.4,36.06,22.22,40.83Z"/><path class="cls-85" d="M25.38,41.56c-1.93,2.89,2.27,9.07,9.37,13.79s14.42,6.23,16.34,3.34-2.27-9.07-9.37-13.8S27.3,38.67,25.38,41.56Z"/><path class="cls-86" d="M48.54,45.94l.66.43c1.4.93,2.73,1.9,4,2.88A110.28,110.28,0,0,0,41.7,66.11c-1.33-.75-2.67-1.57-4-2.46-.3-.19-.59-.39-.87-.59A121.69,121.69,0,0,1,48.54,45.94Z"/><path class="cls-86" d="M37.67,63.64l-.84-.58A121.69,121.69,0,0,1,48.54,45.94l.66.43.19.13A125.5,125.5,0,0,0,37.67,63.64Z"/><path class="cls-12" d="M124.09,192.34a14.33,14.33,0,0,1-14.32,14.33h0a14.33,14.33,0,0,1-14.32-14.33V145.26a14.32,14.32,0,0,1,14.32-14.32h0a14.32,14.32,0,0,1,14.32,14.32Z"/><path class="cls-88" d="M105.88,204.67c-.85,2.36-2.73,3.84-4.2,3.31s-2-2.86-1.14-5.22,2.72-3.84,4.2-3.31S106.72,202.31,105.88,204.67Z"/><path class="cls-88" d="M119.65,202.76c-.85-2.36-2.73-3.84-4.2-3.31s-2,2.86-1.14,5.22,2.73,3.84,4.2,3.31S120.49,205.12,119.65,202.76Z"/><path class="cls-88" d="M112.93,205.37c0,2.5-1.27,4.53-2.84,4.53s-2.83-2-2.83-4.54,1.27-4.53,2.84-4.53S112.93,202.86,112.93,205.37Z"/><path class="cls-86" d="M120.35,198.34c0,3.7-4.78,6.7-10.67,6.7S99,202,99,198.34s4.77-6.69,10.65-6.69S120.35,194.65,120.35,198.34Z"/><path class="cls-85" d="M120.35,194.14c0,3.7-4.78,6.69-10.67,6.69S99,197.84,99,194.14s4.77-6.69,10.65-6.69S120.35,190.44,120.35,194.14Z"/><path class="cls-12" d="M76.13,192.34a14.33,14.33,0,0,1-14.32,14.33h0a14.34,14.34,0,0,1-14.33-14.33V145.26a14.33,14.33,0,0,1,14.33-14.32h0a14.32,14.32,0,0,1,14.32,14.32Z"/><path class="cls-88" d="M57.91,204.67c-.84,2.36-2.72,3.84-4.19,3.31s-2-2.86-1.14-5.22,2.72-3.84,4.2-3.31S58.76,202.31,57.91,204.67Z"/><path class="cls-88" d="M71.69,202.76c-.85-2.36-2.73-3.84-4.2-3.31s-2,2.86-1.14,5.22,2.73,3.84,4.2,3.31S72.53,205.12,71.69,202.76Z"/><path class="cls-88" d="M65,205.37c0,2.5-1.27,4.53-2.84,4.53s-2.83-2-2.83-4.54,1.27-4.53,2.83-4.53S65,202.86,65,205.37Z"/><path class="cls-86" d="M72.38,198.34c0,3.7-4.77,6.7-10.66,6.7s-10.66-3-10.66-6.7,4.78-6.69,10.66-6.69S72.38,194.65,72.38,198.34Z"/><path class="cls-85" d="M72.38,194.14c0,3.7-4.77,6.69-10.66,6.69s-10.66-3-10.66-6.69,4.78-6.69,10.66-6.69S72.38,190.44,72.38,194.14Z"/><path class="cls-12" d="M141.81,98.22a17.73,17.73,0,0,0-25.58,24.55c3.86,4,13.28,4.13,24,14.32,8.08,7.68,15.75,25.31,24.71,22.44,7-2.23,3.94-17.47.19-25.4C157.68,118.35,146.36,103,141.81,98.22Z"/><path class="cls-85" d="M142.73,102a15.94,15.94,0,1,0-23,22.07c3.47,3.63,11.94,3.71,21.58,12.88,7.27,6.9,14.69,24,22.75,21.45,6.27-2,3-17-.35-24.11C157,120.09,146.82,106.25,142.73,102Z"/><path class="cls-89" d="M165.8,148.12c1.62,3.57.7,7.49-2.06,8.75s-6.32-.63-7.94-4.21-.71-7.49,2-8.74S164.17,144.54,165.8,148.12Z"/><path class="cls-12" d="M29.31,98.22a17.73,17.73,0,0,1,25.58,24.55c-3.86,4-13.28,4.13-24,14.32-8.08,7.68-15.75,25.31-24.71,22.44-7-2.23-3.94-17.47-.19-25.4C13.44,118.35,24.76,103,29.31,98.22Z"/><path class="cls-85" d="M28.39,102a15.94,15.94,0,0,1,23,22.07c-3.48,3.63-11.95,3.71-21.59,12.88-7.27,6.9-14.69,24-22.75,21.45-6.27-2-3-17,.36-24.11C14.11,120.09,24.3,106.25,28.39,102Z"/><path class="cls-89" d="M5.33,148.12c-1.63,3.57-.71,7.49,2.06,8.75s6.31-.63,7.94-4.21.7-7.49-2.06-8.74S7,144.54,5.33,148.12Z"/><path class="cls-90" d="M145.29,128a60.82,60.82,0,1,1-121.64,0c0-33.59,27.24-98.28,60.82-98.28S145.29,94.45,145.29,128Z"/><path class="cls-85" d="M138.51,124.62a54,54,0,1,1-108.07,0c0-29.84,24.19-87.3,54-87.3S138.51,94.78,138.51,124.62Z"/><path class="cls-91" d="M141.82,113.77c0,19.17-25.09,34.72-56,34.72s-56-15.55-56-34.72,25.09-34.71,56-34.71S141.82,94.6,141.82,113.77Z"/><path class="cls-92" d="M125.14,126.64c0,12.64-16.68,39.58-39.58,39.58C62.39,166.22,46,139.28,46,126.64,46,106.69,125.14,106.36,125.14,126.64Z"/><path class="cls-93" d="M125.14,125.29c0,12.65-16.68,39.58-39.58,39.58C62.39,164.87,46,137.94,46,125.29,46,105.34,125.14,105,125.14,125.29Z"/><path class="cls-94" d="M85.57,164.79c11.44,0,21.33-6.73,28.37-15a29.63,29.63,0,0,0-56.75.08C64.18,158.11,74,164.79,85.57,164.79Z"/><path class="cls-85" d="M102.2,141.76c0,5.66-7.45,10.25-16.64,10.25s-16.64-4.59-16.64-10.25,7.45-10.25,16.64-10.25S102.2,136.1,102.2,141.76Z"/><path class="cls-95" d="M68.1,118.67c2.77,0,5-3.08,5-6.89,0-.32,0-.63,0-.94a82.52,82.52,0,0,0-9.92,1.77C63.44,116,65.55,118.67,68.1,118.67Z"/><path class="cls-95" d="M103.8,118.79c-2.76,0-5-3.08-5-6.88,0-.32,0-.64,0-1a80.55,80.55,0,0,1,9.92,1.78C108.47,116.15,106.36,118.79,103.8,118.79Z"/><path class="cls-96" d="M104.36,117.48c-2.21,0-4-2.46-4-5.51a6.17,6.17,0,0,1,0-.75,62.82,62.82,0,0,1,7.94,1.42C108.1,115.37,106.41,117.48,104.36,117.48Z"/><path class="cls-96" d="M67.76,117.26c2.21,0,4-2.47,4-5.51a6.34,6.34,0,0,0,0-.76,66.61,66.61,0,0,0-7.94,1.42C64,115.14,65.71,117.26,67.76,117.26Z"/><path class="cls-97" d="M73.11,111.78c0-.32,0-.63,0-.94a82.52,82.52,0,0,0-9.92,1.77,9.9,9.9,0,0,0,.33,1.77,85.59,85.59,0,0,1,9.58-1.64A7.5,7.5,0,0,0,73.11,111.78Z"/><path class="cls-97" d="M108.77,112.74A80.55,80.55,0,0,0,98.85,111c0,.31,0,.63,0,1s0,.58,0,.87a81.93,81.93,0,0,1,9.6,1.71A9.68,9.68,0,0,0,108.77,112.74Z"/><path class="cls-86" d="M109.82,76.9A25.35,25.35,0,1,1,84.47,51.56,25.35,25.35,0,0,1,109.82,76.9Z"/><path class="cls-98" d="M108.18,76.9A23.71,23.71,0,1,1,84.47,53.19,23.7,23.7,0,0,1,108.18,76.9Z"/><path class="cls-99" d="M97.22,76.9A12.75,12.75,0,1,1,84.47,64.15,12.75,12.75,0,0,1,97.22,76.9Z"/><path class="cls-100" d="M90.44,76.9a6,6,0,1,1-6-6A6,6,0,0,1,90.44,76.9Z"/><path class="cls-101" d="M91.57,70.6c0,3-3.18,5.45-7.1,5.45s-7.1-2.44-7.1-5.45,3.18-5.45,7.1-5.45S91.57,67.59,91.57,70.6Z"/></g></g></g></svg>