<svg xmlns="http://www.w3.org/2000/svg" viewBox="0 0 499.88 217.05"><defs><style>.cls-1,.cls-10,.cls-11{fill:#010101;}.cls-1,.cls-10,.cls-12,.cls-13,.cls-2,.cls-3,.cls-4,.cls-5,.cls-6,.cls-7,.cls-8,.cls-9{fill-rule:evenodd;}.cls-1{opacity:0.2;}.cls-14,.cls-2{fill:#fff;}.cls-3{fill:#fcc133;}.cls-4{fill:#e7e6e6;}.cls-5{fill:#ffe55a;}.cls-6{fill:#d39802;}.cls-7{fill:#fab612;}.cls-8{fill:#cdcccc;}.cls-9{fill:#f4f3f4;}.cls-12{fill:#9a9999;}.cls-13{fill:#b4b4b4;}.cls-14{font-size:42.46px;font-family:Bangers-Regular, Bangers;letter-spacing:0.1em;}.cls-15{letter-spacing:0.1em;}</style></defs><g id="Layer_2" data-name="Layer 2"><g id="Basic_UI" data-name="Basic UI"><path class="cls-1" d="M454.81,60.72c36.95,0,45.19,36.6,45.07,73-.12,36-5,71.78-45.07,71.78H110.41c-40,0-45-35.78-45.07-71.78-.13-36.41,8.11-73,45.07-73Z"/><path class="cls-2" d="M454.81,53.55c36.95,0,45.19,36.61,45.07,73-.12,36-5,71.77-45.07,71.77H110.41c-40,0-45-35.78-45.07-71.77-.13-36.41,8.11-73,45.07-73Z"/><path class="cls-3" d="M442,63.88c34.22,0,41.86,29.26,41.74,58.35-.11,28.75-4.66,57.36-41.74,57.36H123.19c-37.08,0-41.61-28.61-41.73-57.36C81.35,93.14,89,63.88,123.19,63.88Z"/><path class="cls-4" d="M110.41,193.14c-39.31,0-44.77-34.5-45.06-69.81v0c0,1.06,0,2.14,0,3.21.11,36,5,71.77,45.07,71.77h344.4c40,0,44.95-35.78,45.07-71.77,0-1.08,0-2.17,0-3.24-.31,35.31-5.75,69.81-45.06,69.81Z"/><path class="cls-5" d="M442,167.76H123.19c-34.57,0-40.85-24.85-41.63-51.53q-.11,3-.1,6c.12,28.77,4.65,57.36,41.73,57.36H442c37.08,0,41.63-28.59,41.74-57.36,0-2,0-4-.1-6C482.88,142.91,476.58,167.76,442,167.76Z"/><path class="cls-6" d="M81.46,122v.24c.12,28.77,4.65,57.36,41.73,57.36H442c37.08,0,41.63-28.59,41.74-57.36V122c0-1.55,0-3.12-.1-4.68-.77,26.68-7.07,51.53-41.64,51.53H123.19c-34.57,0-40.85-24.85-41.63-51.53C81.5,118.87,81.47,120.43,81.46,122Z"/><path class="cls-7" d="M481,138.75C313.17,155.7,179.2,157.18,84.76,140.58c4.52,15.72,15,27.18,38.43,27.18H442C466.39,167.76,476.71,155.39,481,138.75Z"/><path class="cls-5" d="M123.19,68.65H442c31,0,40.18,24,41.55,50.19,0-.87.08-1.74.09-2.61-.9-25-8.53-48.67-35.07-52a54.81,54.81,0,0,0-6.57-.38H123.19a54.72,54.72,0,0,0-6.55.38c-26.54,3.3-34.18,26.95-35.08,52,0,.87.06,1.74.09,2.61C83,92.68,92.19,68.65,123.19,68.65Z"/><path class="cls-6" d="M444.54,77.09c21,0,25.68,20.83,25.63,41.54-.08,20.48-2.87,40.85-25.63,40.85H208.86c-22.77,0-25.56-20.37-25.63-40.85,0-20.71,4.61-41.54,25.63-41.54Z"/><path class="cls-5" d="M444.54,81.77c21,0,25.68,19.65,25.63,39.18-.08,19.31-2.87,38.53-25.63,38.53H208.86c-22.77,0-25.56-19.22-25.63-38.53,0-19.53,4.61-39.18,25.63-39.18Z"/><path class="cls-7" d="M444.54,81.77c21,0,25.68,18.57,25.63,37-.08,18.26-2.87,36.41-25.63,36.41H208.86c-22.77,0-25.56-18.15-25.63-36.41,0-18.46,4.61-37,25.63-37Z"/><path class="cls-1" d="M32.59,55.3c18.29-15.21,40.57-21,61.77-18S135.8,52,149.88,71.7a95.26,95.26,0,0,1,16.69,66.66c-2.75,22.94-13.61,44.73-31.89,59.93s-40.57,21-61.77,18-41.44-14.67-55.52-34.41A95.25,95.25,0,0,1,.7,115.22C3.46,92.29,14.31,70.49,32.59,55.3Zm59,5.6A58.11,58.11,0,0,0,46.07,74.15,67.55,67.55,0,0,0,22.58,118.2a70.25,70.25,0,0,0,12.28,49.13c10.37,14.54,25.22,23.18,40.81,25.36a58.18,58.18,0,0,0,45.52-13.25,67.56,67.56,0,0,0,23.51-44.05,70.3,70.3,0,0,0-12.28-49.14C122.05,71.71,107.19,63.08,91.59,60.9Z"/><path class="cls-2" d="M32.59,46.86c18.29-15.21,40.57-21,61.77-18s41.44,14.69,55.52,34.41a95.26,95.26,0,0,1,16.69,66.66c-2.75,22.94-13.61,44.74-31.89,59.93s-40.57,21-61.77,18-41.44-14.67-55.52-34.41A95.25,95.25,0,0,1,.7,106.78C3.46,83.85,14.31,62.05,32.59,46.86Zm59,5.6A58.18,58.18,0,0,0,46.07,65.7a67.58,67.58,0,0,0-23.49,44.06,70.26,70.26,0,0,0,12.28,49.13c10.37,14.54,25.22,23.18,40.81,25.36A58.18,58.18,0,0,0,121.19,171a67.54,67.54,0,0,0,23.51-44,70.23,70.23,0,0,0-12.28-49.12C122.05,63.27,107.19,54.64,91.59,52.46Z"/><path class="cls-8" d="M39.33,51.62c31.77-26.4,77.35-20,101.82,14.25s18.56,83.48-13.22,109.89-77.34,20-101.81-14.26S7.57,78,39.33,51.62Z"/><path class="cls-9" d="M49.05,59a56.69,56.69,0,1,1-10.32,79.5A56.69,56.69,0,0,1,49.05,59Z"/><polygon class="cls-10" points="48.9 60.73 51.16 58.98 56.1 65.39 53.83 67.13 48.9 60.73"/><rect class="cls-11" x="35.11" y="80.34" width="2.86" height="8.08" transform="translate(-55.4 86) rotate(-67.59)"/><polygon class="cls-10" points="29.56 112.78 29.19 109.95 37.2 108.87 37.58 111.71 29.56 112.78"/><rect class="cls-11" x="39.83" y="133.88" width="8.09" height="2.86" transform="translate(-73.62 55.14) rotate(-37.73)"/><polygon class="cls-10" points="64.97 155.55 62.34 154.46 65.42 146.99 68.06 148.08 64.97 155.55"/><polygon class="cls-10" points="93.6 158.24 90.76 158.62 89.69 150.61 92.53 150.24 93.6 158.24"/><polygon class="cls-10" points="119.73 146.27 117.46 148.01 112.53 141.61 114.8 139.86 119.73 146.27"/><polygon class="cls-10" points="136.37 122.83 135.28 125.47 127.79 122.39 128.9 119.74 136.37 122.83"/><polygon class="cls-10" points="139.06 94.21 139.44 97.05 131.42 98.11 131.04 95.29 139.06 94.21"/><polygon class="cls-10" points="127.09 68.08 128.83 70.35 122.42 75.28 120.67 73.01 127.09 68.08"/><polygon class="cls-10" points="103.64 51.44 106.29 52.54 103.21 60.01 100.56 58.92 103.64 51.44"/><polygon class="cls-10" points="75.03 48.74 77.86 48.37 78.93 56.39 76.09 56.76 75.03 48.74"/><path class="cls-10" d="M111.17,71.12h0a3.72,3.72,0,0,1,1.47,5L94.54,109a3.72,3.72,0,0,1-5,1.46h0a3.71,3.71,0,0,1-1.45-5l18.08-32.83A3.73,3.73,0,0,1,111.17,71.12Z"/><path class="cls-10" d="M92.69,104.31a7.59,7.59,0,1,1-10.31,3A7.57,7.57,0,0,1,92.69,104.31Z"/><path class="cls-2" d="M90.23,108.76a2.5,2.5,0,1,1-3.4,1A2.5,2.5,0,0,1,90.23,108.76Z"/><path class="cls-4" d="M127.93,161.11c-29.65,24.65-71.35,20.72-96.66-7.81a76.6,76.6,0,0,1-5.15-6.45,81.63,81.63,0,0,1-14.77-40.43A82.61,82.61,0,0,0,26.12,161.5c24.46,34.29,70.06,40.67,101.81,14.26,20.51-17,30.24-43.57,28-69.45A81.12,81.12,0,0,1,136,153.26,73.5,73.5,0,0,1,127.93,161.11Z"/><path class="cls-12" d="M11,114.84A82,82,0,0,0,26.12,161.5c24.46,34.29,70.06,40.67,101.81,14.26,18.29-15.19,28-37.94,28.3-61,0-2.07-.14-4.12-.31-6.18A81.06,81.06,0,0,1,136,155.48a72.52,72.52,0,0,1-8.11,7.84C98.28,188,56.58,184.05,31.27,155.53a73.82,73.82,0,0,1-5.15-6.47,81.49,81.49,0,0,1-14.77-40.43Q11.08,111.74,11,114.84Z"/><path class="cls-4" d="M39.33,58.94c31.77-26.38,77.35-20,101.82,14.27A81.35,81.35,0,0,1,155.52,110c.15-1.21.29-2.44.39-3.65a81.64,81.64,0,0,0-14.76-40.44C116.68,31.59,71.1,25.22,39.33,51.62c-16.63,13.82-26.17,33.88-28,54.8.11,1.21.24,2.44.4,3.65C14.31,90.5,23.68,72,39.33,58.94Z"/><path class="cls-13" d="M127.93,147.55c-31.75,26.4-77.34,20-101.81-14.25-1.2-1.7-2.34-3.42-3.4-5.18a81.12,81.12,0,0,1-9.8-24.83q-.72,3.36-1.17,6.78a81.35,81.35,0,0,0,14.37,36.78,76.6,76.6,0,0,0,5.15,6.45c25.31,28.53,67,32.46,96.66,7.81a73.5,73.5,0,0,0,8.11-7.85A80.63,80.63,0,0,0,155.52,110c-.3-2.26-.69-4.52-1.17-6.76a81.66,81.66,0,0,1-9.81,25A76,76,0,0,1,127.93,147.55Z"/><path class="cls-4" d="M72.91,199.64c-21.25-3-41.44-14.69-55.52-34.41A94.45,94.45,0,0,1,.08,114.33a94.85,94.85,0,0,0,17.31,59.11c14.08,19.74,34.27,31.44,55.52,34.41s43.48-2.79,61.77-18,29.14-37,31.89-59.93a97.39,97.39,0,0,0,.61-15.75c-.1,2.52-.31,5-.61,7.54-2.75,22.94-13.61,44.72-31.89,59.92S94.11,202.6,72.91,199.64Z"/><text class="cls-14" transform="translate(282.6 36.54)">ZE<tspan class="cls-15" x="41.27" y="0">I</tspan><tspan x="53.8" y="0">T</tspan></text></g></g></svg>