<svg xmlns="http://www.w3.org/2000/svg" viewBox="0 0 500.13 219.55"><defs><style>.cls-1,.cls-10,.cls-11{fill:#010101;}.cls-1,.cls-10,.cls-12,.cls-13,.cls-2,.cls-3,.cls-4,.cls-5,.cls-6,.cls-7,.cls-8,.cls-9{fill-rule:evenodd;}.cls-1{opacity:0.2;}.cls-16,.cls-2{fill:#fff;}.cls-3{fill:#fcc133;}.cls-4{fill:#e7e6e6;}.cls-5{fill:#ffe55a;}.cls-6{fill:#d39802;}.cls-7{fill:#fab612;}.cls-8{fill:#cdcccc;}.cls-9{fill:#f4f3f4;}.cls-12{fill:#9a9999;}.cls-13{fill:#b4b4b4;}.cls-14,.cls-16{font-size:42.46px;font-family:Bangers-Regular, Bangers;letter-spacing:0.1em;}.cls-14{fill:none;stroke:#1d1d1b;stroke-width:5px;}.cls-15{letter-spacing:0.1em;}</style></defs><g id="Layer_2" data-name="Layer 2"><g id="Basic_UI" data-name="Basic UI"><path class="cls-1" d="M455.05,54.31c36.95,0,45.19,36.6,45.08,73-.13,36-5,71.79-45.08,71.79H110.66c-40.06,0-45-35.79-45.08-71.79-.12-36.41,8.11-73,45.08-73Z"/><path class="cls-2" d="M455.05,47.14c36.95,0,45.19,36.62,45.08,73-.13,36-5,71.77-45.08,71.77H110.66c-40.06,0-45-35.79-45.08-71.77-.12-36.41,8.11-73,45.08-73Z"/><path class="cls-3" d="M442.26,57.47c34.22,0,41.85,29.26,41.74,58.36-.12,28.75-4.66,57.35-41.74,57.35H123.44c-37.08,0-41.61-28.6-41.74-57.35-.1-29.1,7.52-58.36,41.74-58.36Z"/><path class="cls-4" d="M110.66,186.74c-39.32,0-44.77-34.51-45.07-69.81v0c0,1.07,0,2.15,0,3.22.11,36,5,71.77,45.08,71.77H455.05c40,0,44.95-35.79,45.08-71.77,0-1.08,0-2.17,0-3.24-.31,35.3-5.75,69.81-45.07,69.81Z"/><path class="cls-5" d="M442.26,161.36H123.44c-34.57,0-40.85-24.86-41.64-51.53-.06,2-.1,4-.1,6,.13,28.76,4.66,57.35,41.74,57.35H442.26c37.08,0,41.62-28.59,41.74-57.35,0-2,0-4-.11-6C483.12,136.5,476.83,161.36,442.26,161.36Z"/><path class="cls-6" d="M81.7,115.59v.24c.13,28.76,4.66,57.35,41.74,57.35H442.26c37.08,0,41.62-28.59,41.74-57.35v-.24c0-1.56-.05-3.13-.11-4.68-.77,26.67-7.06,51.53-41.63,51.53H123.44c-34.57,0-40.85-24.86-41.64-51.53C81.75,112.46,81.71,114,81.7,115.59Z"/><path class="cls-7" d="M481.19,132.34C313.41,149.29,179.44,150.77,85,134.17c4.52,15.72,15,27.19,38.43,27.19H442.26C466.64,161.36,477,149,481.19,132.34Z"/><path class="cls-5" d="M123.44,62.24H442.26c31,0,40.18,24,41.54,50.19.05-.86.08-1.74.09-2.6-.89-25-8.53-48.68-35.07-52a54.58,54.58,0,0,0-6.56-.39H123.44a54.71,54.71,0,0,0-6.56.39c-26.53,3.29-34.18,26.94-35.08,52l.09,2.6C83.26,86.28,92.44,62.24,123.44,62.24Z"/><path class="cls-6" d="M444.78,70.68c21,0,25.69,20.83,25.63,41.54-.08,20.49-2.86,40.86-25.63,40.86H209.1c-22.76,0-25.56-20.37-25.62-40.86-.06-20.71,4.61-41.54,25.62-41.54Z"/><path class="cls-5" d="M444.78,75.36c21,0,25.69,19.65,25.63,39.18-.08,19.31-2.86,38.54-25.63,38.54H209.1c-22.76,0-25.56-19.23-25.62-38.54-.06-19.53,4.61-39.18,25.62-39.18Z"/><path class="cls-7" d="M444.78,75.36c21,0,25.69,18.57,25.63,37-.08,18.26-2.86,36.41-25.63,36.41H209.1c-22.76,0-25.56-18.15-25.62-36.41-.06-18.46,4.61-37,25.62-37Z"/><path class="cls-1" d="M32.59,57.8c18.29-15.21,40.57-21,61.77-18S135.8,54.47,149.88,74.2a95.26,95.26,0,0,1,16.69,66.66c-2.75,22.94-13.61,44.73-31.89,59.93s-40.57,21-61.77,18-41.44-14.67-55.52-34.41A95.25,95.25,0,0,1,.7,117.72C3.46,94.79,14.31,73,32.59,57.8Zm59,5.6A58.11,58.11,0,0,0,46.07,76.65,67.55,67.55,0,0,0,22.58,120.7a70.25,70.25,0,0,0,12.28,49.13C45.23,184.37,60.08,193,75.67,195.19a58.18,58.18,0,0,0,45.52-13.25,67.56,67.56,0,0,0,23.51-44.05,70.26,70.26,0,0,0-12.28-49.13C122.05,74.21,107.19,65.58,91.59,63.4Z"/><path class="cls-2" d="M32.59,49.36c18.29-15.21,40.57-21,61.77-18S135.8,46,149.88,65.76a95.26,95.26,0,0,1,16.69,66.66c-2.75,22.94-13.61,44.74-31.89,59.93s-40.57,21-61.77,18-41.44-14.67-55.52-34.41A95.25,95.25,0,0,1,.7,109.28C3.46,86.35,14.31,64.55,32.59,49.36Zm59,5.6A58.22,58.22,0,0,0,46.07,68.2a67.58,67.58,0,0,0-23.49,44.06,70.26,70.26,0,0,0,12.28,49.13c10.37,14.54,25.22,23.18,40.81,25.36a58.18,58.18,0,0,0,45.52-13.25,67.54,67.54,0,0,0,23.51-44.05,70.23,70.23,0,0,0-12.28-49.12C122.05,65.77,107.19,57.14,91.59,55Z"/><path class="cls-8" d="M39.33,54.12c31.77-26.4,77.35-20,101.82,14.25s18.56,83.48-13.22,109.89S50.59,198.29,26.12,164,7.57,80.53,39.33,54.12Z"/><path class="cls-9" d="M49.05,61.51A56.69,56.69,0,1,1,38.73,141,56.69,56.69,0,0,1,49.05,61.51Z"/><polygon class="cls-10" points="48.9 63.23 51.16 61.48 56.1 67.89 53.83 69.63 48.9 63.23"/><rect class="cls-11" x="35.11" y="82.84" width="2.86" height="8.08" transform="translate(-57.71 87.54) rotate(-67.59)"/><polygon class="cls-10" points="29.56 115.28 29.19 112.45 37.2 111.37 37.58 114.21 29.56 115.28"/><rect class="cls-11" x="39.83" y="136.38" width="8.09" height="2.86" transform="translate(-75.15 55.66) rotate(-37.73)"/><polygon class="cls-10" points="64.97 158.05 62.34 156.96 65.42 149.49 68.06 150.58 64.97 158.05"/><polygon class="cls-10" points="93.6 160.74 90.76 161.12 89.69 153.11 92.53 152.74 93.6 160.74"/><polygon class="cls-10" points="119.73 148.77 117.46 150.51 112.53 144.11 114.8 142.36 119.73 148.77"/><polygon class="cls-10" points="136.37 125.33 135.28 127.97 127.79 124.89 128.9 122.24 136.37 125.33"/><polygon class="cls-10" points="139.06 96.71 139.44 99.55 131.42 100.61 131.04 97.79 139.06 96.71"/><polygon class="cls-10" points="127.09 70.58 128.83 72.85 122.42 77.78 120.67 75.51 127.09 70.58"/><polygon class="cls-10" points="103.64 53.94 106.29 55.04 103.21 62.51 100.56 61.42 103.64 53.94"/><polygon class="cls-10" points="75.03 51.24 77.86 50.87 78.93 58.89 76.09 59.26 75.03 51.24"/><path class="cls-10" d="M111.17,73.62h0a3.72,3.72,0,0,1,1.47,5l-18.1,32.82a3.72,3.72,0,0,1-5,1.46h0a3.71,3.71,0,0,1-1.45-5l18.08-32.83A3.73,3.73,0,0,1,111.17,73.62Z"/><path class="cls-10" d="M92.69,106.81a7.59,7.59,0,1,1-10.31,3A7.57,7.57,0,0,1,92.69,106.81Z"/><path class="cls-2" d="M90.23,111.26a2.5,2.5,0,1,1-3.4,1A2.5,2.5,0,0,1,90.23,111.26Z"/><path class="cls-4" d="M127.93,163.61c-29.65,24.65-71.35,20.72-96.66-7.81a76.6,76.6,0,0,1-5.15-6.45,81.63,81.63,0,0,1-14.77-40.43A82.61,82.61,0,0,0,26.12,164c24.46,34.29,70.06,40.67,101.81,14.26,20.51-17,30.24-43.56,28-69.45A81.12,81.12,0,0,1,136,155.76,73.5,73.5,0,0,1,127.93,163.61Z"/><path class="cls-12" d="M11,117.34A82,82,0,0,0,26.12,164c24.46,34.29,70.06,40.67,101.81,14.26,18.29-15.19,28-37.94,28.3-61,0-2.07-.14-4.12-.31-6.18A81.06,81.06,0,0,1,136,158a72.52,72.52,0,0,1-8.11,7.84C98.28,190.47,56.58,186.55,31.27,158a73.82,73.82,0,0,1-5.15-6.47,81.49,81.49,0,0,1-14.77-40.43Q11.08,114.24,11,117.34Z"/><path class="cls-4" d="M39.33,61.44c31.77-26.38,77.35-20,101.82,14.27a81.35,81.35,0,0,1,14.37,36.75c.15-1.21.29-2.44.39-3.65a81.64,81.64,0,0,0-14.76-40.44C116.68,34.09,71.1,27.72,39.33,54.12,22.7,67.94,13.16,88,11.35,108.92c.11,1.21.24,2.44.4,3.65C14.31,93,23.68,74.46,39.33,61.44Z"/><path class="cls-13" d="M127.93,150.05c-31.75,26.4-77.34,20-101.81-14.25-1.2-1.7-2.34-3.42-3.4-5.18a81.12,81.12,0,0,1-9.8-24.83q-.72,3.36-1.17,6.78a81.35,81.35,0,0,0,14.37,36.78,76.6,76.6,0,0,0,5.15,6.45c25.31,28.53,67,32.46,96.66,7.81a73.5,73.5,0,0,0,8.11-7.85,80.63,80.63,0,0,0,19.48-43.3c-.3-2.26-.69-4.52-1.17-6.76a81.66,81.66,0,0,1-9.81,25A76,76,0,0,1,127.93,150.05Z"/><path class="cls-4" d="M72.91,202.14c-21.25-3-41.44-14.69-55.52-34.41A94.45,94.45,0,0,1,.08,116.83a94.85,94.85,0,0,0,17.31,59.11c14.08,19.74,34.27,31.44,55.52,34.41s43.48-2.79,61.77-18,29.14-37,31.89-59.93a97.39,97.39,0,0,0,.61-15.75c-.1,2.52-.31,5-.61,7.54-2.75,22.94-13.61,44.72-31.89,59.92S94.11,205.1,72.91,202.14Z"/><text class="cls-14" transform="translate(282.85 39.04)">ZE<tspan class="cls-15" x="41.27" y="0">I</tspan><tspan x="53.8" y="0">T</tspan></text><text class="cls-16" transform="translate(282.85 39.04)">ZE<tspan class="cls-15" x="41.27" y="0">I</tspan><tspan x="53.8" y="0">T</tspan></text></g></g></svg>