<svg xmlns="http://www.w3.org/2000/svg" viewBox="0 0 500.13 214.61"><defs><style>.cls-1,.cls-10,.cls-11{fill:#010101;}.cls-1,.cls-10,.cls-12,.cls-13,.cls-2,.cls-3,.cls-4,.cls-5,.cls-6,.cls-7,.cls-8,.cls-9{fill-rule:evenodd;}.cls-1{opacity:0.2;}.cls-15,.cls-2{fill:#fff;}.cls-3{fill:#fcc133;}.cls-4{fill:#e7e6e6;}.cls-5{fill:#ffe55a;}.cls-6{fill:#d39802;}.cls-7{fill:#fab612;}.cls-8{fill:#cdcccc;}.cls-9{fill:#f4f3f4;}.cls-12{fill:#9a9999;}.cls-13{fill:#b4b4b4;}.cls-14{fill:none;stroke:#1d1d1b;stroke-width:5px;}</style></defs><g id="Layer_2" data-name="Layer 2"><g id="Basic_UI" data-name="Basic UI"><path class="cls-1" d="M455.05,49.38c36.95,0,45.19,36.6,45.08,73-.13,36-5,71.78-45.08,71.78H110.66c-40.06,0-45-35.78-45.08-71.78-.12-36.41,8.11-73,45.08-73Z"/><path class="cls-2" d="M455.05,42.21c36.95,0,45.19,36.61,45.08,73-.13,36-5,71.77-45.08,71.77H110.66c-40.06,0-45-35.78-45.08-71.77-.12-36.41,8.11-73,45.08-73Z"/><path class="cls-3" d="M442.26,52.54c34.22,0,41.85,29.26,41.74,58.35-.12,28.75-4.66,57.36-41.74,57.36H123.44c-37.08,0-41.61-28.61-41.74-57.36-.1-29.09,7.52-58.35,41.74-58.35Z"/><path class="cls-4" d="M110.66,181.8c-39.32,0-44.77-34.5-45.07-69.81v0c0,1.06,0,2.14,0,3.21.11,36,5,71.77,45.08,71.77H455.05c40,0,44.95-35.78,45.08-71.77,0-1.08,0-2.17,0-3.24-.31,35.31-5.75,69.81-45.07,69.81Z"/><path class="cls-5" d="M442.26,156.42H123.44c-34.57,0-40.85-24.85-41.64-51.53-.06,2-.1,4-.1,6,.13,28.77,4.66,57.36,41.74,57.36H442.26c37.08,0,41.62-28.59,41.74-57.36,0-2,0-4-.11-6C483.12,131.57,476.83,156.42,442.26,156.42Z"/><path class="cls-6" d="M81.7,110.65v.24c.13,28.77,4.66,57.36,41.74,57.36H442.26c37.08,0,41.62-28.59,41.74-57.36v-.24c0-1.55-.05-3.12-.11-4.68-.77,26.68-7.06,51.53-41.63,51.53H123.44c-34.57,0-40.85-24.85-41.64-51.53C81.75,107.53,81.71,109.09,81.7,110.65Z"/><path class="cls-7" d="M481.19,127.41c-167.78,17-301.75,18.43-396.18,1.83,4.52,15.72,15,27.18,38.43,27.18H442.26C466.64,156.42,477,144.05,481.19,127.41Z"/><path class="cls-5" d="M123.44,57.31H442.26c31,0,40.18,24,41.54,50.19q.07-1.31.09-2.61c-.89-25-8.53-48.67-35.07-52a54.64,54.64,0,0,0-6.56-.38H123.44a54.77,54.77,0,0,0-6.56.38c-26.53,3.3-34.18,27-35.08,52l.09,2.61C83.26,81.34,92.44,57.31,123.44,57.31Z"/><path class="cls-6" d="M444.78,65.75c21,0,25.69,20.83,25.63,41.54-.08,20.48-2.86,40.85-25.63,40.85H209.1c-22.76,0-25.56-20.37-25.62-40.85-.06-20.71,4.61-41.54,25.62-41.54Z"/><path class="cls-5" d="M444.78,70.43c21,0,25.69,19.65,25.63,39.18-.08,19.31-2.86,38.53-25.63,38.53H209.1c-22.76,0-25.56-19.22-25.62-38.53-.06-19.53,4.61-39.18,25.62-39.18Z"/><path class="cls-7" d="M444.78,70.43c21,0,25.69,18.57,25.63,37-.08,18.26-2.86,36.41-25.63,36.41H209.1c-22.76,0-25.56-18.15-25.62-36.41-.06-18.46,4.61-37,25.62-37Z"/><path class="cls-1" d="M32.59,52.87c18.29-15.22,40.57-21,61.77-18s41.44,14.68,55.52,34.41a95.25,95.25,0,0,1,16.69,66.66c-2.75,22.94-13.61,44.72-31.89,59.92s-40.57,21-61.77,18-41.44-14.68-55.52-34.41A95.25,95.25,0,0,1,.7,112.79C3.46,89.85,14.31,68.05,32.59,52.87Zm59,5.6A58.1,58.1,0,0,0,46.07,71.71a67.55,67.55,0,0,0-23.49,44.06A70.25,70.25,0,0,0,34.86,164.9c10.37,14.54,25.22,23.17,40.81,25.35A58.13,58.13,0,0,0,121.19,177,67.56,67.56,0,0,0,144.7,133a70.26,70.26,0,0,0-12.28-49.13C122.05,69.28,107.19,60.65,91.59,58.47Z"/><path class="cls-2" d="M32.59,44.42c18.29-15.21,40.57-21,61.77-18s41.44,14.69,55.52,34.41a95.25,95.25,0,0,1,16.69,66.66c-2.75,22.94-13.61,44.74-31.89,59.92s-40.57,21-61.77,18S31.47,190.74,17.39,171A95.25,95.25,0,0,1,.7,104.35C3.46,81.41,14.31,59.61,32.59,44.42Zm59,5.6A58.19,58.19,0,0,0,46.07,63.27a67.55,67.55,0,0,0-23.49,44,70.28,70.28,0,0,0,12.28,49.14C45.23,171,60.08,179.63,75.67,181.81a58.13,58.13,0,0,0,45.52-13.24,67.54,67.54,0,0,0,23.51-44.06,70.23,70.23,0,0,0-12.28-49.12C122.05,60.84,107.19,52.21,91.59,50Z"/><path class="cls-8" d="M39.33,49.18c31.77-26.4,77.35-20,101.82,14.26s18.56,83.47-13.22,109.89-77.34,20-101.81-14.26S7.57,75.6,39.33,49.18Z"/><path class="cls-9" d="M49.05,56.58a56.68,56.68,0,1,1-10.32,79.5A56.69,56.69,0,0,1,49.05,56.58Z"/><polygon class="cls-10" points="48.9 58.3 51.16 56.55 56.1 62.95 53.83 64.69 48.9 58.3"/><rect class="cls-11" x="35.11" y="77.9" width="2.86" height="8.08" transform="translate(-53.15 84.49) rotate(-67.59)"/><polygon class="cls-10" points="29.56 110.35 29.19 107.52 37.2 106.44 37.58 109.28 29.56 110.35"/><rect class="cls-11" x="39.83" y="131.45" width="8.09" height="2.86" transform="translate(-72.13 54.63) rotate(-37.73)"/><polygon class="cls-10" points="64.97 153.12 62.34 152.03 65.42 144.55 68.06 145.64 64.97 153.12"/><polygon class="cls-10" points="93.6 155.81 90.76 156.19 89.69 148.18 92.53 147.8 93.6 155.81"/><polygon class="cls-10" points="119.73 143.84 117.46 145.57 112.53 139.18 114.8 137.43 119.73 143.84"/><polygon class="cls-10" points="136.37 120.4 135.28 123.04 127.79 119.96 128.9 117.31 136.37 120.4"/><polygon class="cls-10" points="139.06 91.77 139.44 94.61 131.42 95.68 131.04 92.85 139.06 91.77"/><polygon class="cls-10" points="127.09 65.64 128.83 67.92 122.42 72.85 120.67 70.58 127.09 65.64"/><polygon class="cls-10" points="103.64 49 106.29 50.1 103.21 57.58 100.56 56.49 103.64 49"/><polygon class="cls-10" points="75.03 46.31 77.86 45.94 78.93 53.95 76.09 54.33 75.03 46.31"/><path class="cls-10" d="M111.17,68.69h0a3.71,3.71,0,0,1,1.47,5l-18.1,32.82a3.72,3.72,0,0,1-5,1.47h0a3.72,3.72,0,0,1-1.45-5l18.08-32.83A3.73,3.73,0,0,1,111.17,68.69Z"/><path class="cls-10" d="M92.69,101.87a7.59,7.59,0,1,1-10.31,3A7.58,7.58,0,0,1,92.69,101.87Z"/><path class="cls-2" d="M90.23,106.33a2.5,2.5,0,1,1-3.4,1A2.49,2.49,0,0,1,90.23,106.33Z"/><path class="cls-4" d="M127.93,158.67c-29.65,24.65-71.35,20.72-96.66-7.8a76.6,76.6,0,0,1-5.15-6.45A81.63,81.63,0,0,1,11.35,104a82.64,82.64,0,0,0,14.77,55.08c24.46,34.28,70.06,40.67,101.81,14.26,20.51-17,30.24-43.57,28-69.46A81.06,81.06,0,0,1,136,150.82,72.6,72.6,0,0,1,127.93,158.67Z"/><path class="cls-12" d="M11,112.4a82,82,0,0,0,15.08,46.67c24.46,34.28,70.06,40.67,101.81,14.26,18.29-15.19,28-38,28.3-61.05q-.06-3.11-.31-6.18a81.09,81.09,0,0,1-19.88,47,73.42,73.42,0,0,1-8.11,7.84c-29.65,24.65-71.35,20.73-96.66-7.79a76.92,76.92,0,0,1-5.15-6.47A81.52,81.52,0,0,1,11.35,106.2Q11.08,109.31,11,112.4Z"/><path class="cls-4" d="M39.33,56.51c31.77-26.39,77.35-20,101.82,14.27a81.35,81.35,0,0,1,14.37,36.75c.15-1.22.29-2.44.39-3.66a81.64,81.64,0,0,0-14.76-40.43C116.68,29.16,71.1,22.78,39.33,49.18,22.7,63,13.16,83.07,11.35,104c.11,1.21.24,2.44.4,3.64C14.31,88.07,23.68,69.53,39.33,56.51Z"/><path class="cls-13" d="M127.93,145.12c-31.75,26.4-77.34,20-101.81-14.26-1.2-1.69-2.34-3.42-3.4-5.18a81.16,81.16,0,0,1-9.8-24.82q-.72,3.36-1.17,6.77a81.43,81.43,0,0,0,14.37,36.79,76.6,76.6,0,0,0,5.15,6.45c25.31,28.52,67,32.45,96.66,7.8a72.6,72.6,0,0,0,8.11-7.85,80.6,80.6,0,0,0,19.48-43.29c-.3-2.26-.69-4.52-1.17-6.76a81.76,81.76,0,0,1-9.81,25A76.17,76.17,0,0,1,127.93,145.12Z"/><path class="cls-4" d="M72.91,197.21c-21.25-3-41.44-14.69-55.52-34.41A94.46,94.46,0,0,1,.08,111.89,94.86,94.86,0,0,0,17.39,171c14.08,19.73,34.27,31.43,55.52,34.41s43.48-2.8,61.77-18,29.14-37,31.89-59.92a97.52,97.52,0,0,0,.61-15.76c-.1,2.52-.31,5-.61,7.55C163.82,142.21,153,164,134.68,179.2S94.11,200.17,72.91,197.21Z"/><path class="cls-14" d="M299.53,32.45l-2.9.12c-1.12.06-2.33.13-3.63.22s-2.58.17-3.83.27-2.39.21-3.46.32-1.9.23-2.52.34l0-6.2,12.06-16.43a19.39,19.39,0,0,0-2,.15c-.88.1-1.76.2-2.65.32s-1.67.22-2.32.34l-1,.08.81-6.67,17.37-1.23-1.11,5.86L292.74,26.42c.57,0,1.32,0,2.27-.09l2.95-.17c1-.05,2.13-.12,3.32-.21l-.13,6.45Z"/><path class="cls-14" d="M305.73,34.15,311.3,4l13.41-1.15c-.2.62-.36,1.26-.51,1.91s-.27,1.1-.4,1.68-.23,1.09-.32,1.55c-.28,0-.68,0-1.21.06l-1.67,0c-.6,0-1.2,0-1.81,0H317.2l-1.49,7.6,2.47-.12c.62,0,1.25-.05,1.91-.05s1.13,0,1.44,0c-.11.8-.22,1.57-.32,2.34s-.22,1.54-.36,2.33c-.28,0-.74.05-1.38.07l-1.93.06-2.42.09-1.45,7.81,6.2-1L319.45,32Z"/><path class="cls-14" d="M329.34,33.36c-.74.07-1.5.16-2.29.25l-2.15.28a9.44,9.44,0,0,0-1,.17q.51-1.83,1-4.05c.34-1.49.69-3.05,1-4.68s.7-3.27,1-4.94.65-3.29,1-4.84Q329,10.11,330,4.38l6.62-1.06q-1.1,5.69-2.21,11.17c-.31,1.55-.63,3.17-.95,4.84s-.64,3.32-.94,5-.59,3.24-.89,4.78-.56,2.94-.78,4.18C330.57,33.25,330.08,33.29,329.34,33.36Z"/><path class="cls-14" d="M340.47,34.15q1-4.68,1.86-9.22c.26-1.27.51-2.6.77-4s.5-2.75.74-4.1.45-2.64.64-3.9.34-2.42.49-3.46a10.86,10.86,0,0,0-2-.09,6,6,0,0,1-2-.25c0-.46,0-1,0-1.58s0-1.18,0-1.78.06-1.34.09-2.08c.73.06,1.47.1,2.21.13s1.47,0,2.2,0c1.45,0,2.84,0,4.19-.11s2.59-.15,3.73-.25,2.27-.22,3.38-.36l-.47,2.29c-.14.65-.28,1.32-.4,2s-.25,1.26-.36,1.74a12.58,12.58,0,0,1-1.89.36c-.64.07-1.27.16-1.89.28-.2,1-.41,2-.64,3.2s-.45,2.39-.66,3.65-.41,2.54-.61,3.85-.4,2.54-.6,3.73c-.45,2.8-.87,5.71-1.27,8.71Z"/><path class="cls-15" d="M299.53,32.45l-2.9.12c-1.12.06-2.33.13-3.63.22s-2.58.17-3.83.27-2.39.21-3.46.32-1.9.23-2.52.34l0-6.2,12.06-16.43a19.39,19.39,0,0,0-2,.15c-.88.1-1.76.2-2.65.32s-1.67.22-2.32.34l-1,.08.81-6.67,17.37-1.23-1.11,5.86L292.74,26.42c.57,0,1.32,0,2.27-.09l2.95-.17c1-.05,2.13-.12,3.32-.21l-.13,6.45Z"/><path class="cls-15" d="M305.73,34.15,311.3,4l13.41-1.15c-.2.62-.36,1.26-.51,1.91s-.27,1.1-.4,1.68-.23,1.09-.32,1.55c-.28,0-.68,0-1.21.06l-1.67,0c-.6,0-1.2,0-1.81,0H317.2l-1.49,7.6,2.47-.12c.62,0,1.25-.05,1.91-.05s1.13,0,1.44,0c-.11.8-.22,1.57-.32,2.34s-.22,1.54-.36,2.33c-.28,0-.74.05-1.38.07l-1.93.06-2.42.09-1.45,7.81,6.2-1L319.45,32Z"/><path class="cls-15" d="M329.34,33.36c-.74.07-1.5.16-2.29.25l-2.15.28a9.44,9.44,0,0,0-1,.17q.51-1.83,1-4.05c.34-1.49.69-3.05,1-4.68s.7-3.27,1-4.94.65-3.29,1-4.84Q329,10.11,330,4.38l6.62-1.06q-1.1,5.69-2.21,11.17c-.31,1.55-.63,3.17-.95,4.84s-.64,3.32-.94,5-.59,3.24-.89,4.78-.56,2.94-.78,4.18C330.57,33.25,330.08,33.29,329.34,33.36Z"/><path class="cls-15" d="M340.47,34.15q1-4.68,1.86-9.22c.26-1.27.51-2.6.77-4s.5-2.75.74-4.1.45-2.64.64-3.9.34-2.42.49-3.46a10.86,10.86,0,0,0-2-.09,6,6,0,0,1-2-.25c0-.46,0-1,0-1.58s0-1.18,0-1.78.06-1.34.09-2.08c.73.06,1.47.1,2.21.13s1.47,0,2.2,0c1.45,0,2.84,0,4.19-.11s2.59-.15,3.73-.25,2.27-.22,3.38-.36l-.47,2.29c-.14.65-.28,1.32-.4,2s-.25,1.26-.36,1.74a12.58,12.58,0,0,1-1.89.36c-.64.07-1.27.16-1.89.28-.2,1-.41,2-.64,3.2s-.45,2.39-.66,3.65-.41,2.54-.61,3.85-.4,2.54-.6,3.73c-.45,2.8-.87,5.71-1.27,8.71Z"/></g></g></svg>